<svg width="293" height="175" viewBox="0 0 293 175" fill="none" xmlns="http://www.w3.org/2000/svg">
<g filter="url(#filter0_d)">
<path d="M30 25C30 19.4772 34.4772 15 40 15H253C258.523 15 263 19.4772 263 25V120C263 125.523 258.523 130 253 130H40C34.4771 130 30 125.523 30 120V25Z" fill="white"/>
</g>
<mask id="mask0" mask-type="alpha" maskUnits="userSpaceOnUse" x="30" y="15" width="233" height="115">
<rect x="30" y="15" width="233" height="115" rx="10" fill="white"/>
</mask>
<g mask="url(#mask0)">
<circle opacity="0.1" cx="63.5" cy="38.5" r="53.5" fill="#4B7FFB"/>
</g>
<path d="M64.6873 49.3134C64.2163 49.3134 63.8351 48.9914 63.8351 48.5936C63.8351 48.1963 64.2163 47.8739 64.6873 47.8739H68.1693C68.8399 45.113 71.9683 43.5524 74.5163 44.7587V32.2875C74.5163 32.0793 74.3164 31.9099 74.0698 31.9099H70.4725C70.1111 32.8682 69.047 33.5644 67.7943 33.5644H58.722C57.4693 33.5644 56.4052 32.8682 56.0439 31.9099H52.4465C52.2005 31.9099 52 32.0793 52 32.2875V52.6229C52 52.8307 52.2005 53.0001 52.4465 53.0001H69.71C68.7874 51.918 68.1393 50.6553 68.0494 49.3134H64.6873ZM64.6873 37.4962H70.2072C70.6781 37.4962 71.0594 37.8187 71.0594 38.216C71.0594 38.6138 70.6781 38.9358 70.2072 38.9358H64.6873C64.2163 38.9358 63.8351 38.6138 63.8351 38.216C63.8351 37.8187 64.2163 37.4962 64.6873 37.4962ZM64.6873 42.6853H67.7738C68.2443 42.6853 68.626 43.0073 68.626 43.4051C68.626 43.8024 68.2443 44.1248 67.7738 44.1248H64.6873C64.2163 44.1248 63.8351 43.8024 63.8351 43.4051C63.8351 43.0073 64.2163 42.6853 64.6873 42.6853ZM61.812 47.2779L58.5322 50.0207C58.1841 50.3116 57.6213 50.2945 57.2971 49.9886L55.6735 48.4526C55.3598 48.1561 55.3905 47.7012 55.7416 47.4363C56.0927 47.1714 56.6313 47.1973 56.9449 47.4939L57.9709 48.4641L60.6127 46.2549C60.9473 45.9752 61.487 45.9776 61.8182 46.2597C62.1494 46.5423 62.1466 46.9982 61.812 47.2779ZM61.812 42.0889L58.5322 44.8317C58.1849 45.1219 57.6212 45.1062 57.2971 44.7995L55.6735 43.2636C55.3598 42.967 55.3905 42.5121 55.7416 42.2473C56.0927 41.9824 56.6313 42.0083 56.9449 42.3048L57.9709 43.2756L60.6127 41.0659C60.9473 40.7861 61.487 40.7885 61.8182 41.0711C62.1494 41.3537 62.1466 41.8091 61.812 42.0889ZM61.812 36.8998L58.5322 39.6426C58.1908 39.9289 57.626 39.9218 57.2971 39.6105L55.6735 38.0745C55.3598 37.778 55.3905 37.3231 55.7416 37.0587C56.0927 36.7938 56.6313 36.8192 56.9449 37.1158L57.9709 38.0865L60.6127 35.8773C60.9473 35.5976 61.487 35.5995 61.8182 35.8821C62.1494 36.1647 62.1466 36.6206 61.812 36.8998Z" fill="#FE6A16"/>
<path d="M58.7221 32.1248H67.7944C68.4057 32.1248 68.9006 31.7044 68.9006 31.19C68.9006 30.6741 68.4035 30.2558 67.7944 30.2558H65.4339C64.9635 30.2558 64.5817 29.9338 64.5817 29.536V29.118C64.5817 28.5014 63.988 28 63.2585 28C62.5285 28 61.9348 28.5014 61.9348 29.1181V29.536C61.9348 29.9338 61.5531 30.2558 61.0826 30.2558H58.7221C58.111 30.2558 57.616 30.6764 57.616 31.1901C57.616 31.7064 58.1135 32.1248 58.7221 32.1248Z" fill="#FE6A16"/>
<path d="M79.0351 43.8014C79.5498 43.3671 79.7611 42.6798 79.667 41.7526C79.6553 41.6374 79.5463 41.5452 79.4099 41.5353C78.312 41.4555 77.4978 41.6344 76.9842 42.0692C76.3754 42.5828 76.2032 43.4599 76.2208 44.2091C76.2239 44.3389 76.3473 44.443 76.501 44.4455C77.396 44.4601 78.4265 44.3146 79.0351 43.8014Z" fill="#FE6A16"/>
<path d="M80.6786 47.5463C80.2241 46.5914 79.3026 45.9072 78.3306 45.8035C77.385 45.7014 76.6109 46.1526 76.0553 46.7949C75.7156 47.1852 75.0234 47.187 74.6821 46.7949C74.1187 46.1504 73.3547 45.7017 72.4062 45.8035C70.2538 46.0331 68.1714 49.1304 71.4296 52.5314C71.6609 52.7733 72.0137 52.9427 72.404 53.0002H78.4267C78.7681 52.9316 79.0862 52.7632 79.3078 52.5314C80.8974 50.8721 81.3973 49.055 80.6786 47.5463Z" fill="#FE6A16"/>
<defs>
<filter id="filter0_d" x="0" y="0" width="293" height="175" filterUnits="userSpaceOnUse" color-interpolation-filters="sRGB">
<feFlood flood-opacity="0" result="BackgroundImageFix"/>
<feColorMatrix in="SourceAlpha" type="matrix" values="0 0 0 0 0 0 0 0 0 0 0 0 0 0 0 0 0 0 127 0"/>
<feOffset dy="15"/>
<feGaussianBlur stdDeviation="15"/>
<feColorMatrix type="matrix" values="0 0 0 0 0.87875 0 0 0 0 0.87875 0 0 0 0 0.925 0 0 0 0.4 0"/>
<feBlend mode="normal" in2="BackgroundImageFix" result="effect1_dropShadow"/>
<feBlend mode="normal" in="SourceGraphic" in2="effect1_dropShadow" result="shape"/>
</filter>
</defs>
</svg>
