<svg width="25" height="22" viewBox="0 0 25 22" fill="none" xmlns="http://www.w3.org/2000/svg">
<path d="M24.5963 11.0994C24.5963 10.2066 24.5153 9.55513 24.34 8.87952H12.9399V12.9091H19.6315C19.4966 13.9105 18.7681 15.4186 17.1492 16.432L17.1265 16.5669L20.7309 19.064L20.9807 19.0863C23.2741 17.1921 24.5963 14.4051 24.5963 11.0994Z" fill="white"/>
<path d="M12.9402 21.7165C16.2185 21.7165 18.9707 20.7512 20.9809 19.0864L17.1494 16.4321C16.1241 17.0715 14.748 17.5179 12.9402 17.5179C9.72931 17.5179 7.00412 15.6238 6.03266 13.0058L5.89027 13.0166L2.14228 15.6105L2.09326 15.7324C4.08993 19.2793 8.19126 21.7165 12.9402 21.7165Z" fill="white"/>
<path d="M6.03262 13.0058C5.77629 12.3302 5.62794 11.6062 5.62794 10.8582C5.62794 10.1102 5.77629 9.38632 6.01913 8.7107L6.01234 8.56681L2.21738 5.93121L2.09322 5.98403C1.27029 7.45595 0.798096 9.10885 0.798096 10.8582C0.798096 12.6076 1.27029 14.2604 2.09322 15.7324L6.03262 13.0058Z" fill="white"/>
<path d="M12.9402 4.1985C15.2201 4.1985 16.7581 5.07922 17.6351 5.81522L21.0618 2.82315C18.9573 1.07377 16.2185 0 12.9402 0C8.19125 0 4.08993 2.43706 2.09326 5.98406L6.01917 8.71073C7.00411 6.09269 9.72931 4.1985 12.9402 4.1985Z" fill="white"/>
</svg>
