<svg width="336" height="68" viewBox="0 0 336 68" fill="none" xmlns="http://www.w3.org/2000/svg">
<rect y="28.167" width="335" height="14" transform="rotate(-0.0571173 0 28.167)" fill="#04A550"/>
<rect x="0.00683594" y="28" width="116" height="14" fill="#FFC836"/>
<rect x="227" y="28" width="108" height="14" fill="#F20909"/>
<path d="M42.937 12.5205H47.7783V14H41.084V3.33594H42.937V12.5205ZM48.6938 9.96436C48.6938 9.18799 48.8477 8.48975 49.1553 7.86963C49.4629 7.24463 49.895 6.76611 50.4517 6.43408C51.0083 6.09717 51.6479 5.92871 52.3706 5.92871C53.4399 5.92871 54.3066 6.27295 54.9707 6.96143C55.6396 7.6499 56.001 8.56299 56.0547 9.70068L56.062 10.1182C56.062 10.8994 55.9106 11.5977 55.6079 12.2129C55.3101 12.8281 54.8804 13.3042 54.3188 13.6411C53.7622 13.978 53.1177 14.1465 52.3853 14.1465C51.2671 14.1465 50.3711 13.7754 49.6973 13.0332C49.0283 12.2861 48.6938 11.2925 48.6938 10.0522V9.96436ZM50.4736 10.1182C50.4736 10.9336 50.6421 11.5732 50.979 12.0371C51.3159 12.4961 51.7847 12.7256 52.3853 12.7256C52.9858 12.7256 53.4521 12.4912 53.7842 12.0225C54.1211 11.5537 54.2896 10.8677 54.2896 9.96436C54.2896 9.16357 54.1162 8.52881 53.7695 8.06006C53.4277 7.59131 52.9614 7.35693 52.3706 7.35693C51.7896 7.35693 51.3281 7.58887 50.9863 8.05273C50.6445 8.51172 50.4736 9.2002 50.4736 10.1182ZM64.5288 11.5464L65.7886 6.0752H67.5244L65.3638 14H63.8989L62.1997 8.55811L60.5298 14H59.0649L56.897 6.0752H58.6328L59.9146 11.4878L61.5405 6.0752H62.8809L64.5288 11.5464Z" fill="#FFC836"/>
<path d="M152.543 14H150.69L145.937 6.43408V14H144.084V3.33594H145.937L150.705 10.9312V3.33594H152.543V14ZM154.228 9.96436C154.228 9.18799 154.382 8.48975 154.689 7.86963C154.997 7.24463 155.429 6.76611 155.986 6.43408C156.542 6.09717 157.182 5.92871 157.905 5.92871C158.974 5.92871 159.841 6.27295 160.505 6.96143C161.174 7.6499 161.535 8.56299 161.589 9.70068L161.596 10.1182C161.596 10.8994 161.445 11.5977 161.142 12.2129C160.844 12.8281 160.415 13.3042 159.853 13.6411C159.296 13.978 158.652 14.1465 157.919 14.1465C156.801 14.1465 155.905 13.7754 155.231 13.0332C154.562 12.2861 154.228 11.2925 154.228 10.0522V9.96436ZM156.008 10.1182C156.008 10.9336 156.176 11.5732 156.513 12.0371C156.85 12.4961 157.319 12.7256 157.919 12.7256C158.52 12.7256 158.986 12.4912 159.318 12.0225C159.655 11.5537 159.824 10.8677 159.824 9.96436C159.824 9.16357 159.65 8.52881 159.304 8.06006C158.962 7.59131 158.496 7.35693 157.905 7.35693C157.324 7.35693 156.862 7.58887 156.521 8.05273C156.179 8.51172 156.008 9.2002 156.008 10.1182ZM164.775 6.0752L164.826 6.90283C165.383 6.25342 166.145 5.92871 167.111 5.92871C168.171 5.92871 168.896 6.33398 169.287 7.14453C169.863 6.33398 170.673 5.92871 171.718 5.92871C172.592 5.92871 173.242 6.17041 173.667 6.65381C174.096 7.13721 174.316 7.8501 174.326 8.79248V14H172.546V8.84375C172.546 8.34082 172.436 7.97217 172.216 7.73779C171.997 7.50342 171.633 7.38623 171.125 7.38623C170.72 7.38623 170.388 7.49609 170.129 7.71582C169.875 7.93066 169.697 8.21387 169.594 8.56543L169.602 14H167.822V8.78516C167.797 7.85254 167.321 7.38623 166.394 7.38623C165.681 7.38623 165.175 7.67676 164.877 8.25781V14H163.098V6.0752H164.775ZM180.888 14C180.81 13.8486 180.742 13.6021 180.683 13.2603C180.117 13.8511 179.423 14.1465 178.603 14.1465C177.807 14.1465 177.158 13.9194 176.655 13.4653C176.152 13.0112 175.9 12.4497 175.9 11.7808C175.9 10.936 176.213 10.2891 176.838 9.83984C177.468 9.38574 178.366 9.15869 179.533 9.15869H180.625V8.63867C180.625 8.22852 180.51 7.90137 180.28 7.65723C180.051 7.4082 179.702 7.28369 179.233 7.28369C178.828 7.28369 178.496 7.38623 178.237 7.59131C177.978 7.7915 177.849 8.04785 177.849 8.36035H176.069C176.069 7.92578 176.213 7.52051 176.501 7.14453C176.789 6.76367 177.18 6.46582 177.673 6.25098C178.171 6.03613 178.725 5.92871 179.335 5.92871C180.263 5.92871 181.003 6.16309 181.555 6.63184C182.106 7.0957 182.39 7.75 182.404 8.59473V12.1689C182.404 12.8818 182.504 13.4507 182.705 13.8755V14H180.888ZM178.933 12.7183C179.284 12.7183 179.614 12.6328 179.921 12.4619C180.234 12.291 180.468 12.0615 180.625 11.7734V10.2793H179.665C179.006 10.2793 178.51 10.394 178.178 10.6235C177.846 10.853 177.68 11.1777 177.68 11.5977C177.68 11.9395 177.792 12.2129 178.017 12.418C178.247 12.6182 178.552 12.7183 178.933 12.7183ZM186.162 14H184.382V2.75H186.162V14Z" fill="#04A550"/>
<path d="M268.551 14H266.705V9.26123H261.937V14H260.084V3.33594H261.937V7.77441H266.705V3.33594H268.551V14ZM272.469 14H270.689V6.0752H272.469V14ZM270.58 4.01709C270.58 3.74365 270.665 3.5166 270.836 3.33594C271.012 3.15527 271.261 3.06494 271.583 3.06494C271.905 3.06494 272.154 3.15527 272.33 3.33594C272.506 3.5166 272.594 3.74365 272.594 4.01709C272.594 4.28564 272.506 4.51025 272.33 4.69092C272.154 4.8667 271.905 4.95459 271.583 4.95459C271.261 4.95459 271.012 4.8667 270.836 4.69092C270.665 4.51025 270.58 4.28564 270.58 4.01709ZM274.103 9.979C274.103 8.74854 274.391 7.76709 274.967 7.03467C275.548 6.29736 276.317 5.92871 277.274 5.92871C278.177 5.92871 278.888 6.24365 279.405 6.87354L279.486 6.0752H281.09V13.7583C281.09 14.7983 280.765 15.6187 280.116 16.2192C279.471 16.8198 278.6 17.1201 277.501 17.1201C276.92 17.1201 276.351 16.998 275.794 16.7539C275.243 16.5146 274.823 16.1997 274.535 15.8091L275.377 14.7397C275.924 15.3892 276.598 15.7139 277.398 15.7139C277.989 15.7139 278.456 15.5527 278.797 15.2305C279.139 14.9131 279.31 14.4443 279.31 13.8242V13.2896C278.797 13.8608 278.114 14.1465 277.259 14.1465C276.332 14.1465 275.572 13.7778 274.981 13.0405C274.396 12.3032 274.103 11.2827 274.103 9.979ZM275.875 10.1328C275.875 10.9287 276.036 11.5562 276.358 12.0151C276.686 12.4692 277.137 12.6963 277.713 12.6963C278.431 12.6963 278.963 12.3887 279.31 11.7734V8.28711C278.973 7.68652 278.446 7.38623 277.728 7.38623C277.142 7.38623 276.686 7.61816 276.358 8.08203C276.036 8.5459 275.875 9.22949 275.875 10.1328ZM284.679 6.93945C285.26 6.26562 285.995 5.92871 286.883 5.92871C288.573 5.92871 289.43 6.89307 289.454 8.82178V14H287.674V8.8877C287.674 8.34082 287.555 7.95508 287.315 7.73047C287.081 7.50098 286.734 7.38623 286.275 7.38623C285.562 7.38623 285.03 7.70361 284.679 8.33838V14H282.899V2.75H284.679V6.93945ZM293.49 4.14893V6.0752H294.889V7.39355H293.49V11.8174C293.49 12.1201 293.548 12.3398 293.666 12.4766C293.788 12.6084 294.002 12.6743 294.31 12.6743C294.515 12.6743 294.723 12.6499 294.933 12.6011V13.978C294.527 14.0903 294.137 14.1465 293.761 14.1465C292.394 14.1465 291.71 13.3921 291.71 11.8833V7.39355H290.406V6.0752H291.71V4.14893H293.49Z" fill="#F20909"/>
<path d="M6.60645 60.4185H8.08594V61.5244H6.60645V64H5.24414V61.5244H0.388184V60.7261L5.16357 53.3359H6.60645V60.4185ZM1.92627 60.4185H5.24414V55.189L5.08301 55.4819L1.92627 60.4185ZM15.9961 59.4517C15.9961 61.0386 15.7251 62.2178 15.1831 62.9893C14.6411 63.7607 13.7939 64.1465 12.6416 64.1465C11.5039 64.1465 10.6616 63.7705 10.1147 63.0186C9.56787 62.2617 9.28467 61.1338 9.26514 59.6348V57.8257C9.26514 56.2583 9.53613 55.0938 10.0781 54.332C10.6201 53.5703 11.4697 53.1895 12.627 53.1895C13.7744 53.1895 14.6191 53.5581 15.1611 54.2954C15.7031 55.0278 15.9814 56.1606 15.9961 57.6938V59.4517ZM14.6411 57.5986C14.6411 56.4512 14.48 55.6162 14.1577 55.0938C13.8354 54.5664 13.3252 54.3027 12.627 54.3027C11.9336 54.3027 11.4282 54.564 11.1108 55.0864C10.7935 55.6089 10.6299 56.4121 10.6201 57.4961V59.6641C10.6201 60.8164 10.7861 61.6685 11.1182 62.2202C11.4551 62.7671 11.9629 63.0405 12.6416 63.0405C13.3105 63.0405 13.8062 62.7817 14.1284 62.2642C14.4556 61.7466 14.6265 60.9312 14.6411 59.8179V57.5986Z" fill="black"/>
<path d="M113.204 53.3286V54.4785H112.955C111.9 54.498 111.06 54.8105 110.435 55.416C109.81 56.0215 109.449 56.8735 109.351 57.9722C109.913 57.3276 110.679 57.0054 111.651 57.0054C112.579 57.0054 113.318 57.3325 113.87 57.9868C114.427 58.6411 114.705 59.4858 114.705 60.521C114.705 61.6196 114.405 62.4985 113.804 63.1577C113.208 63.8169 112.408 64.1465 111.402 64.1465C110.381 64.1465 109.554 63.7559 108.919 62.9746C108.284 62.1885 107.967 61.1777 107.967 59.9424V59.4224C107.967 57.4595 108.384 55.9604 109.219 54.9253C110.059 53.8853 111.307 53.353 112.962 53.3286H113.204ZM111.424 58.1333C110.96 58.1333 110.533 58.2725 110.142 58.5508C109.751 58.8291 109.48 59.1782 109.329 59.5981V60.0962C109.329 60.9751 109.527 61.6831 109.922 62.2202C110.318 62.7573 110.811 63.0259 111.402 63.0259C112.012 63.0259 112.491 62.8013 112.837 62.3521C113.189 61.9028 113.365 61.3145 113.365 60.5869C113.365 59.8545 113.187 59.2637 112.83 58.8145C112.479 58.3604 112.01 58.1333 111.424 58.1333ZM122.996 59.4517C122.996 61.0386 122.725 62.2178 122.183 62.9893C121.641 63.7607 120.794 64.1465 119.642 64.1465C118.504 64.1465 117.662 63.7705 117.115 63.0186C116.568 62.2617 116.285 61.1338 116.265 59.6348V57.8257C116.265 56.2583 116.536 55.0938 117.078 54.332C117.62 53.5703 118.47 53.1895 119.627 53.1895C120.774 53.1895 121.619 53.5581 122.161 54.2954C122.703 55.0278 122.981 56.1606 122.996 57.6938V59.4517ZM121.641 57.5986C121.641 56.4512 121.48 55.6162 121.158 55.0938C120.835 54.5664 120.325 54.3027 119.627 54.3027C118.934 54.3027 118.428 54.564 118.111 55.0864C117.793 55.6089 117.63 56.4121 117.62 57.4961V59.6641C117.62 60.8164 117.786 61.6685 118.118 62.2202C118.455 62.7671 118.963 63.0405 119.642 63.0405C120.311 63.0405 120.806 62.7817 121.128 62.2642C121.456 61.7466 121.626 60.9312 121.641 59.8179V57.5986Z" fill="black"/>
<path d="M224.079 59.3125C223.796 59.6494 223.457 59.9204 223.061 60.1255C222.67 60.3306 222.241 60.4331 221.772 60.4331C221.157 60.4331 220.62 60.2817 220.161 59.979C219.707 59.6763 219.355 59.2515 219.106 58.7046C218.857 58.1528 218.732 57.5449 218.732 56.8809C218.732 56.168 218.867 55.5259 219.135 54.9546C219.409 54.3833 219.794 53.9463 220.292 53.6436C220.791 53.3408 221.372 53.1895 222.036 53.1895C223.09 53.1895 223.92 53.585 224.526 54.376C225.136 55.1621 225.441 56.2363 225.441 57.5986V57.9941C225.441 60.0693 225.031 61.5854 224.211 62.5425C223.391 63.4946 222.153 63.9829 220.498 64.0073H220.234V62.8647H220.52C221.638 62.8452 222.497 62.5547 223.098 61.9932C223.698 61.4268 224.025 60.5332 224.079 59.3125ZM221.992 59.3125C222.446 59.3125 222.863 59.1733 223.244 58.895C223.63 58.6167 223.911 58.2725 224.086 57.8623V57.3203C224.086 56.4316 223.894 55.709 223.508 55.1523C223.122 54.5957 222.634 54.3174 222.043 54.3174C221.447 54.3174 220.969 54.5469 220.607 55.0059C220.246 55.46 220.065 56.0605 220.065 56.8076C220.065 57.5352 220.239 58.1357 220.585 58.6094C220.937 59.0781 221.406 59.3125 221.992 59.3125ZM233.996 59.4517C233.996 61.0386 233.725 62.2178 233.183 62.9893C232.641 63.7607 231.794 64.1465 230.642 64.1465C229.504 64.1465 228.662 63.7705 228.115 63.0186C227.568 62.2617 227.285 61.1338 227.265 59.6348V57.8257C227.265 56.2583 227.536 55.0938 228.078 54.332C228.62 53.5703 229.47 53.1895 230.627 53.1895C231.774 53.1895 232.619 53.5581 233.161 54.2954C233.703 55.0278 233.981 56.1606 233.996 57.6938V59.4517ZM232.641 57.5986C232.641 56.4512 232.48 55.6162 232.158 55.0938C231.835 54.5664 231.325 54.3027 230.627 54.3027C229.934 54.3027 229.428 54.564 229.111 55.0864C228.793 55.6089 228.63 56.4121 228.62 57.4961V59.6641C228.62 60.8164 228.786 61.6685 229.118 62.2202C229.455 62.7671 229.963 63.0405 230.642 63.0405C231.311 63.0405 231.806 62.7817 232.128 62.2642C232.456 61.7466 232.626 60.9312 232.641 59.8179V57.5986Z" fill="black"/>
<path d="M314.339 64H312.977V54.9692L310.245 55.9727V54.7422L314.127 53.2847H314.339V64ZM325.296 64H318.309V63.0259L322 58.9243C322.547 58.3042 322.923 57.8013 323.128 57.4155C323.338 57.0249 323.443 56.6221 323.443 56.207C323.443 55.6504 323.275 55.1938 322.938 54.8374C322.601 54.481 322.152 54.3027 321.59 54.3027C320.917 54.3027 320.392 54.4956 320.016 54.8813C319.645 55.2622 319.459 55.7944 319.459 56.478H318.104C318.104 55.4966 318.419 54.7031 319.049 54.0977C319.684 53.4922 320.531 53.1895 321.59 53.1895C322.582 53.1895 323.365 53.4507 323.941 53.9731C324.518 54.4907 324.806 55.1816 324.806 56.0459C324.806 57.0957 324.137 58.3457 322.799 59.7959L319.942 62.894H325.296V64ZM333.419 59.4517C333.419 61.0386 333.148 62.2178 332.606 62.9893C332.064 63.7607 331.217 64.1465 330.064 64.1465C328.927 64.1465 328.084 63.7705 327.538 63.0186C326.991 62.2617 326.708 61.1338 326.688 59.6348V57.8257C326.688 56.2583 326.959 55.0938 327.501 54.332C328.043 53.5703 328.893 53.1895 330.05 53.1895C331.197 53.1895 332.042 53.5581 332.584 54.2954C333.126 55.0278 333.404 56.1606 333.419 57.6938V59.4517ZM332.064 57.5986C332.064 56.4512 331.903 55.6162 331.581 55.0938C331.258 54.5664 330.748 54.3027 330.05 54.3027C329.356 54.3027 328.851 54.564 328.534 55.0864C328.216 55.6089 328.053 56.4121 328.043 57.4961V59.6641C328.043 60.8164 328.209 61.6685 328.541 62.2202C328.878 62.7671 329.386 63.0405 330.064 63.0405C330.733 63.0405 331.229 62.7817 331.551 62.2642C331.878 61.7466 332.049 60.9312 332.064 59.8179V57.5986Z" fill="black"/>
</svg>
