<svg width="406" height="273" viewBox="0 0 406 273" fill="none" xmlns="http://www.w3.org/2000/svg">
<path d="M0 46C0 23.9086 17.9086 6 40 6H335C357.091 6 375 23.9086 375 46V234.429C375 234.429 298.5 272.5 187.5 272.5C76.5 272.5 0 234.429 0 234.429V46Z" fill="#4B7FFB"/>
<mask id="mask0" mask-type="alpha" maskUnits="userSpaceOnUse" x="0" y="6" width="375" height="267">
<path d="M0 46C0 23.9086 17.9086 6 40 6H335C357.091 6 375 23.9086 375 46V234.429C375 234.429 297.5 272.5 187.5 272.5C77.5 272.5 0 234.429 0 234.429V46Z" fill="#3ABD6F"/>
</mask>
<g mask="url(#mask0)">
<ellipse opacity="0.3" cx="92.5" cy="73.357" rx="126.5" ry="111.871" fill="black"/>
</g>
<circle opacity="0.2" cx="321.5" cy="84.5" r="84.5" fill="black"/>
</svg>
