<svg width="317" height="319" viewBox="0 0 317 319" fill="none" xmlns="http://www.w3.org/2000/svg">
<path d="M158.5 319C246.037 319 317 314.523 317 309C317 303.477 246.037 299 158.5 299C70.9629 299 0 303.477 0 309C0 314.523 70.9629 319 158.5 319Z" fill="#D0CDE1"/>
<path d="M281.863 0.00175859H174.771C169.603 0.00151316 164.589 1.70632 160.552 4.83593C156.516 7.96554 153.698 12.3337 152.561 17.2223L98.4505 249.967C97.8603 252.506 97.8499 255.139 98.42 257.682C98.9902 260.225 100.127 262.616 101.751 264.688C103.375 266.76 105.447 268.462 107.821 269.675C110.195 270.889 112.814 271.584 115.494 271.712L225.587 276.971C231.482 277.253 237.281 275.445 241.903 271.885C246.524 268.325 249.652 263.256 250.702 257.624L281.399 93.0715L283.683 93.7042L289.558 62.5151L287.208 61.9454L295.776 16.0126C296.143 14.0451 296.058 12.0234 295.527 10.0914C294.996 8.15945 294.032 6.36489 292.704 4.83568C291.375 3.30646 289.715 2.08026 287.842 1.24448C285.969 0.408702 283.929 -0.0160643 281.867 0.000464518L281.863 0.00175859Z" fill="#3F3D56"/>
<path d="M188.868 5.01904H176.368C172.778 5.01908 169.296 6.20967 166.5 8.39317C163.704 10.5767 161.762 13.6218 160.997 17.023L109.056 247.869C108.757 249.198 108.757 250.574 109.057 251.903C109.356 253.232 109.948 254.483 110.792 255.569C111.636 256.656 112.712 257.554 113.946 258.2C115.18 258.847 116.544 259.228 117.944 259.316L227.679 266.291C230.774 266.488 233.837 265.572 236.281 263.719C238.725 261.866 240.38 259.205 240.93 256.245L285.251 17.6432C285.538 16.0989 285.471 14.5123 285.057 12.9955C284.642 11.4787 283.89 10.0686 282.852 8.86471C281.814 7.66081 280.516 6.69245 279.05 6.02797C277.584 5.36349 275.986 5.01908 274.368 5.01904H262.51C261.362 5.01901 260.246 5.38589 259.335 6.06289C258.424 6.73989 257.768 7.68925 257.47 8.76398C257.206 9.71311 256.627 10.5515 255.823 11.1493C255.018 11.747 254.033 12.0708 253.019 12.0704H196.722C194.738 12.0704 192.826 11.3441 191.37 10.0368C189.914 8.72958 189.02 6.93759 188.868 5.01904Z" fill="white"/>
<path d="M247.686 175.55C247.896 175.563 248.105 175.489 248.273 175.34C248.442 175.192 248.559 174.979 248.603 174.742L276.409 23.1201C276.435 22.9759 276.435 22.8273 276.407 22.6842C276.378 22.5411 276.324 22.407 276.246 22.291C276.169 22.1759 276.071 22.0819 275.958 22.0157C275.846 21.9496 275.722 21.9128 275.595 21.9081L166.446 18.0673L166.435 18.067C166.237 18.0647 166.043 18.1397 165.886 18.2799C165.728 18.42 165.616 18.617 165.568 18.8385L133.593 165.429C133.561 165.572 133.557 165.721 133.581 165.865C133.604 166.01 133.655 166.146 133.728 166.266C133.802 166.384 133.897 166.482 134.007 166.553C134.117 166.624 134.24 166.667 134.367 166.677L247.686 175.55Z" fill="#5383EC" fill-opacity="0.4"/>
<path d="M133.864 182C133.737 182 133.615 182.032 133.515 182.092C133.416 182.151 133.347 182.234 133.318 182.327L132.015 186.537C131.996 186.596 131.995 186.658 132.011 186.718C132.028 186.778 132.061 186.834 132.109 186.884C132.157 186.933 132.218 186.974 132.289 187.003C132.36 187.033 132.439 187.051 132.52 187.055L206.146 190.999C206.282 191.006 206.417 190.975 206.526 190.912C206.635 190.849 206.709 190.759 206.736 190.658L207.99 185.787C208.005 185.728 208.003 185.667 207.985 185.608C207.966 185.55 207.931 185.495 207.882 185.447C207.833 185.4 207.771 185.361 207.701 185.333C207.63 185.304 207.552 185.288 207.473 185.284L133.898 182.001L133.864 182Z" fill="#BACDF7"/>
<path d="M222.817 206.999C222.948 207.007 223.079 206.978 223.187 206.918C223.294 206.857 223.37 206.769 223.401 206.669L224.984 201.643C225.003 201.581 225.005 201.517 224.99 201.455C224.974 201.393 224.941 201.334 224.894 201.283C224.846 201.231 224.784 201.189 224.713 201.158C224.643 201.127 224.564 201.109 224.483 201.104L131.239 196.001C131.113 195.993 130.987 196.02 130.882 196.077C130.778 196.133 130.702 196.216 130.667 196.312L129.023 200.655C128.999 200.717 128.994 200.782 129.007 200.846C129.02 200.91 129.051 200.971 129.098 201.024C129.144 201.078 129.206 201.122 129.277 201.155C129.349 201.187 129.429 201.207 129.511 201.212L222.817 206.999Z" fill="#BACDF7"/>
<path d="M217.817 222.999C217.948 223.007 218.079 222.978 218.187 222.918C218.294 222.857 218.37 222.769 218.401 222.669L219.984 217.643C220.003 217.581 220.005 217.517 219.99 217.455C219.974 217.393 219.941 217.334 219.894 217.283C219.846 217.231 219.784 217.189 219.713 217.158C219.643 217.127 219.564 217.109 219.483 217.104L126.239 212.001C126.113 211.993 125.987 212.02 125.882 212.077C125.778 212.133 125.702 212.216 125.667 212.312L124.023 216.655C123.999 216.717 123.994 216.782 124.007 216.846C124.02 216.91 124.051 216.971 124.098 217.024C124.144 217.078 124.206 217.122 124.277 217.155C124.349 217.187 124.429 217.207 124.511 217.212L217.817 222.999Z" fill="#BACDF7"/>
<path d="M19.6083 199.216C20.3479 198.691 20.9673 198.004 21.4229 197.204C21.8785 196.404 22.1593 195.51 22.2454 194.585C22.3314 193.66 22.2208 192.727 21.9211 191.851C21.6215 190.976 21.1402 190.179 20.5111 189.517L22.8892 134.504L10.7821 135.913L11.4857 189.723C10.4817 190.891 9.92618 192.4 9.92456 193.964C9.92295 195.529 10.4753 197.039 11.477 198.21C12.4786 199.38 13.8598 200.129 15.3587 200.314C16.8576 200.499 18.3699 200.107 19.6089 199.214L19.6083 199.216Z" fill="#A0616A"/>
<path d="M41.6956 292.34L48.5866 293.595L55.3972 266.648L46.3683 264.795L41.6956 292.34Z" fill="#A0616A"/>
<path d="M60.7533 302.647L39.0963 298.702L40.5672 290.031L53.8567 292.452C56.0759 292.856 58.0492 294.158 59.3426 296.07C60.6359 297.982 61.1433 300.348 60.7532 302.648L60.7533 302.647Z" fill="#2F2E41"/>
<path d="M22.7819 295.915H29.7785L33.1068 267.948H22.7808L22.7819 295.915Z" fill="#A0616A"/>
<path d="M43.2693 302.648L21.2802 302.649L21.2797 293.845L34.773 293.844C37.0263 293.844 39.1872 294.772 40.7806 296.423C42.374 298.074 43.2692 300.313 43.2693 302.648Z" fill="#2F2E41"/>
<path d="M51.9718 285.89C51.8626 285.89 51.7536 285.883 51.6453 285.87L43.4103 285.168C43.0354 285.122 42.6733 284.998 42.3462 284.803C42.019 284.608 41.7335 284.346 41.507 284.033C41.2805 283.72 41.1178 283.362 41.0288 282.982C40.9397 282.602 40.9261 282.207 40.9889 281.821L49.164 240.019L44.0278 211.942C43.986 211.714 43.8659 211.509 43.6898 211.366C43.5136 211.222 43.2934 211.149 43.0695 211.161C42.8457 211.172 42.6335 211.267 42.472 211.428C42.3105 211.589 42.2106 211.805 42.1908 212.037L34.6229 283.378C34.5523 284.129 34.2027 284.823 33.648 285.312C33.0933 285.802 32.3768 286.049 31.6496 286.002L23.8911 285.702C23.2113 285.652 22.5726 285.346 22.0957 284.842C21.6188 284.337 21.3366 283.669 21.3025 282.964L21.9223 196.754L62.1448 191.544L64.9549 236.515L64.9435 236.563L54.6762 283.685C54.5285 284.313 54.1818 284.871 53.6915 285.271C53.2012 285.671 52.5956 285.889 51.9718 285.89Z" fill="#5383EC"/>
<path d="M35.187 98.8579C42.9282 98.8579 49.2037 92.3545 49.2037 84.3321C49.2037 76.3098 42.9282 69.8063 35.187 69.8063C27.4459 69.8063 21.1704 76.3098 21.1704 84.3321C21.1704 92.3545 27.4459 98.8579 35.187 98.8579Z" fill="#A0616A"/>
<path d="M48.3936 203.315C46.2014 203.328 44.0513 202.691 42.1977 201.478C35.4065 197.08 27.696 198.828 23.7035 200.261C23.3072 200.405 22.8847 200.454 22.4676 200.405C22.0504 200.356 21.6495 200.209 21.2946 199.977C20.9438 199.748 20.6475 199.441 20.4277 199.077C20.2079 198.713 20.0703 198.303 20.0254 197.876L12.7657 130.676C11.549 119.417 18.0936 108.831 28.3272 105.505C28.7118 105.38 29.1027 105.262 29.4999 105.151C32.6845 104.256 36.0196 104.095 39.2705 104.68C42.5215 105.265 45.6092 106.581 48.3166 108.535C51.0744 110.511 53.3809 113.09 55.0735 116.089C56.7661 119.088 57.8038 122.435 58.1136 125.895L64.2262 193.546C64.2678 193.984 64.2108 194.426 64.0596 194.837C63.9084 195.248 63.6671 195.617 63.3548 195.915C61.2113 197.969 54.9919 203.314 48.3936 203.315Z" fill="#1A5DA0"/>
<path d="M26.2848 145.087L9.90608 143.22C9.44 143.167 8.99044 143.01 8.58802 142.761C8.18561 142.512 7.83981 142.175 7.57415 141.775C7.3085 141.374 7.12925 140.919 7.04861 140.441C6.96797 139.962 6.98784 139.471 7.10687 139.001L11.2763 122.532C11.3991 121.298 11.7568 120.101 12.3286 119.011C12.9005 117.921 13.6751 116.959 14.6079 116.18C15.5406 115.402 16.6129 114.823 17.7628 114.477C18.9126 114.131 20.1173 114.025 21.3072 114.164C22.497 114.303 23.6484 114.685 24.6949 115.288C25.7414 115.892 26.6621 116.704 27.4039 117.678C28.1457 118.652 28.6939 119.769 29.0168 120.964C29.3396 122.159 29.4307 123.408 29.2849 124.64L29.9041 141.598C29.9218 142.084 29.8383 142.568 29.6593 143.017C29.4803 143.466 29.2099 143.87 28.8666 144.202C28.5234 144.533 28.1153 144.783 27.6701 144.936C27.225 145.089 26.7532 145.141 26.2871 145.088L26.2848 145.087Z" fill="#1A5DA0"/>
<path d="M64.1595 196.86C64.8323 196.247 65.367 195.488 65.7261 194.637C66.0852 193.786 66.2598 192.863 66.2377 191.935C66.2156 191.006 65.9973 190.094 65.5982 189.262C65.1992 188.43 64.629 187.7 63.9278 187.121L59.8913 132.213L48.0273 134.98L54.9897 188.453C54.1288 189.738 53.7528 191.306 53.9331 192.859C54.1133 194.412 54.8373 195.842 55.9678 196.879C57.0982 197.916 58.5564 198.487 60.0659 198.483C61.5754 198.48 63.0312 197.902 64.1572 196.86H64.1595Z" fill="#A0616A"/>
<path d="M43.4796 141.635C43.1362 141.304 42.8657 140.9 42.6867 140.451C42.5076 140.002 42.4242 139.518 42.4421 139.033L43.0613 122.074C42.9277 120.849 43.0284 119.608 43.3576 118.423C43.6868 117.238 44.2379 116.131 44.9796 115.167C45.7214 114.203 46.6391 113.399 47.6805 112.803C48.7218 112.206 49.8664 111.827 51.0489 111.689C52.2313 111.551 53.4285 111.655 54.572 111.996C55.7156 112.337 56.7831 112.908 57.7136 113.677C58.6442 114.446 59.4195 115.397 59.9953 116.476C60.5712 117.555 60.9363 118.741 61.0698 119.967L65.2393 136.435C65.3583 136.905 65.3781 137.396 65.2975 137.875C65.2169 138.354 65.0376 138.809 64.772 139.209C64.5063 139.61 64.1605 139.946 63.7581 140.195C63.3557 140.445 62.9061 140.601 62.44 140.655L46.0613 142.521C45.5951 142.574 45.1233 142.523 44.6781 142.369C44.2329 142.216 43.8249 141.965 43.4818 141.634L43.4796 141.635Z" fill="#1A5DA0"/>
<path d="M34.353 99.405C34.1032 99.405 33.8543 99.375 33.6111 99.3157L33.5398 99.298C21.2164 97.3463 18.4925 89.9465 17.895 86.8575C17.2764 83.6591 17.9806 80.5719 19.5728 79.3725C18.7048 76.5337 18.844 74.0137 19.9877 71.884C21.9851 68.1699 26.3115 66.9161 26.893 66.76C30.3502 64.117 34.4866 65.8811 35.2393 66.239C41.9272 63.6752 44.4844 65.809 44.9455 66.2857C47.9348 66.8422 49.757 68.0386 50.3619 69.8436C51.4982 73.233 47.9051 77.4493 47.7516 77.6273L47.6717 77.7195L42.3187 77.9839C41.8107 78.009 41.3135 78.1445 40.8594 78.3816C40.4052 78.6187 40.0042 78.9521 39.6824 79.3601C39.3605 79.7681 39.125 80.2417 38.9912 80.7501C38.8573 81.2585 38.8281 81.7904 38.9054 82.3113C39.0502 82.9833 39.2332 83.6458 39.4533 84.2955C40.3664 87.2561 41.0512 89.7856 40.1689 90.7473C39.9687 90.9333 39.7221 91.0572 39.4572 91.1048C39.1922 91.1524 38.9198 91.1217 38.6708 91.0164C37.8336 90.7845 37.2658 90.833 36.9827 91.1613C36.5433 91.6693 36.6774 92.9562 37.3605 94.7837C37.5749 95.3617 37.6326 95.9894 37.5273 96.5989C37.4221 97.2085 37.158 97.7766 36.7636 98.2417C36.4666 98.6047 36.0972 98.8967 35.6809 99.0975C35.2645 99.2983 34.8111 99.4032 34.3519 99.405H34.353Z" fill="#2F2E41"/>
<g filter="url(#filter0_d)">
<path d="M228.115 23.6899L228.012 25.5229L225.682 25.3903C225.119 25.3583 224.643 25.6913 224.618 26.1342C224.593 26.5771 225.029 26.9621 225.592 26.9942L227.922 27.1268L227.82 28.9598C227.795 29.4027 228.231 29.7877 228.794 29.8198C229.357 29.8518 229.834 29.5187 229.859 29.0758L229.961 27.2428L232.291 27.3755C232.854 27.4075 233.331 27.0744 233.356 26.6315C233.38 26.1886 232.944 25.8036 232.381 25.7716L230.051 25.639L230.154 23.806C230.178 23.3631 229.742 22.9781 229.179 22.946C228.616 22.914 228.14 23.247 228.115 23.6899ZM229.862 23.7894L229.753 25.737C229.75 25.8002 229.812 25.8552 229.893 25.8598L232.368 26.0007C232.77 26.0236 233.082 26.2986 233.064 26.615C233.047 26.9313 232.706 27.1692 232.304 27.1463L229.828 27.0054C229.748 27.0009 229.68 27.0484 229.676 27.1117L229.567 29.0593C229.55 29.3756 229.209 29.6135 228.807 29.5906C228.405 29.5678 228.093 29.2927 228.111 28.9764L228.22 27.0288C228.224 26.9656 228.161 26.9105 228.081 26.906L225.605 26.7651C225.203 26.7422 224.891 26.4672 224.909 26.1508C224.927 25.8345 225.267 25.5965 225.669 25.6194L228.145 25.7603C228.225 25.7649 228.294 25.7173 228.297 25.6541L228.406 23.7065C228.424 23.3902 228.764 23.1522 229.166 23.1751C229.568 23.198 229.88 23.473 229.862 23.7894Z" fill="url(#paint0_linear)"/>
</g>
<path fill-rule="evenodd" clip-rule="evenodd" d="M228.868 26.3935C228.868 26.4221 228.879 26.4295 228.928 26.4323C228.977 26.4352 228.988 26.4297 228.99 26.4007C228.991 26.3716 228.981 26.3651 228.929 26.362C228.877 26.3589 228.867 26.3638 228.868 26.3935ZM230.045 26.463C230.035 26.494 230.042 26.4981 230.11 26.5021C230.179 26.5062 230.186 26.5029 230.18 26.471C230.176 26.4434 230.161 26.4347 230.115 26.4319C230.068 26.4292 230.053 26.4361 230.045 26.463ZM228.598 26.4305C228.597 26.4501 228.603 26.4637 228.613 26.4609C228.622 26.4581 228.63 26.4453 228.631 26.4324C228.631 26.4196 228.625 26.4059 228.616 26.402C228.607 26.3981 228.599 26.411 228.598 26.4305ZM230.421 26.5169C230.416 26.5244 230.417 26.541 230.424 26.5538C230.432 26.5708 230.438 26.5673 230.446 26.541C230.456 26.5062 230.439 26.4892 230.421 26.5169ZM228.754 26.4342C228.769 26.4395 228.793 26.4409 228.809 26.4375C228.824 26.434 228.812 26.4296 228.782 26.4278C228.751 26.426 228.739 26.4289 228.754 26.4342ZM228.06 26.5621C228.059 26.5806 228.04 26.5916 228.006 26.5943L227.954 26.5983L228.006 26.6042C228.055 26.6097 228.094 26.5746 228.071 26.5454C228.065 26.5391 228.061 26.5465 228.06 26.5621ZM230.883 26.7192C230.9 26.725 230.919 26.7391 230.925 26.7504C230.931 26.7636 230.936 26.7599 230.937 26.7404C230.939 26.718 230.927 26.7094 230.896 26.7091C230.862 26.7087 230.859 26.7111 230.883 26.7192ZM230.971 26.7765C230.986 26.7818 231.011 26.7832 231.026 26.7798C231.042 26.7763 231.03 26.7719 230.999 26.7701C230.969 26.7683 230.956 26.7712 230.971 26.7765ZM227.902 26.6704C227.893 26.6791 227.836 26.6861 227.775 26.6859L227.664 26.6856L227.776 26.6957C227.86 26.7032 227.894 26.6993 227.91 26.6806C227.933 26.6529 227.927 26.6453 227.902 26.6704ZM231.089 26.8682C231.102 26.8887 231.136 26.8965 231.22 26.8989L231.333 26.9021L231.218 26.8893C231.155 26.8822 231.104 26.8688 231.105 26.8595C231.106 26.8504 231.098 26.8424 231.088 26.8418C231.076 26.8411 231.076 26.8493 231.089 26.8682ZM227.475 26.7034C227.465 26.7375 227.466 26.7389 227.485 26.7145C227.496 26.6991 227.524 26.684 227.545 26.6809C227.579 26.6758 227.578 26.6743 227.535 26.6697C227.496 26.6655 227.484 26.6726 227.475 26.7034ZM231.443 26.9109C231.46 26.9167 231.481 26.9348 231.491 26.9513C231.5 26.9676 231.514 26.9754 231.52 26.9685C231.527 26.9617 231.525 26.9556 231.515 26.955C231.505 26.9544 231.497 26.9421 231.498 26.9276C231.499 26.9101 231.485 26.9011 231.456 26.9008C231.423 26.9003 231.42 26.9028 231.443 26.9109ZM227.295 26.8868C227.294 26.9021 227.28 26.9176 227.265 26.9211C227.238 26.9271 227.238 26.9278 227.265 26.9312C227.293 26.935 227.322 26.8914 227.305 26.8703C227.3 26.864 227.296 26.8714 227.295 26.8868ZM231.694 27.459C231.689 27.5508 231.689 27.5885 231.695 27.5428C231.701 27.4971 231.706 27.422 231.705 27.3759C231.705 27.3299 231.7 27.3672 231.694 27.459ZM227.233 27.2133C227.228 27.3051 227.229 27.3428 227.234 27.2971C227.24 27.2514 227.245 27.1764 227.244 27.1303C227.244 27.0842 227.239 27.1216 227.233 27.2133ZM228.159 27.2161C228.15 27.2453 228.153 27.2483 228.172 27.2324C228.199 27.2106 228.205 27.1826 228.184 27.1814C228.176 27.1809 228.165 27.1966 228.159 27.2161ZM228.409 27.2952C228.429 27.3006 228.457 27.3021 228.473 27.2986C228.488 27.2951 228.472 27.2907 228.437 27.2888C228.403 27.287 228.39 27.2898 228.409 27.2952ZM230.473 27.4166C230.488 27.422 230.513 27.4235 230.528 27.4199C230.544 27.4164 230.532 27.412 230.501 27.4102C230.471 27.4084 230.458 27.4114 230.473 27.4166ZM228.506 27.3403C228.505 27.3601 228.511 27.3768 228.519 27.3773C228.528 27.3778 228.536 27.3669 228.537 27.353C228.538 27.339 228.531 27.3223 228.523 27.3159C228.515 27.3094 228.507 27.3204 228.506 27.3403ZM230.396 27.4368C230.389 27.4468 230.391 27.4645 230.4 27.4758C230.412 27.4909 230.417 27.4861 230.419 27.4577C230.422 27.4154 230.414 27.4083 230.396 27.4368ZM228.914 27.3874C228.914 27.3898 228.91 27.4055 228.906 27.4222C228.896 27.4644 228.921 27.462 228.934 27.4195C228.942 27.3937 228.923 27.3628 228.914 27.3874ZM229.969 27.4795C229.972 27.4996 229.981 27.5164 229.987 27.5168C230.006 27.5179 229.999 27.4588 229.979 27.4502C229.969 27.4458 229.965 27.4575 229.969 27.4795ZM227.21 27.5144C227.209 27.5225 227.22 27.5297 227.233 27.5305C227.246 27.5313 227.256 27.5411 227.255 27.5523C227.255 27.5636 227.258 27.5689 227.263 27.5641C227.279 27.5486 227.258 27.5025 227.234 27.5011C227.221 27.5004 227.21 27.5064 227.21 27.5144ZM227.575 27.5946C227.576 27.6151 227.589 27.6319 227.608 27.6351C227.63 27.639 227.632 27.6377 227.613 27.6301C227.598 27.6244 227.584 27.606 227.58 27.5895C227.576 27.5677 227.574 27.5691 227.575 27.5946ZM231.303 27.8147C231.302 27.8291 231.289 27.8403 231.274 27.8394C231.253 27.8382 231.251 27.8426 231.266 27.8608C231.28 27.8792 231.287 27.8786 231.3 27.8585C231.318 27.8314 231.325 27.7896 231.312 27.7888C231.308 27.7886 231.303 27.8002 231.303 27.8147ZM231.621 27.8775C231.618 27.921 231.62 27.939 231.625 27.9174C231.63 27.8959 231.632 27.8604 231.63 27.8385C231.627 27.8164 231.623 27.8341 231.621 27.8775ZM227.608 27.7759C227.604 27.8176 227.645 28.0229 227.664 28.0576C227.678 28.083 227.684 28.086 227.685 28.0676C227.685 28.0534 227.676 28.0258 227.665 28.0063C227.653 27.9868 227.644 27.9546 227.645 27.9347C227.647 27.8957 227.611 27.7417 227.608 27.7759ZM231.565 28.0404C231.56 28.0539 231.557 28.0835 231.56 28.1061C231.563 28.1382 231.565 28.135 231.57 28.0917C231.573 28.0547 231.585 28.0338 231.603 28.0296C231.63 28.0236 231.63 28.023 231.603 28.0195C231.588 28.0175 231.571 28.0268 231.565 28.0404ZM231.192 28.0725C231.191 28.0966 231.192 28.1166 231.196 28.1168C231.199 28.117 231.206 28.0975 231.212 28.0737C231.217 28.0497 231.216 28.0298 231.208 28.0294C231.201 28.029 231.194 28.0483 231.192 28.0725ZM227.302 27.8462C227.301 27.8672 227.306 27.9072 227.313 27.935C227.321 27.9626 227.332 28.0174 227.336 28.0564C227.344 28.1189 227.345 28.1211 227.349 28.0747C227.352 28.0459 227.343 27.974 227.33 27.915C227.316 27.8561 227.304 27.8251 227.302 27.8462ZM231.471 28.3619C231.44 28.3924 231.441 28.3929 231.473 28.3854C231.492 28.3812 231.508 28.3668 231.509 28.3534C231.511 28.3233 231.509 28.3236 231.471 28.3619ZM227.682 28.159C227.676 28.2043 227.692 28.2447 227.716 28.2461C227.728 28.2468 227.738 28.2396 227.739 28.2299C227.74 28.2202 227.73 28.2118 227.717 28.211C227.705 28.2103 227.693 28.1917 227.69 28.1698C227.688 28.1463 227.684 28.1419 227.682 28.159ZM231.075 28.4752C231.074 28.505 231.077 28.512 231.083 28.4933C231.088 28.4766 231.099 28.4635 231.107 28.4639C231.115 28.4644 231.122 28.4569 231.122 28.4472C231.123 28.4376 231.113 28.429 231.1 28.4282C231.084 28.4273 231.076 28.4431 231.075 28.4752ZM223.707 28.4237C223.618 28.5105 223.544 28.5895 223.544 28.5991C223.543 28.6087 223.532 28.616 223.52 28.6152C223.507 28.6145 223.483 28.6368 223.466 28.6649C223.449 28.6929 223.429 28.7156 223.422 28.7152C223.415 28.7148 223.332 28.7911 223.237 28.8848L223.064 29.0553L222.864 32.3736C222.754 34.1988 222.667 35.7102 222.67 35.7324L222.677 35.7727L223.068 35.7911L223.459 35.8095L223.575 33.9155L223.691 32.0216L223.74 32.0354C223.766 32.0431 224.317 32.0806 224.964 32.1188L226.141 32.1882L226.029 34.0747L225.918 35.9612L226.309 35.9855C226.525 35.9988 226.722 36.0045 226.749 35.998L226.797 35.9863L226.816 35.6363C226.826 35.4438 226.836 35.2744 226.837 35.26C226.912 34.1049 227.019 32.2417 227.009 32.2572C226.974 32.3133 226.958 32.2462 226.975 32.1051C226.989 31.9794 226.988 31.9612 226.965 31.9617C226.95 31.962 226.938 31.9461 226.937 31.9213C226.935 31.8989 226.924 31.8756 226.912 31.8695C226.9 31.8636 226.891 31.8391 226.893 31.8151C226.894 31.7894 226.887 31.7741 226.876 31.7775C226.849 31.7858 226.803 31.7229 226.805 31.6802C226.807 31.6595 226.8 31.6485 226.79 31.6544C226.765 31.6698 226.733 31.6284 226.724 31.5695C226.718 31.5227 226.711 31.5171 226.655 31.5138C226.607 31.511 226.594 31.5034 226.595 31.4794C226.597 31.4534 226.585 31.4488 226.517 31.4501C226.449 31.4513 226.438 31.4471 226.44 31.4191C226.442 31.3779 224.345 31.2529 224.313 31.2924C224.304 31.3038 224.276 31.3218 224.251 31.332C224.227 31.3424 224.206 31.3577 224.205 31.3662C224.205 31.3746 224.187 31.4 224.166 31.4225C224.145 31.4449 224.106 31.4913 224.078 31.5255C224.051 31.5598 224.022 31.5874 224.015 31.587C223.997 31.5859 223.935 31.6492 223.934 31.6703C223.933 31.6799 223.922 31.6872 223.909 31.6864C223.896 31.6857 223.885 31.6959 223.884 31.7092C223.883 31.7225 223.861 31.7369 223.834 31.7411C223.797 31.7471 223.786 31.7582 223.784 31.7912C223.781 31.8296 223.754 31.8536 223.715 31.8513C223.707 31.8507 223.742 31.1462 223.805 30.0871C223.862 29.1173 223.905 28.3111 223.901 28.2956C223.888 28.251 223.88 28.2567 223.707 28.4237ZM217.177 27.9671C217.159 27.9897 217.135 28.008 217.124 28.0078C217.113 28.0077 217.096 28.0229 217.086 28.0417C217.075 28.0604 217.056 28.0751 217.042 28.0743C217.029 28.0735 217.008 28.0961 216.997 28.1245C216.985 28.1529 216.966 28.1756 216.955 28.175C216.944 28.1743 216.935 28.1816 216.934 28.1913C216.933 28.214 216.87 28.2757 216.85 28.2744C216.841 28.2739 216.833 28.2845 216.833 28.2979C216.832 28.3114 216.813 28.3262 216.791 28.331C216.766 28.3363 216.746 28.3561 216.739 28.3827C216.732 28.4064 216.716 28.4251 216.704 28.4244C216.692 28.4237 216.682 28.433 216.681 28.445C216.68 28.4571 216.657 28.4815 216.63 28.4993C216.603 28.5171 216.58 28.5455 216.579 28.5624C216.578 28.5793 216.566 28.5924 216.552 28.5916C216.538 28.5907 216.511 28.6091 216.493 28.6321C216.474 28.6553 216.449 28.6736 216.436 28.6729C216.417 28.6717 216.387 29.1317 216.216 32.0253L216.018 35.3791L216.404 35.4019C216.616 35.4144 216.802 35.4205 216.816 35.4155C216.839 35.4072 216.855 35.1844 216.979 33.0728C217.101 31.0103 217.12 30.7395 217.141 30.7407C217.157 30.7417 217.165 30.7242 217.168 30.6861C217.171 30.6331 217.17 30.6318 217.146 30.6629C217.124 30.6917 217.13 30.5325 217.202 29.3127L217.283 27.9299L217.247 27.928C217.228 27.927 217.196 27.9446 217.177 27.9671ZM230.892 28.8603C230.891 28.8679 230.905 28.8749 230.922 28.8759C230.94 28.8769 230.955 28.8716 230.955 28.864C230.955 28.8564 230.942 28.8494 230.924 28.8484C230.907 28.8473 230.892 28.8526 230.892 28.8603ZM227.485 28.7054C227.477 28.7314 227.482 28.7369 227.507 28.7313C227.524 28.7273 227.532 28.7188 227.525 28.7125C227.519 28.706 227.509 28.6943 227.504 28.6865C227.499 28.6787 227.49 28.6872 227.485 28.7054ZM231.147 29.1227C231.146 29.1395 231.137 29.1528 231.128 29.1523C231.12 29.1518 231.112 29.1591 231.112 29.1684C231.111 29.1778 231.121 29.1815 231.135 29.1768C231.149 29.1718 231.159 29.1778 231.158 29.1904C231.157 29.2027 231.16 29.2093 231.164 29.205C231.169 29.2008 231.167 29.1736 231.161 29.1446C231.155 29.1157 231.149 29.1058 231.147 29.1227ZM230.711 29.1575C230.696 29.1611 230.687 29.1716 230.691 29.1807C230.703 29.2058 230.724 29.2024 230.736 29.1732C230.742 29.159 230.745 29.1483 230.743 29.1493C230.741 29.1503 230.727 29.1541 230.711 29.1575ZM231.078 29.247C231.06 29.2675 231.062 29.2718 231.088 29.2734C231.11 29.2746 231.118 29.2667 231.113 29.2483C231.104 29.2164 231.106 29.2165 231.078 29.247ZM227.657 29.1099C227.655 29.1263 227.669 29.1494 227.688 29.1611C227.717 29.1792 227.719 29.1786 227.699 29.158C227.686 29.1446 227.672 29.1214 227.667 29.1067C227.661 29.0849 227.659 29.0855 227.657 29.1099ZM228.125 29.2262C228.125 29.2383 228.145 29.2678 228.169 29.2918C228.197 29.3196 228.211 29.3256 228.206 29.3085C228.202 29.2938 228.188 29.2768 228.176 29.2707C228.164 29.2648 228.155 29.2478 228.156 29.233C228.157 29.2182 228.15 29.2057 228.142 29.2052C228.133 29.2047 228.126 29.2142 228.125 29.2262ZM230.544 29.3733C230.543 29.3878 230.531 29.399 230.516 29.3982C230.502 29.3973 230.494 29.4015 230.499 29.4076C230.514 29.4266 230.574 29.4003 230.576 29.374C230.577 29.3602 230.57 29.3485 230.561 29.348C230.553 29.3475 230.545 29.3589 230.544 29.3733ZM227.697 29.2053C227.697 29.2102 227.71 29.2308 227.726 29.2511C227.743 29.2715 227.756 29.2808 227.757 29.2718C227.757 29.2629 227.747 29.2424 227.735 29.2265C227.711 29.1968 227.698 29.1897 227.697 29.2053ZM230.937 29.4728C230.92 29.5104 230.92 29.5139 230.938 29.492C230.949 29.4773 230.97 29.4621 230.983 29.4582C231.002 29.4523 231.002 29.4492 230.982 29.439C230.965 29.4308 230.951 29.4416 230.937 29.4728ZM220.034 29.1773C220.032 29.2024 219.955 29.2857 219.934 29.2847C219.929 29.2845 219.906 29.3109 219.883 29.3434C219.861 29.3759 219.832 29.402 219.82 29.4012C219.808 29.4005 219.79 29.4192 219.78 29.4429C219.771 29.4666 219.753 29.4853 219.74 29.4846C219.728 29.4838 219.712 29.5028 219.705 29.5266C219.697 29.5542 219.682 29.5692 219.662 29.5681C219.641 29.5668 219.634 29.575 219.639 29.5928C219.643 29.6103 219.631 29.6247 219.604 29.6344C219.581 29.6427 219.561 29.6575 219.561 29.6674C219.56 29.6773 219.548 29.6848 219.534 29.6839C219.521 29.6831 219.505 29.698 219.499 29.717C219.493 29.736 219.482 29.7513 219.474 29.7508C219.466 29.7504 219.452 29.7701 219.441 29.7947C219.429 29.8241 219.415 29.8356 219.4 29.8281C219.385 29.8205 219.377 29.8277 219.375 29.8501C219.374 29.8684 219.359 29.8876 219.341 29.8927C219.323 29.8979 219.308 29.9088 219.308 29.9172C219.307 29.9256 219.292 29.9365 219.275 29.9417C219.257 29.9468 219.242 29.9622 219.241 29.9761C219.24 29.99 219.225 30.0004 219.207 29.9993C219.175 29.9974 219.174 30.0039 219.151 30.4806L219.127 30.9638L218.893 30.95C218.694 30.9381 218.658 30.9402 218.648 30.9636C218.64 30.9834 218.624 30.9875 218.592 30.9784C218.555 30.9677 218.547 30.9714 218.546 31.002C218.544 31.0235 218.53 31.0413 218.511 31.0456C218.49 31.0503 218.478 31.0677 218.477 31.0947C218.475 31.1211 218.465 31.1361 218.449 31.1352C218.414 31.1332 218.377 31.1745 218.374 31.2175C218.373 31.2382 218.362 31.2533 218.348 31.2525C218.335 31.2518 218.324 31.2633 218.323 31.2783C218.322 31.2998 218.31 31.3023 218.266 31.2904L218.21 31.2753L218.217 31.3414L218.224 31.4077L218.177 31.3932C218.138 31.381 218.13 31.3839 218.13 31.4103C218.131 31.4282 218.114 31.4488 218.093 31.4576C218.066 31.4689 218.057 31.484 218.06 31.514C218.064 31.5469 218.058 31.5539 218.031 31.55C217.964 31.5402 217.959 31.5449 217.958 31.6265L217.957 31.7062L218.514 31.7342L219.072 31.7622L218.984 33.2608C218.897 34.7326 218.896 34.7601 218.924 34.8057C218.943 34.8362 218.952 34.8788 218.949 34.9289C218.945 34.9876 218.95 35.0059 218.97 35.0071C218.989 35.0082 218.992 35.0192 218.982 35.0519C218.972 35.0874 218.976 35.0956 219.002 35.0971C219.019 35.0981 219.033 35.1089 219.032 35.1211C219.032 35.1333 219.051 35.1641 219.076 35.1895C219.101 35.215 219.121 35.2418 219.12 35.2493C219.119 35.2688 219.176 35.3364 219.194 35.3375C219.203 35.338 219.21 35.3465 219.209 35.3563C219.208 35.3662 219.225 35.3844 219.246 35.3966C219.267 35.4089 219.284 35.4295 219.283 35.4425C219.282 35.4583 219.303 35.4673 219.347 35.4699C219.404 35.4733 219.411 35.4778 219.402 35.5083C219.392 35.5397 219.397 35.5422 219.455 35.5354C219.511 35.5288 219.519 35.5323 219.525 35.5682C219.532 35.6052 219.539 35.6079 219.613 35.6024C219.658 35.5991 220.074 35.6187 220.537 35.6459L221.379 35.6955L221.402 35.3114L221.424 34.9273L221.376 34.9134C221.349 34.9057 220.975 34.8788 220.546 34.8534L219.765 34.8073L219.854 33.3104L219.942 31.8135L220.772 31.8675L221.602 31.9215L221.625 31.528L221.648 31.1346L221.599 31.1207C221.573 31.113 221.198 31.0859 220.766 31.0604L219.981 31.0141L220.032 30.123C220.06 29.6328 220.082 29.2184 220.081 29.2022C220.079 29.164 220.036 29.1414 220.034 29.1773ZM228.969 29.7138C228.967 29.7356 228.978 29.7479 228.998 29.7491C229.016 29.7501 229.031 29.74 229.031 29.7267C229.032 29.7133 229.019 29.6974 229.002 29.6913C228.979 29.6832 228.97 29.6889 228.969 29.7138ZM229.654 29.7297C229.607 29.737 229.604 29.7849 229.651 29.7876C229.677 29.7892 229.688 29.7796 229.689 29.7546C229.691 29.7353 229.691 29.7206 229.691 29.7218C229.69 29.7232 229.674 29.7267 229.654 29.7297ZM198.435 27.9051L198.383 27.9091L198.194 31.1128L198.005 34.3165L198.484 34.3401L198.962 34.3637L199.051 32.9857L199.141 31.6079L200.659 31.693L202.178 31.7781L202.091 33.165L202.005 34.5521L202.479 34.5801C202.746 34.5958 202.957 34.6013 202.963 34.5926C202.985 34.5571 203.349 28.2116 203.33 28.1959C203.307 28.1781 202.532 28.1294 202.444 28.1403L202.383 28.1478L202.303 29.5195L202.223 30.8912L201.036 30.8243C199.794 30.7545 199.802 30.7544 199.798 30.826C199.796 30.8498 199.735 30.9116 199.714 30.9104C199.705 30.9099 199.697 30.9166 199.697 30.9252C199.695 30.9533 199.464 31.1776 199.438 31.1761C199.424 31.1753 199.407 31.1935 199.401 31.2168C199.394 31.24 199.363 31.2758 199.332 31.2964C199.301 31.3171 199.276 31.3403 199.275 31.3479C199.274 31.3704 199.188 31.4432 199.164 31.4418C199.146 31.4407 199.16 31.1527 199.245 29.7041C199.338 28.1369 199.345 27.9664 199.323 27.9555C199.297 27.9425 198.521 27.8984 198.435 27.9051ZM228.078 29.7045C228.069 29.734 228.075 29.7395 228.119 29.7417C228.147 29.7431 228.167 29.7382 228.164 29.7306C228.16 29.7232 228.144 29.7163 228.128 29.7153C228.112 29.7144 228.096 29.7037 228.093 29.6917C228.09 29.6796 228.083 29.6854 228.078 29.7045ZM230.548 29.8377C230.548 29.8489 230.531 29.8581 230.511 29.8581C230.482 29.858 230.481 29.8597 230.505 29.8681C230.536 29.879 230.576 29.8506 230.56 29.8297C230.554 29.8228 230.549 29.8264 230.548 29.8377ZM229.231 29.7759C229.286 29.7826 229.371 29.7876 229.421 29.787C229.471 29.7865 229.427 29.7811 229.322 29.7749C229.218 29.7688 229.177 29.7693 229.231 29.7759ZM228.582 30.0062C228.585 30.0257 228.594 30.0379 228.602 30.0333C228.618 30.0235 228.607 29.9727 228.588 29.9716C228.581 29.9712 228.578 29.9867 228.582 30.0062ZM230.01 30.0599C230.01 30.0623 230.006 30.0779 230.002 30.0946C229.992 30.1369 230.017 30.1344 230.03 30.0919C230.038 30.0661 230.019 30.0353 230.01 30.0599ZM228.873 30.053C228.888 30.0585 228.9 30.0743 228.899 30.0881C228.897 30.1174 228.969 30.1269 228.986 30.0996C229.002 30.075 228.998 30.0726 228.917 30.0567C228.878 30.0491 228.858 30.0474 228.873 30.053ZM229.581 30.0983C229.559 30.1031 229.538 30.1168 229.535 30.1288C229.528 30.1589 229.604 30.161 229.622 30.1312C229.629 30.118 229.654 30.1047 229.676 30.1015C229.711 30.0965 229.71 30.0954 229.668 30.0927C229.642 30.0909 229.603 30.0934 229.581 30.0983ZM232.792 30.8099C232.791 30.8244 232.782 30.8358 232.772 30.8352C232.762 30.8346 232.758 30.8391 232.762 30.845C232.767 30.851 232.786 30.8516 232.805 30.8463C232.843 30.8353 232.853 30.7871 232.817 30.785C232.804 30.7842 232.793 30.7954 232.792 30.8099ZM233.029 30.8236C233.028 30.8504 233.099 30.8849 233.117 30.8665C233.123 30.8608 233.116 30.8555 233.102 30.8546C233.087 30.8538 233.076 30.8412 233.077 30.8267C233.078 30.8122 233.068 30.7998 233.055 30.799C233.042 30.7982 233.03 30.8093 233.029 30.8236ZM232.811 31.0958C232.787 31.105 232.781 31.1528 232.804 31.1542C232.812 31.1547 232.82 31.1433 232.821 31.1288C232.822 31.1083 232.843 31.1037 232.917 31.108C232.991 31.1124 233.012 31.1195 233.011 31.14C233.01 31.1573 233.024 31.1668 233.053 31.1675C233.078 31.1682 233.087 31.1639 233.073 31.1571C233.061 31.1507 233.042 31.1343 233.031 31.1207C233.012 31.0966 232.855 31.079 232.811 31.0958ZM232.233 31.1382C232.233 31.1478 232.221 31.1551 232.208 31.1543C232.195 31.1535 232.184 31.1688 232.182 31.1907L232.18 31.2286L232.214 31.19C232.247 31.1531 232.259 31.1221 232.242 31.121C232.238 31.1208 232.234 31.1285 232.233 31.1382ZM232.613 31.1606C232.612 31.1702 232.601 31.1775 232.589 31.1768C232.576 31.176 232.562 31.182 232.557 31.19C232.552 31.1979 232.565 31.2018 232.587 31.1985C232.619 31.1937 232.65 31.1451 232.622 31.1435C232.617 31.1432 232.613 31.1509 232.613 31.1606ZM232.129 31.293C232.128 31.3137 232.113 31.3411 232.097 31.3539C232.071 31.3748 232.072 31.3754 232.105 31.36C232.137 31.3453 232.165 31.2575 232.139 31.2559C232.135 31.2557 232.13 31.2724 232.129 31.293ZM233.678 31.4393C233.692 31.4533 233.704 31.4961 233.706 31.5344L233.708 31.604L233.715 31.5302C233.721 31.4693 233.716 31.4526 233.688 31.4351C233.657 31.4164 233.656 31.417 233.678 31.4393ZM232.074 31.4812C232.072 31.515 232.074 31.529 232.079 31.5123C232.084 31.4956 232.086 31.468 232.083 31.4509C232.08 31.4337 232.076 31.4473 232.074 31.4812ZM233.712 31.6307C233.711 31.6403 233.721 31.6489 233.734 31.6497C233.747 31.6504 233.759 31.6431 233.759 31.6335C233.76 31.6238 233.75 31.6153 233.736 31.6145C233.723 31.6137 233.712 31.621 233.712 31.6307ZM232.009 31.5944C231.991 31.6387 231.995 31.6498 232.029 31.6421C232.046 31.6382 232.062 31.6248 232.062 31.6125C232.064 31.5789 232.022 31.5644 232.009 31.5944ZM205.754 30.1965C205.753 30.2275 205.733 30.2324 205.654 30.222C205.624 30.2179 205.61 30.2246 205.609 30.2438C205.608 30.2599 205.594 30.2708 205.575 30.2697C205.558 30.2687 205.531 30.2828 205.514 30.3013C205.498 30.3197 205.479 30.3345 205.472 30.334C205.456 30.3331 205.411 30.3758 205.41 30.3935C205.408 30.412 205.276 30.5339 205.258 30.5328C205.249 30.5323 205.241 30.5548 205.24 30.5827C205.238 30.6107 205.226 30.6373 205.214 30.6418C205.201 30.6464 205.187 30.6722 205.182 30.6992C205.177 30.7295 205.165 30.7469 205.151 30.745C205.13 30.7423 205.115 30.9389 205.028 32.4161C204.933 34.0364 204.93 34.0904 204.959 34.092C204.983 34.0935 204.987 34.1045 204.979 34.1522C204.97 34.2027 204.973 34.2097 205 34.2037C205.027 34.1976 205.029 34.2046 205.02 34.2621C205.01 34.3179 205.014 34.3301 205.044 34.345C205.064 34.3548 205.08 34.3713 205.079 34.3819C205.078 34.4051 205.114 34.4536 205.134 34.4548C205.142 34.4553 205.168 34.4845 205.191 34.5198C205.217 34.5585 205.248 34.5849 205.269 34.5862C205.289 34.5873 205.303 34.5978 205.3 34.6099C205.296 34.624 205.318 34.635 205.361 34.641C205.432 34.6509 205.44 34.6622 205.405 34.6985C205.388 34.7168 205.399 34.7195 205.467 34.7141C205.537 34.7084 205.55 34.7121 205.556 34.7392C205.563 34.7707 208.818 34.9753 208.977 34.9542L209.029 34.9474L209.05 34.5829L209.072 34.2185L209.021 34.1943C208.982 34.1762 208.573 34.1468 207.361 34.0753L205.753 33.9804L205.842 32.4834L205.93 30.9865L207.151 31.0635C207.822 31.1057 208.373 31.1433 208.376 31.147C208.379 31.1508 208.368 31.4077 208.351 31.7179L208.321 32.2818L207.522 32.2375C207.083 32.2131 206.71 32.1903 206.692 32.1868C206.675 32.1834 206.65 32.1787 206.637 32.1764C206.622 32.1736 206.611 32.191 206.605 32.229C206.601 32.2602 206.591 32.2854 206.582 32.2849C206.574 32.2844 206.567 32.2928 206.566 32.3035C206.565 32.3305 206.494 32.4023 206.469 32.4013C206.458 32.4008 206.449 32.4084 206.449 32.418C206.448 32.4277 206.426 32.4343 206.4 32.4328C206.359 32.4303 206.352 32.4362 206.35 32.4787C206.346 32.5354 206.296 32.5852 206.244 32.5821C206.224 32.581 206.195 32.595 206.179 32.6135C206.154 32.6415 206.154 32.6472 206.173 32.6484C206.186 32.6492 206.196 32.6617 206.195 32.6762C206.194 32.6907 206.183 32.7018 206.17 32.7011C206.157 32.7003 206.146 32.7109 206.145 32.7247C206.142 32.7648 206.024 32.851 205.975 32.8481C205.919 32.8448 205.914 32.8919 205.968 32.9187C206.04 32.9543 208.281 33.0777 208.294 33.0467C208.3 33.0325 208.315 33.0215 208.327 33.0222C208.339 33.0229 208.349 33.0151 208.35 33.005C208.351 32.9949 208.373 32.9796 208.4 32.971C208.426 32.9624 208.449 32.9451 208.45 32.9326C208.452 32.899 208.643 32.7061 208.673 32.7078C208.687 32.7086 208.705 32.6919 208.712 32.6705C208.729 32.6207 208.787 32.5642 208.833 32.551C208.853 32.5454 208.87 32.5283 208.871 32.5131C208.873 32.4794 209.042 32.3145 209.088 32.3012C209.109 32.2951 209.126 32.2708 209.135 32.2319C209.143 32.1979 209.158 32.1726 209.171 32.1733C209.189 32.1744 209.197 32.096 209.219 31.7181C209.243 31.3241 209.243 31.2614 209.223 31.2602C209.197 31.2587 209.194 31.1858 209.212 31.0172C209.22 30.943 209.217 30.925 209.196 30.9238C209.18 30.9229 209.172 30.9069 209.174 30.8791C209.175 30.8538 209.164 30.8273 209.146 30.8151C209.129 30.8038 209.116 30.7848 209.117 30.7729C209.117 30.7611 209.101 30.7354 209.08 30.7161C209.06 30.6967 209.043 30.668 209.044 30.6523C209.045 30.6366 209.031 30.615 209.012 30.6044C208.993 30.5935 208.973 30.5591 208.966 30.526C208.957 30.4774 208.948 30.4671 208.914 30.4676C208.845 30.4683 208.833 30.4631 208.835 30.4312C208.837 30.4048 208.824 30.4006 208.747 30.4013C208.667 30.4022 208.659 30.3991 208.667 30.3702C208.677 30.3392 208.63 30.3354 207.217 30.2519C205.836 30.1705 205.756 30.1674 205.754 30.1965ZM212.472 30.5708C211.185 30.5032 211.097 30.5006 211.081 30.5285C211.072 30.5449 211.053 30.5577 211.041 30.557C211.028 30.5562 211.017 30.5636 211.017 30.5732C211.016 30.5829 210.99 30.5893 210.959 30.5874C210.905 30.5842 210.903 30.5859 210.91 30.6374C210.915 30.6716 210.911 30.6903 210.9 30.6896C210.89 30.6891 210.877 30.7015 210.87 30.7173C210.858 30.7469 210.803 30.8072 210.789 30.8064C210.779 30.8058 210.714 30.8698 210.713 30.8813C210.712 30.8964 210.646 30.9565 210.631 30.9556C210.623 30.9552 210.612 30.9671 210.606 30.982C210.597 31.0023 210.582 31.0055 210.548 30.9948C210.502 30.9809 210.501 30.9826 210.497 31.0433C210.495 31.0778 210.486 31.1057 210.478 31.1052C210.469 31.1046 210.461 31.1157 210.46 31.1298C210.46 31.1438 210.449 31.1609 210.437 31.1679C210.425 31.175 210.41 31.1985 210.403 31.2201L210.392 31.2594L212.028 31.3512L213.663 31.443L213.576 32.9188C213.51 34.0433 213.484 34.3994 213.469 34.4146C213.454 34.4298 213.159 34.4174 212.238 34.3631L211.027 34.2916L211.063 33.6859L211.099 33.0801L211.908 33.1278C212.777 33.1791 212.797 33.1783 212.842 33.0931C212.853 33.0706 212.874 33.0526 212.886 33.0534C212.899 33.0541 212.913 33.0368 212.917 33.0146C212.922 32.9914 212.941 32.9686 212.964 32.9605C212.986 32.9529 213.004 32.9382 213.004 32.9277C213.005 32.9173 213.027 32.9019 213.054 32.8933C213.085 32.8833 213.103 32.8657 213.105 32.8443C213.106 32.8259 213.114 32.8114 213.124 32.8119C213.133 32.8125 213.155 32.796 213.173 32.7752C213.201 32.7429 213.208 32.7414 213.22 32.7647C213.232 32.7882 213.234 32.7877 213.236 32.7613C213.237 32.7444 213.246 32.731 213.255 32.7315C213.264 32.7321 213.268 32.7252 213.264 32.716C213.25 32.6866 213.278 32.6448 213.31 32.6468C213.336 32.6483 213.34 32.6405 213.334 32.6041C213.328 32.5642 213.332 32.5599 213.374 32.5624C213.42 32.5651 213.421 32.5629 213.423 32.4862L213.424 32.407L212.262 32.3386C211.493 32.2933 211.107 32.2764 211.122 32.2888C211.166 32.3247 211.102 32.3424 210.981 32.3278C210.878 32.3153 210.866 32.3172 210.865 32.3465C210.863 32.3726 210.85 32.3782 210.801 32.3753C210.761 32.3729 210.736 32.3806 210.729 32.3975C210.723 32.4117 210.701 32.4222 210.679 32.4209C210.652 32.4194 210.63 32.4349 210.609 32.4698C210.592 32.4977 210.565 32.5245 210.549 32.529C210.533 32.5336 210.519 32.549 210.519 32.5632C210.518 32.5775 210.495 32.6015 210.468 32.6164C210.44 32.6319 210.414 32.6634 210.407 32.6898C210.401 32.7153 210.385 32.7399 210.372 32.7444C210.359 32.749 210.347 32.773 210.346 32.7977C210.345 32.8225 210.332 32.8467 210.319 32.8515C210.302 32.8574 210.293 32.885 210.29 32.9373C210.286 32.9991 210.28 33.0142 210.258 33.0129C210.217 33.0104 210.147 34.2801 210.187 34.2921C210.204 34.2972 210.21 34.3165 210.206 34.3548C210.197 34.4406 210.199 34.4542 210.223 34.4556C210.251 34.4572 210.262 34.4966 210.248 34.5435C210.24 34.5693 210.245 34.5803 210.263 34.5813C210.277 34.5822 210.288 34.5896 210.287 34.5978C210.287 34.6061 210.337 34.6765 210.399 34.7542C210.462 34.832 210.519 34.896 210.526 34.8964C210.533 34.8968 210.539 34.909 210.538 34.9235C210.537 34.9426 210.554 34.9509 210.6 34.9536C210.652 34.9567 210.663 34.9632 210.661 34.9921C210.659 35.0234 210.666 35.0262 210.733 35.02C210.804 35.0135 210.807 35.0149 210.796 35.0515C210.787 35.0811 210.789 35.0859 210.806 35.0726C210.817 35.0632 210.83 35.0598 210.835 35.0653C210.851 35.0855 212.727 35.1847 212.767 35.1674C212.794 35.1558 212.804 35.1401 212.8 35.1169C212.795 35.0901 212.803 35.0836 212.836 35.0856C212.858 35.0869 212.877 35.0793 212.878 35.0686C212.88 35.0369 213.116 34.8202 213.147 34.822C213.162 34.8229 213.18 34.8121 213.185 34.7979C213.191 34.7837 213.208 34.7727 213.221 34.7735C213.254 34.7754 213.295 34.7357 213.297 34.7C213.298 34.6848 213.308 34.6729 213.32 34.6736C213.332 34.6744 213.347 34.6633 213.353 34.6491C213.359 34.635 213.373 34.6239 213.384 34.6246C213.396 34.6252 213.42 34.6088 213.438 34.5881L213.472 34.5504L213.458 34.8655C213.449 35.0615 213.45 35.1896 213.46 35.2048C213.486 35.2443 214.239 35.2844 214.254 35.2472C214.297 35.1433 214.494 31.2718 214.457 31.2696C214.445 31.2689 214.436 31.2522 214.438 31.2326C214.439 31.213 214.429 31.1917 214.417 31.1854C214.404 31.1791 214.394 31.1569 214.396 31.1363C214.397 31.1146 214.376 31.0752 214.346 31.044C214.317 31.014 214.294 30.979 214.295 30.9662C214.295 30.9534 214.289 30.9425 214.281 30.942C214.272 30.9415 214.235 30.9037 214.199 30.8579C214.162 30.8121 214.118 30.7739 214.1 30.7728C214.082 30.7718 214.069 30.7592 214.07 30.7445C214.071 30.725 214.053 30.7172 214 30.7141C213.939 30.7105 213.929 30.7046 213.931 30.6747C213.933 30.6471 213.924 30.6399 213.889 30.6412C213.865 30.642 213.227 30.6104 212.472 30.5708ZM231.993 31.7818C231.999 31.8074 232.05 31.8236 232.051 31.8004C232.052 31.7911 232.038 31.7784 232.02 31.7722C232 31.765 231.99 31.7684 231.993 31.7818ZM233.456 31.9298C233.455 31.9411 233.444 31.9497 233.431 31.9489C233.417 31.948 233.407 31.9631 233.406 31.9871C233.406 32.0138 233.409 32.0183 233.416 32.0008C233.422 31.9866 233.439 31.9665 233.453 31.956C233.468 31.9456 233.474 31.9308 233.468 31.9231C233.462 31.9156 233.457 31.9186 233.456 31.9298ZM232.047 31.9465C232.044 31.9851 232.047 31.9991 232.052 31.9774C232.057 31.9558 232.059 31.9242 232.056 31.9072C232.053 31.8901 232.049 31.9078 232.047 31.9465ZM233.672 32.0953C233.67 32.1339 233.673 32.1479 233.678 32.1263C233.683 32.1046 233.685 32.073 233.682 32.056C233.679 32.039 233.675 32.0567 233.672 32.0953ZM232.368 32.0852C232.367 32.1025 232.382 32.139 232.403 32.1663C232.423 32.1936 232.44 32.2062 232.441 32.1943C232.441 32.1823 232.436 32.1721 232.428 32.1717C232.42 32.1712 232.404 32.1445 232.392 32.1123C232.378 32.0749 232.37 32.0651 232.368 32.0852ZM232.09 32.2221C232.089 32.242 232.098 32.2579 232.112 32.2587C232.131 32.2599 232.133 32.2528 232.121 32.224C232.113 32.2041 232.103 32.1878 232.099 32.1875C232.095 32.1873 232.091 32.2028 232.09 32.2221ZM232.569 32.3033C232.543 32.3139 232.542 32.317 232.563 32.3193C232.577 32.3208 232.592 32.3322 232.596 32.3445C232.599 32.3569 232.604 32.3492 232.606 32.3275C232.608 32.3058 232.608 32.2885 232.606 32.2891C232.603 32.2896 232.587 32.2961 232.569 32.3033ZM233.073 32.3519C233.056 32.3797 233.068 32.382 233.113 32.3591C233.153 32.3392 233.153 32.3382 233.12 32.3361C233.1 32.3347 233.08 32.3419 233.073 32.3519ZM232.715 32.3912C232.714 32.4057 232.72 32.4179 232.729 32.4184C232.738 32.4189 232.745 32.4076 232.746 32.3931C232.747 32.3786 232.741 32.3662 232.732 32.3657C232.723 32.3652 232.715 32.3767 232.715 32.3912ZM232.803 32.4353C232.823 32.4406 232.855 32.4425 232.874 32.4395C232.894 32.4364 232.878 32.4321 232.839 32.4297C232.8 32.4274 232.784 32.4299 232.803 32.4353ZM214.459 32.6089C214.426 33.1642 214.415 33.3914 214.434 33.1139C214.452 32.8364 214.479 32.3821 214.493 32.1043C214.507 31.8265 214.492 32.0536 214.459 32.6089ZM232.984 33.0502C232.972 33.2482 232.97 33.3293 232.979 33.2305C232.987 33.1317 232.997 32.9697 233 32.8705C233.003 32.7714 232.996 32.8523 232.984 33.0502ZM232.949 33.6296C232.942 33.7504 232.942 33.7999 232.948 33.7397C232.955 33.6795 232.961 33.5808 232.961 33.5202C232.962 33.4596 232.956 33.5089 232.949 33.6296ZM228.898 33.7896C228.875 33.8122 228.885 33.8403 228.916 33.8421C228.936 33.8433 228.947 33.834 228.945 33.8183C228.942 33.7888 228.915 33.7726 228.898 33.7896ZM232.876 34.0577C232.87 34.0723 232.869 34.0895 232.874 34.0958C232.879 34.1022 232.884 34.0947 232.885 34.0794C232.886 34.064 232.899 34.0485 232.915 34.045C232.941 34.039 232.941 34.0384 232.915 34.0349C232.899 34.0329 232.882 34.0431 232.876 34.0577ZM232.547 34.1742C232.545 34.2047 232.534 34.2218 232.519 34.2209C232.506 34.2201 232.495 34.2274 232.495 34.2371C232.494 34.2467 232.504 34.2553 232.517 34.256C232.542 34.2575 232.569 34.187 232.558 34.1491C232.554 34.1363 232.549 34.1476 232.547 34.1742ZM229.257 33.98C229.255 33.9991 229.267 34.0113 229.286 34.0125C229.304 34.0135 229.318 34.006 229.319 33.9958C229.32 33.9856 229.312 33.9822 229.302 33.9882C229.292 33.9943 229.278 33.9881 229.271 33.9743C229.261 33.9544 229.258 33.9557 229.257 33.98ZM232.814 34.3008C232.808 34.3154 232.807 34.3325 232.812 34.3389C232.817 34.3451 232.822 34.3411 232.822 34.3298C232.823 34.3186 232.834 34.31 232.847 34.3108C232.86 34.3116 232.871 34.3043 232.872 34.2947C232.874 34.2665 232.826 34.2715 232.814 34.3008ZM228.921 34.1495C228.915 34.1589 228.925 34.1675 228.944 34.1685C228.962 34.1696 228.973 34.1623 228.969 34.1523C228.964 34.1424 228.954 34.1339 228.946 34.1334C228.938 34.133 228.927 34.1402 228.921 34.1495ZM232.43 34.4888C232.424 34.5256 232.413 34.5399 232.394 34.5371C232.379 34.5349 232.37 34.5403 232.374 34.5491C232.4 34.602 232.462 34.5235 232.445 34.4597C232.442 34.4469 232.435 34.46 232.43 34.4888ZM229.015 34.3754C229.013 34.414 229.015 34.4279 229.02 34.4063C229.025 34.3847 229.027 34.3531 229.024 34.336C229.021 34.319 229.017 34.3367 229.015 34.3754ZM232.663 34.7757C232.632 34.8065 232.633 34.8072 232.665 34.8063C232.686 34.8059 232.7 34.7935 232.701 34.7742C232.703 34.7363 232.703 34.7363 232.663 34.7757ZM229.093 34.6399C229.088 34.6918 229.092 34.7059 229.114 34.707C229.132 34.7078 229.136 34.7033 229.124 34.6943C229.115 34.6865 229.105 34.6563 229.103 34.6272C229.1 34.579 229.099 34.5802 229.093 34.6399ZM232.539 34.9787C232.523 34.9965 232.512 35.0218 232.516 35.0347C232.521 35.0503 232.524 35.0481 232.526 35.0284C232.528 35.0119 232.542 34.9916 232.558 34.9831C232.573 34.9745 232.582 34.9627 232.578 34.9569C232.573 34.9509 232.556 34.9607 232.539 34.9787ZM232.488 35.0839C232.472 35.0928 232.459 35.1137 232.459 35.1301C232.459 35.1545 232.461 35.1553 232.469 35.1343C232.475 35.1201 232.492 35.0995 232.506 35.0885C232.539 35.0644 232.528 35.0615 232.488 35.0839ZM231.834 35.256C231.822 35.2869 231.82 35.3044 231.83 35.2987C231.838 35.2935 231.846 35.2777 231.847 35.2639C231.848 35.25 231.859 35.2391 231.871 35.2399C231.884 35.2406 231.899 35.2336 231.905 35.2243C231.911 35.215 231.902 35.2065 231.885 35.2055C231.864 35.2043 231.847 35.2217 231.834 35.256ZM214.344 34.5402C214.333 34.7286 214.331 34.8057 214.339 34.7118C214.348 34.6178 214.357 34.4637 214.359 34.3694C214.362 34.275 214.355 34.352 214.344 34.5402ZM230.129 35.3309C230.128 35.3503 230.132 35.3664 230.139 35.3668C230.146 35.3672 230.153 35.3517 230.154 35.3323C230.155 35.313 230.15 35.297 230.143 35.2966C230.137 35.2962 230.13 35.3116 230.129 35.3309ZM231.255 35.4523C231.253 35.4912 231.27 35.4972 231.285 35.4622C231.29 35.4488 231.286 35.4336 231.276 35.4285C231.265 35.4232 231.256 35.4333 231.255 35.4523ZM232.119 35.4836C232.119 35.4933 232.105 35.5004 232.089 35.4994C232.073 35.4985 232.036 35.5241 232.006 35.5563C231.977 35.5884 231.958 35.6151 231.966 35.6155C231.973 35.6159 231.996 35.5936 232.017 35.5657C232.041 35.5332 232.069 35.5159 232.094 35.5174C232.118 35.5188 232.134 35.5097 232.135 35.4933C232.136 35.4788 232.133 35.4668 232.128 35.4666C232.124 35.4663 232.12 35.4739 232.119 35.4836ZM230.451 35.4508C230.479 35.4563 230.528 35.4592 230.561 35.4574C230.595 35.4556 230.572 35.451 230.511 35.4473C230.45 35.4437 230.423 35.4451 230.451 35.4508ZM231.068 35.4872C231.095 35.4927 231.145 35.4956 231.178 35.4938C231.211 35.492 231.188 35.4874 231.128 35.4837C231.067 35.4801 231.04 35.4815 231.068 35.4872ZM229.765 35.5738C229.765 35.5834 229.784 35.5924 229.808 35.5936C229.842 35.5954 229.846 35.5919 229.829 35.5775C229.799 35.5535 229.767 35.5516 229.765 35.5738ZM230.487 35.805C230.504 35.8108 230.511 35.8249 230.505 35.8392C230.493 35.8678 230.519 35.8737 230.536 35.8463C230.55 35.8248 230.518 35.794 230.482 35.7946C230.467 35.7948 230.468 35.7983 230.487 35.805ZM231.074 35.8463C231.067 35.8565 231.069 35.874 231.078 35.8853C231.09 35.9005 231.095 35.8983 231.096 35.8774C231.097 35.8616 231.111 35.8459 231.126 35.8424C231.148 35.8375 231.147 35.8351 231.12 35.832C231.101 35.8297 231.08 35.8361 231.074 35.8463ZM214.303 35.1898C214.301 35.2236 214.303 35.2376 214.308 35.221C214.313 35.2043 214.315 35.1767 214.312 35.1594C214.309 35.1423 214.305 35.156 214.303 35.1898Z" fill="#045C7C"/>
<path fill-rule="evenodd" clip-rule="evenodd" d="M230.665 27.0623C230.667 27.1176 230.547 27.1234 230.379 27.0762C230.345 27.0669 230.339 27.0711 230.346 27.0991C230.355 27.1395 230.284 27.1587 230.207 27.1364C230.173 27.1265 230.16 27.1298 230.159 27.1487C230.157 27.1806 230.063 27.1986 230.037 27.1721C230.008 27.1422 229.994 27.1478 229.994 27.1901C229.993 27.2217 229.981 27.2293 229.931 27.2308C229.897 27.2317 229.869 27.2405 229.868 27.2503C229.864 27.3106 229.779 27.3276 229.548 27.3145C229.361 27.3039 229.315 27.3062 229.305 27.3267C229.298 27.3405 229.284 27.3514 229.273 27.3507C229.242 27.3489 229.094 27.4757 229.092 27.5058C229.091 27.5209 229.076 27.5359 229.057 27.5392C229.016 27.5465 228.974 28.1057 229.016 28.1002C229.048 28.096 229.059 28.1747 229.04 28.2688C229.025 28.3407 229.027 28.3526 229.058 28.362C229.109 28.3772 229.163 28.5894 229.179 28.8355C229.182 28.894 229.192 28.9183 229.213 28.9195C229.236 28.9209 229.239 28.9355 229.228 28.9896C229.215 29.0496 229.218 29.0581 229.251 29.0601C229.285 29.062 229.288 29.0717 229.278 29.1367C229.269 29.2007 229.272 29.2102 229.301 29.2051C229.322 29.2014 229.334 29.2089 229.333 29.2258C229.332 29.2404 229.345 29.2658 229.36 29.282C229.378 29.2999 229.387 29.3389 229.384 29.3797C229.381 29.4279 229.387 29.4483 229.407 29.4494C229.423 29.4503 229.433 29.468 229.431 29.4934C229.43 29.5168 229.444 29.5443 229.462 29.5546C229.48 29.5648 229.51 29.6038 229.528 29.6411C229.546 29.6785 229.572 29.7159 229.584 29.7243C229.597 29.7326 229.606 29.7506 229.605 29.7643C229.605 29.7781 229.612 29.7899 229.623 29.7905C229.633 29.7911 229.645 29.8112 229.651 29.8353C229.656 29.8594 229.667 29.8794 229.676 29.8799C229.684 29.8805 229.701 29.9022 229.714 29.9282C229.726 29.9541 229.751 29.9848 229.769 29.9962C229.788 30.0077 229.854 30.0668 229.917 30.1275C230.064 30.2697 230.076 30.279 230.118 30.289C230.138 30.2937 230.156 30.3146 230.158 30.3363C230.161 30.3672 230.17 30.3738 230.205 30.368C230.232 30.3635 230.257 30.3716 230.271 30.3892C230.284 30.4048 230.313 30.4188 230.337 30.4202C230.361 30.4216 230.384 30.4345 230.39 30.4491C230.395 30.4637 230.42 30.4769 230.447 30.4785C230.477 30.4802 230.494 30.4909 230.493 30.5071C230.492 30.5266 230.515 30.5343 230.587 30.5385C230.676 30.5438 230.692 30.5544 230.68 30.6016C230.678 30.6094 230.731 30.6137 230.799 30.6111C230.965 30.6047 231.157 30.6367 231.142 30.6681C231.133 30.6858 231.149 30.6926 231.205 30.696C231.264 30.6994 231.28 30.7071 231.279 30.7306C231.267 31.0851 231.233 31.5961 231.222 31.5955C231.213 31.595 231.211 31.6028 231.217 31.6129C231.223 31.6229 231.193 32.2305 231.15 32.9632C231.078 34.1855 231.074 34.2952 231.102 34.2948C231.144 34.2944 231.162 34.4566 231.13 34.5428C231.098 34.6277 231.1 34.6432 231.138 34.6427C231.165 34.6424 231.17 34.6553 231.164 34.7143C231.157 34.7728 231.161 34.7847 231.185 34.7779C231.225 34.7669 231.247 34.8056 231.243 34.8779C231.241 34.9133 231.252 34.9459 231.271 34.9606C231.297 34.9799 231.298 34.9888 231.278 35.0052C231.265 35.0164 231.253 35.0376 231.253 35.0524C231.253 35.0701 231.257 35.0721 231.264 35.0582C231.294 35.001 231.347 35.0552 231.342 35.1377C231.34 35.1606 231.347 35.1798 231.356 35.1803C231.366 35.1809 231.381 35.2051 231.39 35.2341C231.399 35.2632 231.416 35.2875 231.427 35.2881C231.438 35.2888 231.446 35.3051 231.445 35.3243C231.444 35.3435 231.455 35.3644 231.471 35.3709C231.486 35.3772 231.498 35.3896 231.498 35.3984C231.497 35.4071 231.521 35.4387 231.551 35.4686C231.593 35.5109 231.602 35.5323 231.591 35.5654C231.579 35.6008 231.583 35.6083 231.616 35.6103C231.638 35.6116 231.656 35.6202 231.655 35.6294C231.654 35.6386 231.679 35.6598 231.709 35.6763C231.74 35.6928 231.764 35.7176 231.763 35.7312C231.762 35.7449 231.784 35.7686 231.812 35.784C231.84 35.7992 231.86 35.8182 231.858 35.826C231.855 35.8339 231.868 35.8412 231.886 35.8423C231.905 35.8434 231.934 35.8567 231.95 35.872C232.01 35.9281 232.03 35.9418 232.07 35.9558C232.092 35.9637 232.109 35.9842 232.108 36.0015C232.107 36.0231 232.125 36.0374 232.167 36.0476C232.201 36.0558 232.252 36.0685 232.281 36.0757C232.31 36.083 232.338 36.0999 232.343 36.1133C232.348 36.1288 232.382 36.1393 232.435 36.1425C232.504 36.1465 232.518 36.153 232.516 36.1797C232.514 36.2078 232.525 36.2116 232.6 36.2084C232.676 36.205 232.686 36.2086 232.684 36.2385C232.682 36.2699 232.692 36.2723 232.833 36.2732C233.01 36.2744 233.088 36.2922 233.071 36.3276C233.06 36.3484 233.107 36.3549 233.387 36.3714C233.689 36.3892 233.716 36.3884 233.715 36.3606C233.714 36.3219 234.024 36.3228 234.047 36.3616C234.057 36.3772 234.068 36.3695 234.084 36.3368C234.105 36.2941 234.115 36.2905 234.181 36.3003C234.242 36.3092 234.258 36.3052 234.267 36.2788C234.276 36.2514 234.291 36.2486 234.362 36.2602C234.434 36.2718 234.448 36.269 234.458 36.2423C234.466 36.2202 234.486 36.2117 234.526 36.2141C234.565 36.2163 234.603 36.2015 234.643 36.1691C234.676 36.1426 234.716 36.1216 234.733 36.1226C234.749 36.1235 234.791 36.0988 234.826 36.0676C234.861 36.0365 234.905 36.0118 234.925 36.0129C234.944 36.014 234.96 36.0074 234.96 35.9981C234.961 35.9888 234.983 35.9777 235.01 35.9732C235.036 35.9688 235.058 35.9558 235.059 35.9445C235.06 35.9215 235.193 35.8214 235.22 35.823C235.229 35.8235 235.243 35.803 235.252 35.7774C235.26 35.7518 235.288 35.7149 235.314 35.6955C235.34 35.6761 235.361 35.6523 235.362 35.6427C235.362 35.6332 235.38 35.6183 235.4 35.6099C235.423 35.6004 235.434 35.582 235.43 35.5628C235.426 35.5448 235.441 35.5185 235.464 35.5015C235.486 35.485 235.505 35.4645 235.506 35.4558C235.506 35.4472 235.52 35.4291 235.537 35.4159C235.553 35.4027 235.568 35.3766 235.569 35.358C235.57 35.3395 235.584 35.3206 235.6 35.316C235.618 35.3109 235.63 35.2853 235.632 35.2477C235.635 35.2014 235.645 35.1861 235.676 35.1807C235.71 35.1746 235.715 35.1647 235.707 35.1137C235.7 35.0643 235.705 35.0526 235.734 35.0474C235.766 35.0419 235.77 35.0277 235.768 34.9373C235.766 34.8428 235.77 34.833 235.807 34.8264C235.846 34.8197 235.848 34.8118 235.842 34.7076C235.837 34.6074 235.84 34.5954 235.873 34.5896C235.908 34.5835 235.911 34.5564 235.948 33.9255L235.987 33.2677L236.063 33.2666C236.106 33.266 236.147 33.2545 236.157 33.2404C236.168 33.2238 236.189 33.2198 236.219 33.2284C236.255 33.2388 236.264 33.2348 236.266 33.2085C236.267 33.1887 236.289 33.1686 236.321 33.1585C236.411 33.1303 236.462 33.1068 236.463 33.0939C236.464 33.0735 236.557 32.9989 236.579 33.0003C236.591 33.0009 236.596 32.9886 236.59 32.9725C236.584 32.9561 236.592 32.936 236.609 32.9261C236.625 32.9165 236.644 32.8955 236.652 32.8793C236.66 32.8632 236.679 32.8507 236.696 32.8516C236.717 32.8529 236.723 32.8422 236.716 32.8096C236.708 32.7765 236.714 32.7663 236.737 32.7676C236.759 32.7689 236.768 32.7533 236.771 32.7106C236.775 32.6347 236.794 32.5982 236.827 32.6002C236.848 32.6014 236.855 32.5652 236.863 32.4295C236.871 32.2944 236.868 32.257 236.847 32.2558C236.818 32.2541 236.801 32.2014 236.806 32.1213C236.807 32.0906 236.797 32.0624 236.782 32.0561C236.767 32.0498 236.761 32.0316 236.767 32.0127C236.775 31.9897 236.767 31.9765 236.74 31.9684C236.714 31.9607 236.702 31.9427 236.703 31.9158C236.705 31.8934 236.684 31.8538 236.656 31.8278C236.629 31.8019 236.591 31.7588 236.572 31.7321C236.552 31.7054 236.517 31.6747 236.493 31.6639C236.469 31.6531 236.454 31.6346 236.46 31.6226C236.468 31.6068 236.455 31.602 236.414 31.605C236.37 31.6082 236.356 31.6016 236.35 31.574C236.345 31.5492 236.331 31.5408 236.304 31.5455C236.277 31.5503 236.264 31.5417 236.258 31.5155C236.251 31.4831 236.24 31.4793 236.167 31.4841C236.065 31.4907 235.988 31.4698 235.99 31.436C235.991 31.4163 235.966 31.409 235.878 31.4038C235.792 31.3987 235.764 31.403 235.763 31.4217C235.761 31.4547 235.702 31.4661 235.597 31.454C235.532 31.4465 235.506 31.4509 235.491 31.4724C235.48 31.488 235.455 31.4997 235.436 31.4986C235.417 31.4975 235.395 31.5087 235.388 31.5237C235.379 31.5427 235.358 31.5475 235.318 31.5398C235.274 31.5311 235.262 31.5352 235.26 31.5604C235.259 31.5777 235.249 31.5912 235.238 31.5906C235.21 31.5889 235.066 31.7119 235.049 31.7526C235.042 31.7709 235.028 31.7856 235.018 31.785C235.008 31.7844 234.999 31.7958 234.998 31.8103C234.998 31.8248 234.984 31.8404 234.968 31.8449C234.952 31.8494 234.938 31.8714 234.937 31.8937C234.935 31.9173 234.917 31.9414 234.893 31.9512C234.863 31.964 234.855 31.9786 234.862 32.0112C234.878 32.0882 234.841 32.2198 234.801 32.227C234.749 32.236 234.744 32.3388 234.793 32.3537C234.833 32.3657 234.855 32.5127 234.828 32.5907C234.817 32.624 234.822 32.639 234.852 32.6557C234.874 32.6683 234.889 32.6942 234.888 32.7184C234.887 32.7411 234.91 32.7841 234.939 32.8145C234.969 32.8447 234.992 32.8781 234.992 32.8887C234.991 32.9094 235.134 33.0527 235.158 33.0544C235.166 33.055 235.171 33.0712 235.17 33.0906C235.168 33.1213 235.173 33.1234 235.211 33.1077C235.248 33.0926 235.257 33.0955 235.279 33.1285C235.292 33.1498 235.323 33.1681 235.348 33.1695C235.376 33.1712 235.393 33.1823 235.392 33.1981C235.391 33.217 235.412 33.2251 235.471 33.2287L235.551 33.2335L235.504 33.9952C235.478 34.4142 235.455 34.7666 235.453 34.7784C235.448 34.8109 235.396 34.8009 235.389 34.766C235.384 34.7435 235.38 34.746 235.377 34.7751C235.375 34.7969 235.38 34.8298 235.39 34.848C235.412 34.8918 235.389 34.9345 235.345 34.9319C235.314 34.9301 235.312 34.9356 235.328 34.9728C235.355 35.0365 235.326 35.1095 235.278 35.0952C235.247 35.0859 235.244 35.0885 235.262 35.1101C235.278 35.1307 235.276 35.1424 235.25 35.1655C235.232 35.1817 235.216 35.2079 235.215 35.2238C235.214 35.2398 235.196 35.2651 235.174 35.28C235.152 35.295 235.133 35.3256 235.132 35.3481C235.13 35.3744 235.116 35.3913 235.091 35.3957C235.07 35.3994 235.052 35.4163 235.051 35.4331C235.05 35.4499 235.027 35.4807 235 35.5015C234.972 35.5222 234.95 35.5489 234.949 35.5608C234.948 35.5726 234.939 35.5818 234.928 35.5812C234.909 35.5801 234.83 35.6373 234.829 35.653C234.827 35.6865 234.667 35.7666 234.638 35.7484C234.629 35.7424 234.621 35.7547 234.62 35.7755C234.62 35.8063 234.608 35.8139 234.557 35.8153C234.522 35.8163 234.488 35.8279 234.482 35.8411C234.475 35.8543 234.447 35.8638 234.42 35.8622C234.39 35.8604 234.359 35.8728 234.343 35.8927C234.322 35.9197 234.31 35.9222 234.281 35.9056C234.251 35.8885 234.244 35.8906 234.243 35.9189C234.24 35.962 234.159 35.9746 234.07 35.9454C233.992 35.92 233.918 35.9133 233.951 35.9346C234.041 35.9941 233.831 36.0141 233.584 35.9694C233.457 35.9464 233.371 35.9415 233.207 35.9481C232.956 35.9581 232.845 35.9395 232.862 35.8902C232.876 35.8522 232.846 35.8464 232.744 35.8671C232.655 35.8849 232.573 35.8635 232.575 35.8234C232.577 35.8 232.566 35.794 232.529 35.7982C232.494 35.8022 232.482 35.7963 232.483 35.7758C232.484 35.7566 232.468 35.747 232.43 35.7447C232.399 35.7429 232.371 35.7301 232.366 35.715C232.36 35.7005 232.334 35.6872 232.306 35.6856C232.223 35.6807 231.808 35.2934 231.812 35.2244C231.813 35.2076 231.801 35.1885 231.786 35.1822C231.771 35.1757 231.759 35.1557 231.76 35.1376C231.761 35.1196 231.75 35.0944 231.735 35.0816C231.72 35.069 231.708 35.0487 231.709 35.0367C231.71 35.0246 231.697 35.0092 231.68 35.0022C231.656 34.9923 231.653 34.9754 231.666 34.9218C231.68 34.8615 231.678 34.8537 231.644 34.8517C231.612 34.8498 231.607 34.8381 231.61 34.7738C231.614 34.7197 231.606 34.6946 231.585 34.6855C231.56 34.6753 231.557 34.6578 231.57 34.5964C231.584 34.5313 231.582 34.5197 231.554 34.518C231.508 34.5153 231.737 30.7457 231.785 30.7248C231.8 30.7181 231.809 30.7056 231.804 30.6973C231.789 30.6733 231.974 30.6679 232.172 30.6863C232.324 30.7005 232.355 30.699 232.356 30.6775C232.357 30.6585 232.384 30.6518 232.457 30.6523C232.529 30.6528 232.557 30.646 232.559 30.628C232.559 30.6133 232.578 30.6043 232.605 30.6058C232.63 30.6073 232.661 30.5975 232.675 30.584C232.689 30.5706 232.715 30.5605 232.734 30.5616C232.752 30.5627 232.779 30.552 232.793 30.5379C232.808 30.5239 232.835 30.5171 232.854 30.5227C232.878 30.53 232.887 30.5247 232.885 30.505C232.883 30.4872 232.902 30.4715 232.939 30.4623C233.013 30.4436 233.024 30.437 233.179 30.3157C233.25 30.2604 233.311 30.2155 233.316 30.2158C233.333 30.2168 233.404 30.1515 233.405 30.1346C233.406 30.1251 233.415 30.118 233.426 30.1186C233.436 30.1192 233.456 30.1015 233.468 30.0792C233.483 30.0546 233.502 30.0432 233.518 30.0499C233.538 30.0582 233.542 30.0506 233.535 30.0173C233.529 29.9864 233.535 29.9711 233.556 29.9651C233.573 29.9603 233.587 29.9457 233.588 29.9327C233.589 29.9196 233.608 29.892 233.63 29.8714C233.652 29.8508 233.671 29.8196 233.672 29.8021C233.673 29.7846 233.682 29.7708 233.693 29.7714C233.703 29.7721 233.712 29.7609 233.713 29.7466C233.714 29.7323 233.733 29.7083 233.755 29.6934C233.776 29.6783 233.795 29.6489 233.796 29.6279C233.799 29.5774 233.881 29.4675 233.908 29.4785C233.921 29.4844 233.928 29.4623 233.926 29.4115C233.924 29.3462 233.929 29.3361 233.96 29.338C233.993 29.3399 233.997 29.3303 233.994 29.2439C233.991 29.1579 233.995 29.147 234.03 29.1407C234.063 29.135 234.069 29.124 234.063 29.0749C234.058 29.0304 234.064 29.0138 234.087 29.007C234.11 29.0007 234.12 28.9766 234.123 28.9238C234.128 28.8361 234.145 28.796 234.176 28.7978C234.191 28.7987 234.198 28.7777 234.195 28.7373C234.191 28.686 234.197 28.6743 234.231 28.6684C234.267 28.6619 234.27 28.6527 234.265 28.5614C234.26 28.4779 234.266 28.4567 234.297 28.4313C234.343 28.3944 234.387 27.8599 234.344 27.8574C234.332 27.8566 234.317 27.8394 234.311 27.8191C234.297 27.77 234.169 27.6397 234.132 27.6375C234.116 27.6366 234.099 27.6238 234.094 27.6093C234.086 27.5878 234.042 27.5803 233.861 27.5696L233.637 27.5564L233.592 27.502C233.564 27.4682 233.529 27.4463 233.5 27.4446C233.474 27.4431 233.442 27.4305 233.428 27.4165C233.415 27.4027 233.377 27.3845 233.345 27.376C233.313 27.3677 233.283 27.3488 233.278 27.3343C233.272 27.3173 233.255 27.3106 233.231 27.3159C233.171 27.3296 233.097 27.3002 233.099 27.2633C233.101 27.2358 233.093 27.232 233.048 27.24C232.915 27.2641 232.775 27.2243 232.814 27.1733C232.822 27.1635 232.791 27.1603 232.733 27.1651C232.632 27.1731 232.299 27.1532 232.248 27.136C232.225 27.1282 232.219 27.134 232.225 27.1589C232.23 27.1822 232.22 27.1944 232.192 27.1993C232.148 27.2071 232.08 28.0002 232.123 28.0027C232.133 28.0033 232.156 28.0195 232.174 28.0387C232.191 28.058 232.231 28.0778 232.262 28.0828C232.297 28.0885 232.318 28.1019 232.317 28.1179C232.316 28.1368 232.342 28.1465 232.415 28.1548C232.506 28.165 232.514 28.1628 232.516 28.128C232.518 28.0914 232.523 28.0907 232.659 28.1093C232.778 28.1256 232.798 28.1245 232.791 28.1025C232.772 28.0496 232.902 28.0381 233.026 28.0819C233.057 28.0931 233.065 28.0893 233.065 28.0642C233.064 28.0374 233.077 28.0332 233.151 28.0384C233.226 28.0436 233.237 28.04 233.231 28.0128C233.223 27.9798 233.256 27.9739 233.366 27.9881C233.402 27.9928 233.418 27.9867 233.419 27.9683C233.42 27.9535 233.444 27.9381 233.473 27.9334C233.502 27.929 233.535 27.9197 233.546 27.9131C233.594 27.8832 233.909 27.91 233.946 27.9471C234.001 28.0014 233.99 28.2685 233.933 28.2651C233.898 28.263 233.895 28.2704 233.902 28.3487C233.912 28.4586 233.889 28.5286 233.85 28.5122C233.826 28.502 233.822 28.5126 233.829 28.5848C233.835 28.6531 233.831 28.6711 233.806 28.678C233.785 28.6842 233.775 28.7094 233.771 28.7633C233.764 28.8822 233.706 28.9455 233.682 28.8594C233.678 28.8425 233.677 28.856 233.681 28.8896C233.693 28.9941 233.685 29.0816 233.662 29.0928C233.65 29.0987 233.633 29.1238 233.625 29.1486C233.616 29.1735 233.597 29.1973 233.583 29.2014C233.566 29.2062 233.556 29.2326 233.555 29.2722C233.554 29.3158 233.543 29.3398 233.52 29.3501C233.502 29.3581 233.487 29.3817 233.487 29.4022C233.489 29.475 233.48 29.4997 233.452 29.4981C233.437 29.4971 233.423 29.5111 233.422 29.529C233.421 29.5469 233.407 29.5653 233.391 29.5698C233.375 29.5744 233.361 29.5904 233.36 29.6055C233.36 29.6206 233.327 29.6666 233.288 29.7079C233.249 29.7491 233.216 29.7903 233.216 29.7995C233.215 29.8086 233.204 29.8114 233.19 29.8057C233.172 29.7984 233.167 29.8069 233.171 29.8343C233.177 29.8762 233.091 29.9371 233.056 29.915C233.046 29.9086 233.037 29.9262 233.036 29.9552C233.033 29.9928 233.021 30.0091 232.991 30.016C232.95 30.0253 232.893 30.0686 232.835 30.1341C232.818 30.1543 232.785 30.1671 232.755 30.1653C232.727 30.1637 232.699 30.1737 232.692 30.1876C232.685 30.2014 232.657 30.2115 232.631 30.2099C232.604 30.2084 232.576 30.2189 232.569 30.2338C232.559 30.2533 232.541 30.257 232.502 30.2476C232.458 30.2368 232.448 30.2403 232.447 30.2686C232.445 30.3043 232.422 30.3091 232.317 30.2962C232.273 30.2909 232.255 30.2962 232.254 30.314C232.252 30.3524 232.202 30.359 232.106 30.3335C232.009 30.3078 231.96 30.3142 231.973 30.3508C231.984 30.3838 231.606 30.3826 231.32 30.3486C231.134 30.3264 231.113 30.3205 231.114 30.2913C231.117 30.2549 230.994 30.2367 230.928 30.2637C230.885 30.2819 230.841 30.2542 230.859 30.2192C230.872 30.1926 230.839 30.1906 230.742 30.2122C230.688 30.2242 230.622 30.1919 230.634 30.1589C230.647 30.1226 230.641 30.1203 230.59 30.1416C230.561 30.1537 230.55 30.1494 230.535 30.121C230.524 30.0998 230.498 30.084 230.47 30.0824C230.444 30.0809 230.418 30.0676 230.413 30.0531C230.408 30.0385 230.384 30.0254 230.36 30.024C230.335 30.0225 230.297 29.9985 230.271 29.9669C230.247 29.937 230.22 29.9118 230.211 29.911C230.177 29.9078 230.097 29.8177 230.099 29.7848C230.1 29.7654 230.09 29.7487 230.077 29.7476C230.051 29.7455 229.971 29.6826 229.973 29.6652C229.973 29.6592 229.949 29.6302 229.919 29.6006C229.883 29.5641 229.866 29.5299 229.869 29.4945C229.87 29.4658 229.863 29.4417 229.852 29.4411C229.841 29.4405 229.828 29.4261 229.822 29.4091C229.816 29.3921 229.789 29.3447 229.762 29.3037C229.735 29.2627 229.714 29.209 229.716 29.1843C229.717 29.1597 229.702 29.1229 229.682 29.1025C229.657 29.0765 229.65 29.0532 229.66 29.0236C229.67 28.9946 229.666 28.9781 229.647 28.97C229.609 28.9544 229.594 28.8757 229.623 28.8476C229.635 28.8353 229.642 28.8151 229.637 28.8026C229.632 28.7883 229.627 28.7912 229.625 28.81C229.616 28.8928 229.547 28.8215 229.552 28.7347C229.554 28.7091 229.544 28.6723 229.531 28.6527C229.489 28.592 229.456 28.3975 229.473 28.3205C229.488 28.2572 229.485 28.2482 229.448 28.2371C229.409 28.2256 229.407 28.2168 229.421 28.1184C229.434 28.0262 229.431 28.0107 229.402 28.0019C229.346 27.9849 229.368 27.7221 229.429 27.6801C229.477 27.647 229.795 27.6597 229.831 27.696C229.841 27.7053 229.863 27.7138 229.881 27.7148C229.899 27.7159 229.928 27.7313 229.945 27.7489C229.964 27.7686 230.008 27.7837 230.059 27.788C230.154 27.7961 230.172 27.8079 230.14 27.8399C230.12 27.8592 230.13 27.8623 230.202 27.8591C230.282 27.8557 230.288 27.8584 230.286 27.8941C230.284 27.9264 230.291 27.9311 230.327 27.9229C230.458 27.893 230.57 27.915 230.567 27.97C230.566 27.9881 230.593 27.9929 230.69 27.9915C230.807 27.9899 230.816 27.9923 230.824 28.0281C230.834 28.0751 231.007 28.0876 231.01 28.0414C231.01 28.0261 231.041 28.0126 231.087 28.0066C231.129 28.0012 231.171 27.9859 231.18 27.9725C231.19 27.9591 231.21 27.9488 231.225 27.9497C231.248 27.951 231.256 27.8898 231.276 27.5553C231.29 27.3231 231.292 27.1588 231.282 27.1582C231.272 27.1576 231.25 27.1428 231.233 27.1251C231.207 27.0989 231.163 27.0901 230.992 27.0771C230.876 27.0684 230.756 27.0547 230.723 27.0466C230.674 27.0345 230.664 27.0371 230.665 27.0623ZM236.001 31.7332C236.017 31.7498 236.062 31.7669 236.1 31.7712C236.197 31.7821 236.198 31.7824 236.196 31.8124C236.195 31.8286 236.208 31.838 236.228 31.8361C236.272 31.832 236.397 31.9484 236.395 31.9905C236.394 32.0083 236.405 32.028 236.421 32.0343C236.436 32.0407 236.448 32.0569 236.447 32.0704C236.446 32.0839 236.458 32.1001 236.474 32.1066C236.489 32.1131 236.5 32.1394 236.499 32.1662C236.497 32.1929 236.508 32.2192 236.524 32.2256C236.546 32.2348 236.549 32.2705 236.542 32.3933C236.535 32.5162 236.527 32.5511 236.504 32.5576C236.487 32.5623 236.474 32.5873 236.472 32.6157C236.47 32.6431 236.453 32.6796 236.434 32.6967C236.365 32.7581 236.348 32.7782 236.347 32.8017C236.345 32.8404 236.271 32.8838 236.229 32.8711C236.202 32.8629 236.191 32.868 236.19 32.8892C236.187 32.9323 236.046 32.9751 235.967 32.9568C235.912 32.9438 235.906 32.9461 235.912 32.976C235.922 33.0189 235.835 33.034 235.715 33.0104C235.635 32.9946 235.604 32.9564 235.659 32.9403C235.672 32.9364 235.638 32.9349 235.583 32.9369C235.52 32.9391 235.484 32.9338 235.484 32.9227C235.485 32.9129 235.464 32.8986 235.437 32.8909C235.384 32.8754 235.355 32.8543 235.296 32.7883C235.275 32.7645 235.247 32.7342 235.235 32.7212C235.222 32.7081 235.213 32.6823 235.214 32.6638C235.215 32.6446 235.2 32.6253 235.179 32.6189C235.152 32.6108 235.142 32.5932 235.145 32.5556C235.146 32.527 235.136 32.4912 235.121 32.476C235.101 32.4559 235.096 32.4092 235.103 32.3005C235.11 32.1847 235.118 32.1505 235.14 32.144C235.156 32.1395 235.171 32.1153 235.173 32.0904C235.175 32.0654 235.203 32.0195 235.236 31.9886C235.269 31.9576 235.296 31.9264 235.296 31.9194C235.297 31.9025 235.447 31.7758 235.465 31.7768C235.472 31.7772 235.492 31.7664 235.509 31.7527C235.532 31.7341 235.561 31.732 235.623 31.7441C235.689 31.7572 235.705 31.7554 235.706 31.734C235.71 31.6809 235.95 31.6803 236.001 31.7332Z" fill="#333B4C"/>
<path d="M168.693 89H168.654C167.127 89 165.777 89.7352 165 90.82C164.224 89.7352 162.873 89 161.346 89H161.308C160.162 89.0099 159.067 89.431 158.26 90.1716C157.453 90.9122 157.001 91.9125 157 92.9552C157 94.2501 157.623 96.0873 158.838 97.5991C161.154 100.48 165 103 165 103C165 103 168.847 100.48 171.161 97.5991C172.377 96.0873 173 94.2501 173 92.9552C172.999 91.9126 172.547 90.9123 171.74 90.1717C170.934 89.4311 169.838 89.0101 168.693 89ZM168.144 97.8207C167.97 97.8201 167.8 97.7717 167.657 97.6818C167.514 97.5919 167.404 97.4647 167.342 97.3169H166.429C166.369 97.3166 166.31 97.2992 166.262 97.2671C166.213 97.2351 166.176 97.19 166.157 97.1381L165.877 96.3694L164.99 99.1905C164.972 99.2448 164.936 99.2925 164.886 99.3265C164.837 99.3605 164.776 99.379 164.714 99.3791H164.696C164.631 99.3762 164.57 99.3532 164.521 99.3139C164.473 99.2746 164.441 99.2213 164.43 99.163L163.516 94.1588L162.848 97.12C162.832 97.1762 162.797 97.2262 162.746 97.2619C162.696 97.2976 162.634 97.317 162.571 97.3169H161.285C161.246 97.3184 161.208 97.3128 161.172 97.3004C161.136 97.288 161.103 97.2691 161.075 97.2448C161.047 97.2205 161.025 97.1913 161.01 97.159C160.995 97.1268 160.987 97.092 160.987 97.0569C160.987 97.0218 160.995 96.9871 161.01 96.9548C161.025 96.9225 161.047 96.8933 161.075 96.869C161.103 96.8447 161.136 96.8258 161.172 96.8134C161.208 96.801 161.246 96.7954 161.285 96.7969H162.346L163.292 92.8156C163.308 92.7567 163.345 92.7046 163.398 92.6681C163.452 92.6316 163.517 92.6131 163.583 92.6156C163.65 92.6181 163.713 92.6416 163.763 92.682C163.812 92.7223 163.845 92.7771 163.855 92.837L164.789 97.9418L165.584 95.4178C165.601 95.3646 165.636 95.3178 165.684 95.2842C165.732 95.2506 165.791 95.2322 165.852 95.2315H165.857C165.917 95.2316 165.976 95.2488 166.025 95.281C166.073 95.3131 166.11 95.3583 166.129 95.4103L166.636 96.7983H167.33C167.38 96.6617 167.47 96.5402 167.59 96.4472C167.711 96.3542 167.857 96.2932 168.013 96.2712C168.169 96.2491 168.329 96.2667 168.475 96.322C168.621 96.3774 168.747 96.4683 168.84 96.5848C168.932 96.7013 168.988 96.8388 169 96.9821C169.012 97.1255 168.981 97.2691 168.909 97.3972C168.837 97.5252 168.728 97.6327 168.593 97.7078C168.458 97.7828 168.303 97.8226 168.145 97.8226L168.144 97.8207Z" fill="#5383EC"/>
<path opacity="0.1" d="M235.819 169.72C235.819 169.72 230.36 169.952 223.851 170C223.666 168.51 223.625 167.282 223.625 167.282C223.625 167.282 227.303 162.811 234.045 167.639C234.584 168.024 235.058 168.474 235.454 168.975C235.56 169.229 235.682 169.478 235.819 169.72Z" fill="black"/>
<path d="M235.819 169.183C235.819 169.183 211.91 170.194 204.622 168.408C197.334 166.623 190.112 168.17 189.023 167.756C187.935 167.341 188.819 160.852 189.774 159.246C190.729 157.639 195.97 141.391 195.97 141.391L201.012 118.422L206.324 117.143L206.7 117.051L215.956 114.822L222.739 113.185C222.739 113.185 236.225 159.186 235.069 162.578C234.649 163.877 234.581 165.243 234.871 166.569C235.048 167.475 235.367 168.354 235.819 169.183Z" fill="#1D2366"/>
<path d="M183.434 102.714C183.434 102.714 178.658 107.185 182.274 109.677C185.891 112.169 188.269 109.915 188.269 109.915L183.434 102.714Z" fill="#C7DAF5"/>
<path opacity="0.1" d="M183.434 102.714C183.434 102.714 178.658 107.185 182.274 109.677C185.891 112.169 188.269 109.915 188.269 109.915L183.434 102.714Z" fill="black"/>
<path d="M222.025 73.3186C222.025 73.3186 221.466 73.7836 220.623 74.4691C219.422 75.4498 217.644 76.8835 216.068 78.0847C213.885 79.7449 212.083 80.964 212.728 79.9238C213.373 78.8835 213.25 77.0713 212.929 75.3752C212.905 75.262 212.885 75.1487 212.861 75.0384C212.596 73.7928 212.243 72.5625 211.807 71.3543C211.807 71.3543 215.335 67.3721 217.286 65.8013C218.013 65.2051 218.521 64.9607 218.552 65.375C218.586 65.9324 219.064 67.1635 219.657 68.469C219.675 68.5107 219.692 68.5495 219.712 68.5912C220.108 69.4854 220.555 70.4035 220.947 71.1963C221.548 72.4124 222.025 73.3186 222.025 73.3186Z" fill="#FFB0B1"/>
<path opacity="0.1" d="M219.712 68.5911C219.381 70.1489 218.576 71.6003 217.383 72.7937C216.19 73.9871 214.652 74.8786 212.929 75.3751C212.658 74.0144 212.283 72.6711 211.807 71.3542C211.807 71.3542 218.45 63.8577 218.552 65.3749C218.576 65.9502 219.095 67.2259 219.712 68.5911Z" fill="black"/>
<path opacity="0.1" d="M212.267 77.3783L213.127 76.3201C213.127 76.3201 213.697 79.3545 215.792 78.0161C217.887 76.6778 217.989 88.0879 217.989 88.0879L215.741 117.457L199.494 116.607L199.954 102.416L201.793 95.2624L206.341 84.8628L209.047 81.426L212.267 77.3783Z" fill="black"/>
<path d="M217.989 88.2696L215.942 114.825L215.727 117.638L206.669 117.164L206.327 117.147L199.504 116.789L199.965 102.595L201.803 95.4412L206.351 85.0416L209.057 81.6048L212.278 77.5422L213.137 76.487C213.137 76.487 213.707 79.5213 215.802 78.183L215.846 78.1562C217.893 77.0235 217.989 88.2696 217.989 88.2696Z" fill="#1D2366"/>
<path d="M202.032 92.9553C202.032 92.9553 201.216 94.4457 199.579 94.2042C197.941 93.9628 197.944 99.5695 197.944 99.5695C197.944 99.5695 196.856 100.464 196.105 99.6887C195.355 98.9137 193.376 101.534 193.376 101.534L180.978 102.011C180.978 102.011 186.494 104.213 185.413 110.878C185.413 110.878 204.144 109.865 204.758 108.318C205.372 106.771 202.032 92.9553 202.032 92.9553Z" fill="white"/>
<path opacity="0.03" d="M202.032 92.9553C202.032 92.9553 201.216 94.4457 199.579 94.2042C197.941 93.9628 197.944 99.5695 197.944 99.5695C197.944 99.5695 196.856 100.464 196.105 99.6887C195.355 98.9137 193.376 101.534 193.376 101.534L180.978 102.011C180.978 102.011 186.494 104.213 185.413 110.878C185.413 110.878 204.144 109.865 204.758 108.318C205.372 106.771 202.032 92.9553 202.032 92.9553Z" fill="black"/>
<path d="M166 105.513L169.269 107.951L196.174 112.89L192.837 109.915L166 105.513Z" fill="white"/>
<path d="M212.318 78.3171C211.871 78.9132 210.592 81.9654 209.524 84.6302C208.633 86.8508 207.89 88.8031 207.89 88.8031C207.89 88.8031 206.153 98.6811 205.266 100.467C204.379 102.252 204.86 109.215 204.86 109.215L201.554 126.41C201.554 126.41 200.056 135.278 197.743 140.575C195.461 145.788 192.919 148.232 192.84 148.31C193.864 147.099 199.442 123.272 199.442 123.272L201.285 93.2205C201.285 93.2205 201.554 90.365 201.827 87.9238C202.1 85.4827 207.627 82.1503 207.627 82.1503L212.956 75.5302C213.492 76.1561 213.134 77.247 212.318 78.3171Z" fill="white"/>
<path d="M198.422 116.938C198.422 116.938 190.575 116.64 186.774 112.652C182.973 108.664 195.559 111.06 195.559 111.06L198.831 111.716L198.422 116.938Z" fill="#FFB0B1"/>
<path opacity="0.1" d="M235.069 162.581C234.648 163.88 234.581 165.246 234.871 166.572C226.31 167.103 217.153 165.082 217.153 165.082C215.447 166.453 210.954 168.474 210.954 168.474L208.504 141.946C206.938 138.369 206.324 119.629 206.324 119.629C206.324 119.629 206.464 118.649 206.665 117.179C206.665 117.144 206.665 117.105 206.682 117.069C207.293 112.965 208.504 105.26 209.098 104.219C209.917 102.789 206.58 98.9822 206.58 98.9822L208.098 87.6705L208.283 86.3054C211.483 85.0565 213.936 81.0683 213.936 81.0683L215.819 78.186C217.866 77.0384 217.972 88.2845 217.972 88.2845L215.925 114.839L222.708 113.203C222.708 113.203 236.225 159.189 235.069 162.581Z" fill="black"/>
<path d="M243.853 164.414C234.522 168.462 217.562 164.712 217.562 164.712C215.856 166.083 211.363 168.104 211.363 168.104L208.91 141.576C207.347 137.999 206.733 119.26 206.733 119.26C206.733 119.26 208.705 105.277 209.524 103.85C209.763 103.432 209.647 102.812 209.363 102.145C207.971 98.9668 207.459 95.5462 207.869 92.1624L208.524 87.3009L208.705 85.9387C211.909 84.6868 214.362 80.6987 214.362 80.6987L216.068 78.0876L219.206 73.2767L220.694 70.9995L220.946 71.1992L222.874 72.7253C222.874 72.7253 223.693 73.3215 224.921 74.2157C227.593 76.1829 232.209 79.6465 234.59 81.7657C236.685 83.6316 237.347 90.8896 237.538 96.3532C237.664 99.9509 237.589 102.771 237.589 102.771C235.477 105.808 241.001 130.193 241.001 130.193C242.287 134.905 243.853 164.414 243.853 164.414Z" fill="white"/>
<path opacity="0.03" d="M225.942 80.639C225.942 80.639 219.538 91.289 220.282 95.3368C221.026 99.3846 223.141 103.966 222.121 105.036C221.771 105.441 221.317 105.77 220.797 105.997C220.277 106.224 219.704 106.343 219.122 106.344C218.098 106.404 215.369 108.07 215.369 108.249C215.369 108.428 212.848 108.428 210.593 109.263C208.337 110.097 205.007 110.571 205.007 110.571C205.007 110.571 198.525 110.392 197.921 110.929C197.317 111.465 196.696 114.675 197.989 117.236C199.282 119.796 200.719 121.707 201.804 122.056C202.889 122.404 209.774 120.389 215.359 119.913C220.944 119.436 227.007 115.57 227.007 115.57C227.007 115.57 233.684 113.483 234.854 109.975C236.024 106.467 233.424 87.1846 233.424 87.1846C233.424 87.1846 231.459 78.1979 225.942 80.639Z" fill="black"/>
<path opacity="0.03" d="M225.123 79.7448C225.123 79.7448 218.719 90.3978 219.469 94.4425C220.22 98.4873 222.329 103.072 221.305 104.145C220.956 104.551 220.503 104.88 219.984 105.107C219.464 105.334 218.891 105.453 218.309 105.453C217.286 105.513 214.556 107.179 214.556 107.358C214.556 107.537 212.035 107.537 209.78 108.368C207.525 109.2 204.195 109.677 204.195 109.677C204.195 109.677 197.712 109.498 197.112 110.035C196.511 110.571 195.884 113.784 197.18 116.342C198.477 118.899 199.91 120.813 200.995 121.161C202.08 121.51 208.965 119.495 214.55 119.021C220.135 118.547 226.198 114.675 226.198 114.675C226.198 114.675 232.871 112.589 234.028 109.084C235.184 105.578 232.598 86.2904 232.598 86.2904C232.598 86.2904 230.64 77.3066 225.123 79.7448Z" fill="black"/>
<path d="M225.741 80.1026C225.741 80.1026 219.337 90.7555 220.087 94.8003C220.838 98.8451 222.946 103.429 221.926 104.499C221.577 104.906 221.124 105.237 220.604 105.464C220.083 105.692 219.509 105.81 218.927 105.811C217.904 105.871 215.174 107.537 215.174 107.713C215.174 107.888 212.656 107.891 210.398 108.726C208.139 109.561 204.813 110.035 204.813 110.035C204.813 110.035 198.33 109.856 197.726 110.392C197.122 110.929 196.501 114.142 197.795 116.699C199.088 119.257 200.524 121.17 201.609 121.519C202.694 121.868 209.579 119.853 215.164 119.376C220.749 118.899 226.812 115.033 226.812 115.033C226.812 115.033 233.489 112.947 234.659 109.438C235.829 105.93 233.247 86.6481 233.247 86.6481C233.247 86.6481 231.254 77.6763 225.741 80.1026Z" fill="white"/>
<path opacity="0.1" d="M225.601 108.675C225.601 108.675 220.483 107.781 222.264 109.271C224.045 110.762 224.035 112.067 226.215 112.008C228.395 111.948 225.601 108.675 225.601 108.675Z" fill="black"/>
<path opacity="0.1" d="M234.25 140.742C234.25 140.742 231.937 142.11 236.362 145.263C240.787 148.417 234.25 140.742 234.25 140.742Z" fill="black"/>
<path opacity="0.1" d="M229.835 151.988C229.835 152.167 229.016 158.545 232.08 160.14C235.143 161.735 229.835 151.988 229.835 151.988Z" fill="black"/>
<path d="M181.19 101.996C178.72 102.07 173.384 102.729 176.151 107.239C178.597 111.23 182.708 108.562 185.021 106.538C184.457 104.651 183.086 103.025 181.19 101.996Z" fill="#FFB0B1"/>
<path d="M185.052 106.501L185.154 106.41L185.052 106.501Z" fill="#FFB0B1"/>
<path opacity="0.1" d="M224.922 74.3976C222.301 75.9625 220.104 77.2829 219.674 77.5571C218.501 78.3172 216.262 82.7793 214.819 85.0565C213.669 86.8896 209.933 87.3606 208.524 87.4768L208.705 86.1147C211.909 84.8628 214.362 80.8746 214.362 80.8746L220.694 71.1755L222.874 72.9073C222.874 72.9073 223.693 73.5034 224.922 74.3976Z" fill="black"/>
<path d="M224.922 74.2187C222.301 75.7836 220.104 77.104 219.674 77.3812C218.501 78.1383 216.262 82.6004 214.819 84.8776C213.669 86.7107 209.933 87.1817 208.524 87.2979L208.705 85.9358C211.909 84.6839 214.362 80.6957 214.362 80.6957L220.694 70.9966L222.874 72.7224C222.874 72.7224 223.693 73.3126 224.922 74.2187Z" fill="#DCE7FF"/>
<path d="M219.879 66.6238C219.881 68.4131 219.26 70.1605 218.098 71.6343C216.727 73.3769 214.686 74.6323 212.345 75.1726C210.005 75.713 207.521 75.5024 205.343 74.5793C203.165 73.6562 201.438 72.0816 200.475 70.1412C199.513 68.2008 199.378 66.0232 200.096 64.0035C200.814 61.9839 202.337 60.2559 204.388 59.1332C206.439 58.0106 208.883 57.5675 211.277 57.8845C213.67 58.2015 215.854 59.2575 217.432 60.8609C219.011 62.4644 219.879 64.509 219.879 66.6238Z" fill="#FFB0B1"/>
<path opacity="0.1" d="M237.538 96.3562C236.153 95.6116 235.025 94.5526 234.273 93.292C233.704 92.3084 233.325 91.1727 232.353 90.4753C231.476 89.8493 230.305 89.6973 229.214 89.4171C225.624 88.4901 222.615 85.6287 222.503 82.3618C222.448 80.8238 222.997 79.2888 222.748 77.7656C222.607 76.9036 222.214 76.0877 221.609 75.396C221.308 75.0652 220.978 74.7552 220.623 74.469C220.145 74.0755 219.644 73.694 219.207 73.2767C218.932 73.0183 218.691 72.7333 218.49 72.4272C218.328 72.1767 218.197 71.912 218.098 71.6373C217.416 69.8132 218.037 67.6492 217.286 65.8041L217.245 65.7028C216.962 65.047 216.385 64.3913 215.584 64.3406C214.782 64.29 214.096 64.8712 213.332 65.1305C211.732 65.673 210.005 64.749 208.671 63.8071C207.337 62.8652 205.833 61.7892 204.137 61.9978C203.014 62.1379 202.127 62.8056 201.094 63.1513C200.86 63.2303 200.619 63.2911 200.374 63.3332C201.249 61.427 202.856 59.8466 204.92 58.8634C206.984 57.8801 209.375 57.5555 211.683 57.9452C213.991 58.3349 216.071 59.4147 217.567 60.999C219.063 62.5833 219.88 64.5732 219.879 66.6268C219.88 67.247 219.806 67.8654 219.657 68.4719C219.674 68.5136 219.691 68.5523 219.712 68.5941C220.108 69.4883 220.555 70.4063 220.947 71.1992L222.875 72.7253C222.875 72.7253 223.693 73.3214 224.922 74.2156C227.593 76.1829 232.209 79.6464 234.591 81.7657C236.686 83.6376 237.341 90.8926 237.538 96.3562Z" fill="black"/>
<path d="M200.974 57.7057C201.462 56.8383 201.704 55.8666 202.287 55.0439C203.144 53.8517 204.638 53.0886 206.174 52.6266C210.182 51.4194 218.654 49.6668 221.185 52.6266C221.684 53.2227 222.096 53.8844 222.786 54.2958C223.311 54.6087 223.946 54.7429 224.522 54.9784C226.136 55.6401 227.166 57.0827 227.716 58.5552C228.265 60.0276 228.429 61.6074 228.831 63.1246C229.346 65.0709 230.251 66.916 231.151 68.7491C232.212 70.9131 233.338 73.1576 235.385 74.6866C238.18 76.7731 238.797 79.727 241.39 82.0161C244.461 84.7345 244.362 89.2205 242.779 92.7824C242.571 93.2503 242.335 93.7392 242.417 94.237C242.499 94.7347 242.922 95.1878 243.321 95.5842L245 97.2385C241.028 98.0761 236.535 96.2638 234.686 93.0834C234.116 92.0998 233.737 90.9671 232.762 90.2667C231.888 89.6407 230.715 89.4917 229.626 89.2115C226.037 88.2816 223.028 85.4171 222.915 82.1503C222.861 80.6152 223.41 79.0802 223.161 77.56C223.022 76.6922 222.628 75.8706 222.018 75.1755C221.08 74.1054 219.664 73.3871 218.9 72.1948C217.606 70.2007 218.589 67.6105 217.658 65.4704C217.371 64.8146 216.798 64.1589 215.996 64.1082C215.194 64.0575 214.509 64.6388 213.741 64.8981C212.144 65.4406 210.418 64.5195 209.084 63.5746C207.75 62.6298 206.245 61.5567 204.546 61.7684C203.424 61.9055 202.54 62.5731 201.506 62.9219C200.742 63.1782 199.193 63.4077 198.524 62.8444C197.112 61.7087 200.384 58.7668 200.974 57.7057Z" fill="#591D4B"/>
<path opacity="0.1" d="M235.635 92.0998C235.062 91.1161 234.686 89.9835 233.71 89.286C232.837 88.66 231.663 88.508 230.572 88.2278C226.986 87.3008 223.977 84.4364 223.861 81.1696C223.806 79.6345 224.355 78.0965 224.11 76.5763C223.967 75.7141 223.573 74.8983 222.967 74.2067C222.025 73.1366 220.609 72.4183 219.848 71.226C218.555 69.2349 219.538 66.6447 218.603 64.5016C218.32 63.8488 217.743 63.1931 216.945 63.1394C216.146 63.0858 215.454 63.673 214.69 63.9323C213.093 64.4748 211.363 63.5507 210.033 62.6089C208.702 61.667 207.191 60.5909 205.495 60.7996C204.372 60.9397 203.485 61.6073 202.455 61.9531C201.691 62.2094 200.138 62.4419 199.47 61.8786C198.064 60.6863 201.336 57.7503 201.923 56.6952C202.411 55.8248 202.653 54.8561 203.24 54.0334C203.27 53.9887 203.304 53.944 203.339 53.8993C202.9 54.217 202.521 54.5932 202.216 55.0141C201.633 55.8367 201.39 56.8025 200.903 57.6758C200.312 58.731 197.04 61.6759 198.45 62.8592C199.132 63.4256 200.667 63.1931 201.431 62.9367C202.455 62.588 203.349 61.9203 204.471 61.7832C206.177 61.5716 207.678 62.6476 209.009 63.5895C210.34 64.5314 212.08 65.4554 213.67 64.9129C214.434 64.6536 215.102 64.0694 215.921 64.123C216.74 64.1767 217.286 64.8295 217.583 65.4852C218.514 67.6253 217.532 70.2156 218.825 72.2096C219.589 73.381 221.005 74.1143 221.943 75.1903C222.554 75.8855 222.948 76.7071 223.086 77.5749C223.335 79.095 222.786 80.6301 222.84 82.1651C222.953 85.4439 225.962 88.2964 229.551 89.2264C230.633 89.5065 231.813 89.6556 232.687 90.2815C233.666 90.982 234.052 92.1146 234.611 93.0983C236.46 96.2787 240.954 98.0909 244.925 97.2533L244.134 96.4724C240.691 96.5171 237.208 94.8062 235.635 92.0998Z" fill="black"/>
<path d="M301.634 269.937C301.676 264.448 300.541 259.013 298.305 254C293.615 257.366 289.75 261.752 287 266.828C284.25 261.752 280.385 257.366 275.695 254C273.459 259.013 272.324 264.448 272.366 269.937C267.635 267.293 262.398 265.68 257 265.202C257 265.202 258.012 277.598 266.296 285.663C273.662 292.833 284.297 294.164 286.564 294.371L286.628 294.414L286.645 294.378C286.875 294.398 287 294.405 287 294.405C287 294.405 286.981 294.171 286.927 293.748C286.95 293.693 286.974 293.635 287 293.575C287.026 293.635 287.05 293.693 287.073 293.748C287.019 294.171 287 294.405 287 294.405C287 294.405 287.125 294.398 287.355 294.378L287.372 294.414L287.436 294.371C289.703 294.164 300.338 292.833 307.704 285.663C315.988 277.598 317 265.202 317 265.202C311.602 265.68 306.365 267.293 301.634 269.937Z" fill="#536DFE"/>
<defs>
<filter id="filter0_d" x="219.617" y="21.9438" width="18.7398" height="16.878" filterUnits="userSpaceOnUse" color-interpolation-filters="sRGB">
<feFlood flood-opacity="0" result="BackgroundImageFix"/>
<feColorMatrix in="SourceAlpha" type="matrix" values="0 0 0 0 0 0 0 0 0 0 0 0 0 0 0 0 0 0 127 0"/>
<feOffset dy="4"/>
<feGaussianBlur stdDeviation="2.5"/>
<feColorMatrix type="matrix" values="0 0 0 0 0 0 0 0 0 0 0 0 0 0 0 0 0 0 0.88 0"/>
<feBlend mode="normal" in2="BackgroundImageFix" result="effect1_dropShadow"/>
<feBlend mode="normal" in="SourceGraphic" in2="effect1_dropShadow" result="shape"/>
</filter>
<linearGradient id="paint0_linear" x1="224.618" y1="26.1342" x2="233.356" y2="26.6232" gradientUnits="userSpaceOnUse">
<stop offset="0.213542" stop-color="#09AEF4"/>
<stop offset="0.286458" stop-color="#09AEF4"/>
<stop offset="0.380208" stop-color="#09AEF4"/>
<stop offset="0.59375" stop-color="#DBFEE7"/>
<stop offset="0.723958" stop-color="white"/>
<stop offset="0.859375" stop-color="#FAFFFC"/>
<stop offset="0.942708" stop-color="#FAFFFC"/>
<stop offset="0.9998" stop-color="white"/>
</linearGradient>
</defs>
</svg>
