<svg width="250" height="222" viewBox="0 0 250 222" fill="none" xmlns="http://www.w3.org/2000/svg">
<g clip-path="url(#clip0)">
<path d="M229.167 33.2998H20.8333C9.33333 33.3118 0.0135417 41.5878 0 51.7998V170.2C0.0135417 180.412 9.33333 188.688 20.8333 188.7H229.167C230.336 188.704 231.503 188.613 232.654 188.43C242.68 186.939 250.019 179.226 250 170.2V51.7998C249.986 41.5873 240.667 33.3118 229.167 33.2998ZM20.8333 181.3C14.3568 181.299 8.95312 176.906 8.38333 171.177L91.4583 122.943L175.942 181.3H20.8333ZM241.667 170.2C241.673 175.63 237.244 180.264 231.208 181.141C230.534 181.248 229.851 181.302 229.167 181.3H189.512L134.308 143.149L183.675 108.095L241.667 138.994V170.2ZM241.667 130.366L185.479 100.429C183.985 99.6311 182.091 99.7435 180.729 100.71L127.533 138.487L94.2208 115.48C92.8172 114.512 90.8766 114.44 89.3875 115.303L8.33333 162.363V51.7998C8.33333 45.6694 13.9297 40.6998 20.8333 40.6998H229.167C236.07 40.6998 241.667 45.6694 241.667 51.7998V130.366Z" fill="#8C92A4"/>
<path d="M125 55.5C111.193 55.5 100 65.4391 100 77.7C100.014 89.9558 111.198 99.888 125 99.9C138.807 99.9 150 89.9609 150 77.7C150 65.4391 138.807 55.5 125 55.5ZM125 92.5C115.795 92.5 108.333 85.8738 108.333 77.7C108.333 69.5262 115.795 62.9 125 62.9C134.205 62.9 141.667 69.5262 141.667 77.7C141.667 85.8738 134.205 92.5 125 92.5Z" fill="#8C92A4"/>
</g>
<defs>
<clipPath id="clip0">
<rect width="250" height="222" fill="white"/>
</clipPath>
</defs>
</svg>
