<?xml version="1.0" standalone="no"?>
<!DOCTYPE svg PUBLIC "-//W3C//DTD SVG 1.1//EN" "http://www.w3.org/Graphics/SVG/1.1/DTD/svg11.dtd" >
<svg xmlns="http://www.w3.org/2000/svg">
<metadata>Generated by IcoMoon</metadata>
<defs>
<font id="icomoon" horiz-adv-x="1024">
<font-face units-per-em="1024" ascent="960" descent="-64" />
<missing-glyph horiz-adv-x="1024" />
<glyph unicode="&#x20;" horiz-adv-x="512" d="" />
<glyph unicode="&#xe900;" glyph-name="bell" d="M938 495.703c-23.555 0-42.664 19.109-42.664 42.664 0 119.68-46.594 232.148-131.203 316.805-16.68 16.68-16.68 43.641 0 60.328 16.68 16.68 43.648 16.68 60.328 0 100.742-100.734 156.203-234.672 156.203-377.133 0-23.555-19.109-42.664-42.664-42.664zM84.664 495.703c-23.547 0-42.664 19.109-42.664 42.664 0 142.461 55.469 276.398 156.203 377.133 16.68 16.68 43.648 16.68 60.328 0 16.688-16.688 16.688-43.648 0-60.328-84.609-84.609-131.195-197.125-131.195-316.805 0-23.555-19.117-42.664-42.672-42.664zM911.508 238.375c-64.516 54.531-101.508 134.234-101.508 218.672v118.953c0 150.141-111.531 274.43-256 295.25v46.086c0 23.594-19.117 42.664-42.664 42.664-23.555 0-42.672-19.070-42.672-42.664v-46.086c-144.508-20.82-256-145.109-256-295.25v-118.953c0-84.438-36.992-164.141-101.883-219.008-16.602-14.211-26.117-34.859-26.117-56.703 0-41.18 33.492-74.672 74.672-74.672h704c41.172 0 74.664 33.492 74.664 74.672 0 21.844-9.516 42.492-26.492 57.039zM511.336-64c77.266 0 141.906 55.086 156.758 128h-313.516c14.844-72.914 79.484-128 156.758-128z" />
<glyph unicode="&#xe901;" d="M816 832c35.36 0 64-28.64 64-64v-634.27c0-35.36-28.64-64-64-64h-704c-35.36 0-64 28.64-64 64v634.27c0 35.36 28.64 64 64 64z" />
<glyph unicode="&#xe902;" d="M112 69.73h704c35.36 0 64 28.641 64 64v346.27c-151.417-165.659-407.585-287.53-832-310.283v-35.986c0-35.359 28.64-64 64-64z" />
<glyph unicode="&#xe903;" d="M992 144c0-97.202-78.798-176-176-176s-176 78.798-176 176c0 97.202 78.798 176 176 176s176-78.798 176-176z" />
<glyph unicode="&#xe904;" d="M921.465 284.661c22.088-29.413 35.335-65.846 35.335-105.461 0-97.202-78.798-176-176-176-39.616 0-76.048 13.248-105.462 35.337 32.109-42.755 83.077-70.537 140.662-70.537 97.202 0 176 78.798 176 176 0 57.586-27.781 108.552-70.535 140.661z" />
<glyph unicode="&#xe905;" d="M880 672h-832v96c0 35.346 28.654 64 64 64h704c35.346 0 64-28.654 64-64z" />
<glyph unicode="&#xe906;" d="M192 752c-17.673 0-32 14.327-32 32v96c0 17.673 14.327 32 32 32s32-14.327 32-32v-96c0-17.673-14.327-32-32-32z" />
<glyph unicode="&#xe907;" d="M368 752c-17.673 0-32 14.327-32 32v96c0 17.673 14.327 32 32 32s32-14.327 32-32v-96c0-17.673-14.327-32-32-32z" />
<glyph unicode="&#xe908;" d="M560 752c-17.673 0-32 14.327-32 32v96c0 17.673 14.327 32 32 32s32-14.327 32-32v-96c0-17.673-14.327-32-32-32z" />
<glyph unicode="&#xe909;" d="M736 752c-17.673 0-32 14.327-32 32v96c0 17.673 14.327 32 32 32s32-14.327 32-32v-96c0-17.673-14.327-32-32-32z" />
<glyph unicode="&#xe90a;" d="M144 592h96v-96h-96z" />
<glyph unicode="&#xe90b;" d="M320 592h96v-96h-96z" />
<glyph unicode="&#xe90c;" d="M496 592h96v-96h-96z" />
<glyph unicode="&#xe90d;" d="M672 592h96v-96h-96z" />
<glyph unicode="&#xe90e;" d="M144 416h96v-96h-96z" />
<glyph unicode="&#xe90f;" d="M320 416h96v-96h-96z" />
<glyph unicode="&#xe910;" d="M496 416h96v-96h-96z" />
<glyph unicode="&#xe911;" d="M672 416h96v-96h-96z" />
<glyph unicode="&#xe912;" d="M144 240h96v-96h-96z" />
<glyph unicode="&#xe913;" d="M320 240h96v-96h-96z" />
<glyph unicode="&#xe914;" d="M496 240h96v-96h-96z" />
<glyph unicode="&#xe915;" d="M896 318.315v449.685c0 44.109-35.891 80-80 80h-32v32c0 26.469-21.531 48-48 48s-48-21.531-48-48v-32h-80v32c0 26.469-21.531 48-48 48s-48-21.531-48-48v-32h-96v32c0 26.469-21.531 48-48 48s-48-21.531-48-48v-32h-80v32c0 26.469-21.531 48-48 48s-48-21.531-48-48v-32h-32c-44.109 0-80-35.891-80-80v-640c0-44.109 35.891-80 80-80h537.976c33.259-57.293 95.139-96 166.024-96 105.875 0 192 86.125 192 192 0 77.303-46.010 143.905-112 174.315zM720 880c0 8.828 7.172 16 16 16s16-7.172 16-16v-96c0-8.828-7.172-16-16-16s-16 7.172-16 16zM544 880c0 8.828 7.172 16 16 16s16-7.172 16-16v-96c0-8.828-7.172-16-16-16s-16 7.172-16 16zM352 880c0 8.828 7.172 16 16 16s16-7.172 16-16v-96c0-8.828-7.172-16-16-16s-16 7.172-16 16zM176 880c0 8.828 7.172 16 16 16s16-7.172 16-16v-96c0-8.828-7.172-16-16-16s-16 7.172-16 16zM112 816h32v-32c0-26.469 21.531-48 48-48s48 21.531 48 48v32h80v-32c0-26.469 21.531-48 48-48s48 21.531 48 48v32h96v-32c0-26.469 21.531-48 48-48s48 21.531 48 48v32h80v-32c0-26.469 21.531-48 48-48s48 21.531 48 48v32h32c26.469 0 48-21.531 48-48v-80h-800v80c0 26.469 21.531 48 48 48zM112 80c-26.469 0-48 21.531-48 48v528h800v-326.317c-15.373 3.979-31.399 6.317-48 6.317-10.925 0-21.569-1.129-32-2.89v82.89c0 8.844-7.156 16-16 16h-96c-8.844 0-16-7.156-16-16v-96c0-8.844 7.156-16 16-16h38.094c-51.826-34.417-86.094-93.255-86.094-160 0-22.466 4.079-43.946 11.2-64zM752 336h-64v64h64zM816-16c-88.219 0-160 71.781-160 160s71.781 160 160 160 160-71.781 160-160-71.781-160-160-160z" />
<glyph unicode="&#xe916;" d="M832 171.562v100.438h-32v-100.438c-9.524-5.543-16-15.746-16-27.562 0-1.62 0.244-3.174 0.477-4.728l-58.477-46.772 20-25 58.426 46.741c3.599-1.401 7.48-2.241 11.574-2.241 17.673 0 32 14.327 32 32 0 11.815-6.476 22.019-16 27.562z" />
<glyph unicode="&#xe917;" d="M240 608h-96c-8.844 0-16-7.156-16-16v-96c0-8.844 7.156-16 16-16h96c8.844 0 16 7.156 16 16v96c0 8.844-7.156 16-16 16zM224 512h-64v64h64z" />
<glyph unicode="&#xe918;" d="M416 608h-96c-8.844 0-16-7.156-16-16v-96c0-8.844 7.156-16 16-16h96c8.844 0 16 7.156 16 16v96c0 8.844-7.156 16-16 16zM400 512h-64v64h64z" />
<glyph unicode="&#xe919;" d="M592 608h-96c-8.844 0-16-7.156-16-16v-96c0-8.844 7.156-16 16-16h96c8.844 0 16 7.156 16 16v96c0 8.844-7.156 16-16 16zM576 512h-64v64h64z" />
<glyph unicode="&#xe91a;" d="M672 480h96c8.844 0 16 7.156 16 16v96c0 8.844-7.156 16-16 16h-96c-8.844 0-16-7.156-16-16v-96c0-8.844 7.156-16 16-16zM688 576h64v-64h-64z" />
<glyph unicode="&#xe91b;" d="M240 432h-96c-8.844 0-16-7.156-16-16v-96c0-8.844 7.156-16 16-16h96c8.844 0 16 7.156 16 16v96c0 8.844-7.156 16-16 16zM224 336h-64v64h64z" />
<glyph unicode="&#xe91c;" d="M416 432h-96c-8.844 0-16-7.156-16-16v-96c0-8.844 7.156-16 16-16h96c8.844 0 16 7.156 16 16v96c0 8.844-7.156 16-16 16zM400 336h-64v64h64z" />
<glyph unicode="&#xe91d;" d="M592 432h-96c-8.844 0-16-7.156-16-16v-96c0-8.844 7.156-16 16-16h96c8.844 0 16 7.156 16 16v96c0 8.844-7.156 16-16 16zM576 336h-64v64h64z" />
<glyph unicode="&#xe91e;" d="M240 256h-96c-8.844 0-16-7.156-16-16v-96c0-8.844 7.156-16 16-16h96c8.844 0 16 7.156 16 16v96c0 8.844-7.156 16-16 16zM224 160h-64v64h64z" />
<glyph unicode="&#xe91f;" d="M416 256h-96c-8.844 0-16-7.156-16-16v-96c0-8.844 7.156-16 16-16h96c8.844 0 16 7.156 16 16v96c0 8.844-7.156 16-16 16zM400 160h-64v64h64z" />
<glyph unicode="&#xe920;" d="M592 256h-96c-8.844 0-16-7.156-16-16v-96c0-8.844 7.156-16 16-16h96c8.844 0 16 7.156 16 16v96c0 8.844-7.156 16-16 16zM576 160h-64v64h64z" />
<glyph unicode="&#xe921;" glyph-name="call" d="M941.835 287.861c-62.693 0-124.251 9.805-182.584 29.083-28.584 9.749-63.723 0.805-81.168-17.112l-115.139-86.917c-133.528 71.277-215.779 153.501-286.083 286.027l84.36 112.139c21.917 21.888 29.779 53.861 20.36 83.861-19.36 58.64-29.195 120.168-29.195 182.888 0.003 45.309-36.859 82.171-82.165 82.171h-188.053c-45.307 0-82.168-36.861-82.168-82.168 0-519.333 422.501-941.832 941.835-941.832 45.307 0 82.168 36.861 82.168 82.168v187.528c-0.003 45.304-36.864 82.165-82.168 82.165z" />
<glyph unicode="&#xe922;" glyph-name="chat" d="M224.561 852.211c-4.078 0-8.048 1.383-11.228 3.934l-89.825 71.86c-7.743 6.198-9 17.516-2.803 25.259s17.516 9 25.259 2.803l89.825-71.86c5.964-4.761 8.264-12.773 5.731-19.977s-9.324-12.019-16.959-12.019zM799.439 852.211c-7.635 0-14.426 4.815-16.959 12.019s-0.234 15.216 5.731 19.977l89.825 71.86c7.743 6.198 19.061 4.94 25.259-2.803s4.94-19.061-2.803-25.259l-89.825-71.86c-3.18-2.551-7.15-3.934-11.228-3.934zM889.263 744.421h-110.484c12.432-86.375-18.486-173.325-82.639-232.466-38.050-36.81-59.194-87.723-58.386-140.665v-111.921c-0.108-32.678-22.259-61.171-53.895-69.345v-20.48c0-9.917-8.048-17.965-17.965-17.965s-17.965 8.048-17.965 17.965v17.965h-71.86v-17.965c0-9.917-8.048-17.965-17.965-17.965s-17.965 8.048-17.965 17.965v20.48c-31.636 8.174-53.787 36.666-53.895 69.345v108.867c0.79 54.362-20.696 106.676-59.464 144.797-60.075 56.661-90.759 137.827-83.178 220.070 0.359 3.773 1.078 7.545 1.617 11.318h-110.484c-29.732-0.090-53.805-24.163-53.895-53.895v-485.053c0.090-29.732 24.163-53.805 53.895-53.895h179.649c16.941-0.108 32.858-8.084 43.116-21.558l141.204-188.272c3.683-3.521 8.623-5.425 13.707-5.282 5.102 0.144 9.917 2.3 13.42 6l140.665 187.554c10.258 13.474 26.175 21.45 43.116 21.558h179.649c29.732 0.090 53.805 24.163 53.895 53.895v485.053c-0.090 29.732-24.163 53.805-53.895 53.895zM134.737 690.526h53.895c9.917 0 17.965-8.048 17.965-17.965s-8.048-17.965-17.965-17.965h-53.895c-9.917 0-17.965 8.048-17.965 17.965s8.048 17.965 17.965 17.965zM235.7 407.040l-89.825-71.86c-3.126-2.587-7.078-3.988-11.138-3.952-5.461 0.018-10.617 2.533-14.013 6.827-3.018 3.683-4.419 8.444-3.88 13.186s2.982 9.054 6.755 11.965l89.825 71.86c4.94 4.653 12.072 6.144 18.45 3.827s10.905-8.012 11.731-14.749c0.79-6.737-2.264-13.348-7.905-17.103zM903.276 338.055c-3.395-4.294-8.551-6.809-14.013-6.827-4.060-0.036-8.012 1.365-11.138 3.952l-89.825 71.86c-6.791 6.413-7.545 16.941-1.725 24.235 5.803 7.312 16.24 8.947 24.001 3.791l89.825-71.86c3.773-2.91 6.216-7.222 6.755-11.965s-0.862-9.503-3.88-13.186zM889.263 654.596h-53.895c-9.917 0-17.965 8.048-17.965 17.965s8.048 17.965 17.965 17.965h53.895c9.917 0 17.965-8.048 17.965-17.965s-8.048-17.965-17.965-17.965zM673.145 877.541c-60.29 58.224-147.187 79.656-227.633 56.158s-142.138-88.351-161.594-169.894 6.306-167.235 67.476-224.543c46.008-44.912 71.59-106.73 70.782-171.026v-19.043h179.649v22.097c-0.808 62.877 24.414 123.275 69.704 166.894 46.924 43.852 73.71 105.113 74.015 169.337s-25.887 125.736-72.399 170.020zM446.967 853.648c-0.719-0.359-66.111-28.564-79.046-94.675-1.635-8.444-9.018-14.534-17.606-14.552-1.15 0.036-2.282 0.144-3.413 0.359-4.671 0.88-8.803 3.611-11.48 7.545s-3.647 8.803-2.713 13.474c12.611 53.895 49.889 98.699 100.604 120.904 6.036 3.198 13.366 2.695 18.917-1.293s8.354-10.779 7.24-17.516c-1.132-6.737-5.964-12.252-12.504-14.246zM494.035 403.088c0-9.917-8.048-17.965-17.965-17.965s-17.965 8.048-17.965 17.965v53.895c0 9.917 8.048 17.965 17.965 17.965s17.965-8.048 17.965-17.965zM494.035 546.807c0-9.917-8.048-17.965-17.965-17.965s-17.965 8.048-17.965 17.965v17.965c0 9.917 8.048 17.965 17.965 17.965s17.965-8.048 17.965-17.965zM565.895 403.088c0-9.917-8.048-17.965-17.965-17.965s-17.965 8.048-17.965 17.965v53.895c0 9.917 8.048 17.965 17.965 17.965s17.965-8.048 17.965-17.965zM565.895 546.807c0-9.917-8.048-17.965-17.965-17.965s-17.965 8.048-17.965 17.965v17.965c0 9.917 8.048 17.965 17.965 17.965s17.965-8.048 17.965-17.965zM422.175 313.263v-53.895c0.054-19.815 16.115-35.876 35.93-35.93h107.789c19.815 0.054 35.876 16.115 35.93 35.93v53.895z" />
<glyph unicode="&#xe923;" d="M974.324-64h-102.234v152.854h18.75c54.514-0.112 98.674-44.338 98.674-98.88v-38.784c0-8.39-6.8-15.19-15.19-15.19z" />
<glyph unicode="&#xe924;" d="M49.676-64h102.234v152.854h-18.544c-0.064 0-0.13 0-0.194 0-54.52-0.106-98.686-44.334-98.686-98.88v-38.784c0-8.39 6.8-15.19 15.19-15.19z" />
<glyph unicode="&#xe925;" d="M863.882 301.31h-55.222c-8.536 0-15.452 6.918-15.452 15.452s6.918 15.452 15.452 15.452h55.224c14.382 0 26.084 11.702 26.084 26.084v100.846c0 8.536 6.918 15.452 15.452 15.452s15.452-6.918 15.452-15.452v-100.846c0-31.422-25.564-56.988-56.99-56.988z" />
<glyph unicode="&#xe926;" d="M146.426 505.1c-8.534 0-15.452 6.918-15.452 15.452v391.36c0 8.536 6.918 15.452 15.452 15.452s15.452-6.918 15.452-15.452v-391.36c0.002-8.534-6.918-15.452-15.452-15.452z" />
<glyph unicode="&#xe927;" d="M877.574 524.486c-8.536 0-15.452 6.918-15.452 15.452v124.492c0 107.148-87.174 194.322-194.322 194.322h-311.598c-107.15 0-194.322-87.174-194.322-194.322v-124.492c0-8.536-6.918-15.452-15.452-15.452s-15.452 6.918-15.452 15.452v124.492c0 124.192 101.036 225.228 225.228 225.228h311.598c124.192 0 225.228-101.036 225.228-225.228v-124.492c-0.004-8.534-6.922-15.452-15.456-15.452z" />
<glyph unicode="&#xe928;" d="M229.626 427.248h-94.516c-17.616 0-31.896 14.28-31.896 31.896v116.958c0 17.616 14.28 31.896 31.896 31.896h94.518v-180.75z" />
<glyph unicode="&#xe929;" d="M794.374 427.248h94.518c17.616 0 31.896 14.28 31.896 31.896v116.958c0 17.616-14.28 31.896-31.896 31.896h-94.518z" />
<glyph unicode="&#xe92a;" d="M395.438 311.544h233.124v-277.272h-233.124z" />
<glyph unicode="&#xe92b;" d="M690.378 374.154v291.838c0 46.354-21.5 87.684-55.070 114.566-1.138-0.048-2.296-0.074-3.472-0.074h-239.672c-24.238 0-40.494 10.334-50.672 26.834-0.524 0.848-1.484 1.342-2.474 1.224-72.048-8.498-127.936-69.778-127.936-144.11v-288.708c0-79.574 64.508-144.080 144.080-144.080h219.76c65.95 13.902 115.456 72.424 115.456 142.51z" />
<glyph unicode="&#xe92c;" d="M667.798 809.552h-134.61c80.146 0 145.118-64.972 145.118-145.118v-288.708c0-79.574-64.508-144.080-144.080-144.080h134.61c79.574 0 144.080 64.508 144.080 144.080v288.708c0 80.146-64.97 145.118-145.118 145.118z" />
<glyph unicode="&#xe92d;" d="M803.116 280.828h-72.55c-19.846 0-35.936 16.088-35.936 35.936 0 19.846 16.088 35.936 35.936 35.936h72.55c19.846 0 35.936-16.088 35.936-35.936s-16.088-35.936-35.936-35.936z" />
<glyph unicode="&#xe92e;" d="M690.378 665.992c0 0.234-0.002 0.468-0.002 0.702h-372.426c-25.916 0-46.924-21.008-46.924-46.924v-159.662c0-25.916 21.008-46.924 46.924-46.924h372.428z" />
<glyph unicode="&#xe92f;" d="M678.306 664.434v-251.248h27.744c25.914 0 46.924 21.008 46.924 46.924v159.662c0 25.916-21.008 46.924-46.924 46.924h-27.802c0.012-0.756 0.058-1.504 0.058-2.262z" />
<glyph unicode="&#xe930;" d="M438.492 539.94c0-24.927-20.207-45.134-45.134-45.134s-45.134 20.207-45.134 45.134c0 24.927 20.207 45.134 45.134 45.134s45.134-20.207 45.134-45.134z" />
<glyph unicode="&#xe931;" d="M675.776 539.94c0-24.927-20.207-45.134-45.134-45.134s-45.134 20.207-45.134 45.134c0 24.927 20.207 45.134 45.134 45.134s45.134-20.207 45.134-45.134z" />
<glyph unicode="&#xe932;" d="M548.738 288.062h-73.478c-30.056 0-54.508 24.452-54.508 54.51 0 8.536 6.918 15.452 15.452 15.452s15.452-6.918 15.452-15.452c0-13.014 10.588-23.604 23.602-23.604h73.478c13.014 0 23.604 10.59 23.604 23.604 0 8.536 6.918 15.452 15.452 15.452 8.536 0 15.452-6.918 15.452-15.452 0.004-30.056-24.45-54.51-54.506-54.51z" />
<glyph unicode="&#xe933;" d="M659.98 755.412c-20.938 27.19-51.198 46.832-85.998 54.14h-217.78c-5.848 0-11.602-0.386-17.268-1.058 2.33-41.172 36.444-73.844 78.198-73.844h189.738c20.496 0 39.152 7.874 53.11 20.762z" />
<glyph unicode="&#xe934;" d="M667.798 809.552h-134.6c48.774-0.004 91.892-24.092 118.202-60.996 19.262 13.342 32.262 35.084 33.666 59.938-5.666 0.672-11.42 1.058-17.268 1.058z" />
<glyph unicode="&#xe935;" d="M186.608 919.818c0-22.192-17.99-40.182-40.182-40.182s-40.182 17.99-40.182 40.182c0 22.192 17.99 40.182 40.182 40.182s40.182-17.99 40.182-40.182z" />
<glyph unicode="&#xe936;" d="M701.726 142.538h-505.496c-34.718 0-62.862-28.144-62.862-62.864v-143.674h134.324v1.114c0 7.696 6.238 13.936 13.934 13.936h460.746c7.696 0 13.934-6.238 13.934-13.936v-1.114l8.242 13.134v130.54c0.002 34.706-28.122 62.842-62.822 62.864z" />
<glyph unicode="&#xe937;" d="M827.77 142.538h-134.324c34.718 0 62.862-28.144 62.862-62.864v-143.674h134.324v143.674c0.002 34.718-28.144 62.864-62.862 62.864z" />
<glyph unicode="&#xe938;" d="M756.308-64v65.45c0 12.964-10.508 23.472-23.472 23.472h-441.672c-12.964 0-23.472-10.508-23.472-23.472v-65.45z" />
<glyph unicode="&#xe939;" d="M1024 540l-512-604-3.063 3.602-508.938 600.398 226.977 223.422h570.047z" />
<glyph unicode="&#xe93a;" d="M1024 540l-512-604v827.422h285.023z" />
<glyph unicode="&#xe93b;" d="M683.5 540.5h-343l171.5 222.922z" />
<glyph unicode="&#xe93c;" d="M797.016 763.422l-116.016-222.922h343z" />
<glyph unicode="&#xe93d;" d="M226.984 763.422l116.016-222.922h-343z" />
<glyph unicode="&#xe93e;" d="M482 960h60v-124.32h-60z" />
<glyph unicode="&#xe93f;" d="M633.695 832.992l48.648 116.547 55.367-23.117-48.648-116.539z" />
<glyph unicode="&#xe940;" d="M286.273 926.437l55.367 23.117 48.648-116.547-55.367-23.109z" />
<glyph unicode="&#xe941;" d="M681 540.5l-169-604.5-3.063 10.938-165.938 593.563z" />
<glyph unicode="&#xe942;" d="M512 960h30v-124.32h-30z" />
<glyph unicode="&#xe943;" d="M683.5 540.5h-2.5l-169-604.5v827.422z" />
<glyph unicode="&#xe944;" d="M683.5 540.5h-171.5v222.922z" />
<glyph unicode="&#xe945;" glyph-name="drop" d="M606.586 847.103c-23.647 34.775-44.512 66.768-63.986 95.979-2.782 4.173-6.955 8.346-11.128 11.128-16.692 11.128-38.948 5.564-50.076-11.128-18.083-29.211-38.948-59.813-63.986-95.979-109.889-161.356-274.026-404.78-274.026-543.88 0-101.543 41.73-193.349 108.498-260.116 66.768-65.377 158.574-107.107 260.116-107.107s193.349 41.73 260.116 108.498c66.768 66.768 108.498 158.574 108.498 260.116 0 139.1-164.138 381.133-274.026 542.489zM722.039 94.574c-54.249-54.249-127.972-86.242-210.041-86.242s-155.792 33.384-210.041 86.242c-54.249 54.249-86.242 127.972-86.242 210.041 0 116.844 157.183 349.14 261.507 503.541 12.519 18.083 23.647 36.166 34.775 51.467 11.128-15.301 22.256-33.384 34.775-51.467 104.325-155.792 261.507-386.697 261.507-503.541 0-82.069-33.384-155.792-86.242-210.041zM727.603 329.652c-19.474 1.391-36.166-13.91-37.557-33.384-1.391-30.602-11.128-59.813-26.429-84.851s-37.557-47.294-63.986-61.204c-16.692-9.737-23.647-31.993-13.91-48.685 11.128-19.474 33.384-25.038 50.076-15.301 37.557 20.865 68.159 51.467 89.024 86.242 22.256 34.775 34.775 76.505 36.166 119.626 1.391 19.474-13.91 36.166-33.384 37.557z" />
<glyph unicode="&#xe946;" glyph-name="email" d="M1023.244 739.402c0 1.17 0.805 2.309 0.752 3.466l-312.49-301.101 312.116-291.482c0.182 2.082-0.378 4.182-0.378 6.309v582.808zM663.805 395.432l-127.567-122.736c-6.455-6.211-14.793-9.325-23.134-9.325-8.168 0-16.336 2.981-22.747 8.956l-127.22 118.549-314.154-302.809c7.639-2.745 15.838-4.876 24.424-4.876h879.398c12.751 0 24.709 3.884 35.106 9.676l-324.106 302.564zM512.739 342.686l476.903 459.396c-10.797 6.42-23.366 10.726-36.837 10.726h-879.398c-17.542 0-33.616-6.811-46.135-17.199l485.467-452.923zM0 728.213v-571.611c0-6.562 1.508-12.888 3.145-18.934l310.256 298.769-313.402 291.776z" />
<glyph unicode="&#xe947;" glyph-name="footprints" d="M604.034 167.525c-6.296 2.816-13.682-0.006-16.497-6.3-0.601-1.344-0.959-2.785-1.059-4.256l-7.958-117.417c-3.559-53.421 36.797-99.644 90.21-103.325 2.243-0.15 4.477-0.225 6.701-0.227 50.963 0.081 93.174 39.59 96.622 90.437l3.746 55.326c0.354 5.22-2.585 10.108-7.361 12.243zM747.135 28.125c-2.689-39.682-37.036-69.669-76.718-66.98s-69.669 37.036-66.98 76.718l6.747 99.554 140.112-62.643zM545.092 479.464l51.638-243.217c0.812-3.821 3.363-7.043 6.897-8.705l167.377-78.776c6.239-2.937 13.679-0.26 16.616 5.979 0.298 0.631 0.541 1.286 0.728 1.958l52.116 186.601c0.062 0.231 0.123 0.466 0.173 0.701 19.969 91.711 22.268 169.885 6.835 232.353-13.134 53.161-39.274 94.141-75.59 118.51-44.591 29.919-101.328 31.634-141.355 4.331-4.075-2.422-29.18-18.169-51.667-50.907-21.96-31.969-45.667-87.072-33.91-168.029 0.048-0.266 0.096-0.535 0.142-0.799zM598.75 633.131c20.76 30.687 44.435 44.537 44.637 44.658 0.314 0.179 0.624 0.373 0.92 0.579 26.368 18.162 71.74 23.894 113.658-4.237 71.473-47.958 92.734-166.204 58.347-324.453l-48.044-172.018-148.397 69.844-50.264 236.753c-8.32 57.894 1.484 107.981 29.153 148.876zM430.9 408.080c-3.494 2.11-7.8 2.379-11.53 0.72l-164.547-73.215c-4.78-2.127-7.727-7.007-7.384-12.229l3.646-55.334c3.363-50.922 45.609-90.528 96.641-90.605 2.162 0 4.333 0.069 6.516 0.208 53.446 3.519 93.921 49.696 90.401 103.142 0 0.004 0 0.008 0 0.012l-7.738 117.432c-0.268 4.073-2.512 7.759-6.006 9.869zM402.026 226.948c-26.198-29.921-71.692-32.936-101.613-6.739-14.381 12.593-23.165 30.387-24.416 49.461l-3.074 46.645 140.233 62.389 6.56-99.565c1.309-19.061-5.061-37.854-17.69-52.191zM183.263 585.023l51.765-186.695c1.842-6.645 8.724-10.539 15.369-8.697 0.672 0.187 1.328 0.429 1.958 0.724l167.533 78.46c3.536 1.657 6.096 4.872 6.914 8.691l52.094 243.121c0.056 0.266 0.104 0.533 0.144 0.799 11.908 80.936-11.696 136.083-33.594 168.093-22.427 32.782-47.505 48.574-51.573 51.003-39.971 27.384-96.712 25.771-141.361-4.065-36.362-24.3-62.576-65.232-75.813-118.368-15.55-62.435-13.399-140.618 6.397-232.366 0.042-0.233 0.1-0.468 0.166-0.701zM266.38 915.696c41.975 28.052 87.334 22.233 113.665 4.023 0.277-0.191 0.595-0.391 0.887-0.56 0.235-0.137 23.885-14.037 44.589-44.764 27.592-40.945 37.301-91.051 28.862-148.934l-50.71-236.657-148.528-69.557-47.719 172.112c-34.089 158.304-12.61 276.511 58.955 324.336z" />
<glyph unicode="&#xe948;" d="M602 840c-19.628 0-38.292-6.21-53.964-17.93l-0.030-0.030-60.898-45.684c13.396 38.094 24.892 75.886 24.892 93.644 0 49.628-40.372 90-90 90s-90-40.372-90-90c0-17.758 11.496-55.55 24.892-93.644l-60.928 45.714c-15.672 11.72-34.336 17.93-53.964 17.93-49.628 0-90-40.372-90-90s40.372-90 90-90v60c-16.552 0-30 13.448-30 30-0.030 23.116 29.56 37.91 47.988 24.024l0.004 0.004 137.376-103.060h49.264l137.38 103.056c18.368 13.828 47.988-0.908 47.988-24.024 0-16.552-13.448-30-30-30v-60c49.628 0 90 40.372 90 90s-40.372 90-90 90zM422 772.822c-16.788 45.44-29.854 85.694-30 97.178 0 16.552 13.448 30 30 30s30-13.448 30-29.97c-0.146-11.486-13.212-51.768-30-97.208z" />
<glyph unicode="&#xe949;" d="M584.008 774.028l0.004-0.004c18.368 13.828 47.988-0.908 47.988-24.024 0-16.552-13.448-30-30-30v-60c49.628 0 90 40.372 90 90s-40.372 90-90 90c-19.628 0-38.292-6.21-53.964-17.93l-0.030-0.030-60.898-45.684c13.396 38.094 24.892 75.886 24.892 93.644 0 49.628-40.372 90-90 90v-60c16.552 0 30-13.448 30-29.97-0.146-11.484-13.212-51.768-30-97.208v-101.854h24.632z" />
<glyph unicode="&#xe94a;" d="M422 660h-330v-724h240l60 60h360v664z" />
<glyph unicode="&#xe94b;" d="M422 660h330v-664h-330z" />
<glyph unicode="&#xe94c;" d="M512 720l-60-60h-60l-60 60h-300v-120h780v120z" />
<glyph unicode="&#xe94d;" d="M812 720h-300l-60-60h-30v-60h390z" />
<glyph unicode="&#xe94e;" d="M422 720h-90v-302l68.526-60h111.474v362z" />
<glyph unicode="&#xe94f;" d="M422 720h90v-362h-90z" />
<glyph unicode="&#xe950;" d="M992 418h-300l-31.264-60-28.736 60h-300v-240l60-31.264-60-28.736v-182h300l33.476 60 26.524-60h300v182l-60 31.582 60 28.418z" />
<glyph unicode="&#xe951;" d="M692-64h300v182l-60 31.582 60 28.418v240h-300l-30-57.576v-370.654l3.476 6.23z" />
<glyph unicode="&#xe952;" d="M782 178h210v-60h-210z" />
<glyph unicode="&#xe953;" d="M332 178h210v-60h-210z" />
<glyph unicode="&#xe954;" d="M662 418h-30v-482h60v482z" />
<glyph unicode="&#xe955;" d="M662 418h30v-482h-30z" />
<glyph unicode="&#xe956;" d="M782 298c-28.184 0-55.108-13.448-72.042-36.006v-0.030l-47.962-63.976-47.956 63.976c-16.904 22.56-43.828 36.036-72.040 36.036-49.628 0-90-40.372-90-90s40.372-90 90-90h47.578l-38.79-38.79 42.422-42.422 68.79 68.79 68.79-68.79 42.422 42.422-38.79 38.79h47.578c49.628 0 90 40.372 90 90s-40.372 90-90 90zM542 178c-16.552 0-30 13.448-30 30 0 26.104 38.35 38.906 53.994 17.988h0.030l35.99-47.988zM782 178h-60.030l35.976 47.96c5.744 7.646 14.504 12.040 24.054 12.040 16.552 0 30-13.448 30-30s-13.448-30-30-30z" />
<glyph unicode="&#xe957;" d="M773.21 79.21l-38.788 38.79h47.578c49.628 0 90 40.372 90 90s-40.372 90-90 90c-28.184 0-55.108-13.448-72.042-36.006v-0.030l-47.958-63.972v-92.414l68.79-68.79zM757.932 225.97l0.014-0.010c5.744 7.646 14.504 12.040 24.054 12.040 16.552 0 30-13.448 30-30s-13.448-30-30-30h-60.030z" />
<glyph unicode="&#xe958;" glyph-name="giftbox" d="M957.218 760.548h-74.538c9.832 15.56 16.32 33.026 18.17 51.498 5.91 59.034-25.18 111.954-78.11 135.416-48.652 21.566-103.326 12.75-142.696-22.958l-94.12-85.3c-18.33 20.048-44.68 32.648-73.924 32.648-29.296 0-55.688-12.64-74.022-32.75l-94.24 85.412c-39.434 35.708-94.086 44.49-142.716 22.936-52.916-23.464-84.012-76.402-78.084-135.434 1.854-18.458 8.338-35.916 18.168-51.468h-74.324c-36.884 0-66.782-29.9-66.782-66.782v-100.174c0-18.44 14.95-33.392 33.392-33.392h957.218c18.44 0 33.392 14.95 33.392 33.392v100.174c-0.002 36.882-29.9 66.782-66.784 66.782zM411.826 771.678v-11.13h-157.086c-41.504 0-74.168 38.692-63.802 81.904 4.566 19.030 18.302 35.252 36.068 43.464 24.396 11.276 51.42 7.656 71.91-10.89l112.938-102.364c-0.006-0.33-0.028-0.654-0.028-0.984zM834.588 820.912c-2.488-34.706-33.838-60.368-68.632-60.368h-153.782v11.13c0 0.394-0.024 0.784-0.028 1.178 25.584 23.192 81.086 73.496 111.188 100.782 17.108 15.506 41.046 22.744 63.174 16.144 31.754-9.472 50.402-36.476 48.080-68.866zM66.782 493.418v-489.74c0-36.884 29.898-66.782 66.782-66.782h311.652v556.522h-378.434zM578.782 493.418v-556.522h311.652c36.884 0 66.782 29.898 66.782 66.782v489.74h-378.434z" />
<glyph unicode="&#xe959;" glyph-name="health-check" d="M320 624c-56.336 0-103.072-41.792-110.864-96h221.712c-7.776 54.208-54.512 96-110.848 96zM368 704c0-26.51-21.49-48-48-48s-48 21.49-48 48c0 26.51 21.49 48 48 48s48-21.49 48-48zM496 384v48h-352v-48c0-26.464 21.536-48 48-48h256c26.464 0 48 21.536 48 48zM384 368h-128v32h128zM496 864c0 26.464-21.536 48-48 48h-256c-26.464 0-48-21.536-48-48v-16h352zM737.488 764.64l49.248 65.664 42.304-84.608 23.424 70.304h123.472c-0.624 53.040-43.904 96-97.088 96-25.936 0-50.336-10.112-68.688-28.448l-26.16-26.176-26.176 26.176c-18.336 18.336-42.752 28.448-68.688 28.448-47.712 0-87.408-34.592-95.536-80h103.456zM834.976 662.304l-53.696 107.392-46.752-62.336-55.584 92.64h-86.688c1.232-26.944 13.44-52.144 34.144-69.664l157.6-133.376 157.616 133.376c16.544 14 27.728 32.896 32.192 53.664h-98.272zM784 496c-52.944 0-96-43.056-96-96 0-41.104 25.584-76.848 64-90.4v-85.6h16v-176c0-35.296-28.704-64-64-64s-64 28.704-64 64v32c0 52.944-43.056 96-96 96s-96-43.056-96-96v-40c0-30.88-25.12-56-56-56s-56 25.12-56 56v120.816c160.176 8.4 288 140.96 288 303.184v208h-128v144h-352v-144h-128v-208c0-162.224 127.824-294.784 288-303.184v-120.816c0-48.512 39.488-88 88-88s88 39.488 88 88v40c0 35.296 28.704 64 64 64s64-28.704 64-64v-32c0-52.944 43.056-96 96-96s96 43.056 96 96v176h16v85.648c37.872 13.424 64 49.808 64 90.352 0 52.944-43.056 96-96 96zM176 512c0 60.288 37.28 111.968 89.968 133.392-15.856 14.624-25.968 35.392-25.968 58.608 0 44.112 35.888 80 80 80s80-35.888 80-80c0-23.216-10.112-43.984-25.968-58.608 52.688-21.424 89.968-73.104 89.968-133.392v-16h-288zM48 464v112h96v-112h352v112h96v-112c0-149.984-122.016-272-272-272s-272 122.016-272 272z" />
<glyph unicode="&#xe95a;" glyph-name="heart-1" d="M942.766 814.844c-53.008 57.492-125.742 89.156-204.82 89.156-59.109 0-113.242-18.688-160.898-55.539-24.047-18.602-45.836-41.359-65.047-67.922-19.203 26.555-41 49.32-65.055 67.922-47.648 36.852-101.781 55.539-160.891 55.539-79.078 0-151.82-31.664-204.828-89.156-52.375-56.82-81.227-134.445-81.227-218.586 0-86.602 32.273-165.875 101.563-249.484 61.984-74.789 151.070-150.711 254.234-238.625 35.227-30.023 75.156-64.055 116.617-100.305 10.953-9.594 25.008-14.875 39.586-14.875 14.57 0 28.633 5.281 39.57 14.859 41.461 36.258 81.414 70.305 116.656 100.344 103.148 87.898 192.234 163.813 254.219 238.609 69.289 83.602 101.555 162.875 101.555 249.484 0 84.133-28.852 161.758-81.234 218.578z" />
<glyph unicode="&#xe95b;" glyph-name="heart" d="M512-7.031c-14.578 0-28.633 5.281-39.586 14.875-41.367 36.172-81.25 70.164-116.438 100.148l-0.18 0.156c-103.164 87.914-192.25 163.836-254.234 238.625-69.289 83.609-101.563 162.883-101.563 249.484 0 84.141 28.852 161.766 81.234 218.586 53.008 57.492 125.742 89.156 204.828 89.156 59.109 0 113.242-18.688 160.891-55.539 24.047-18.602 45.844-41.367 65.047-67.922 19.211 26.555 41 49.32 65.055 67.922 47.648 36.852 101.781 55.539 160.891 55.539 79.078 0 151.82-31.664 204.828-89.156 52.383-56.82 81.227-134.445 81.227-218.586 0-86.602-32.266-165.875-101.555-249.477-61.984-74.797-151.063-150.711-254.211-238.617-35.25-30.031-75.195-64.078-116.656-100.336-10.945-9.578-25.008-14.859-39.578-14.859zM286.063 844.016c-62.133 0-119.211-24.797-160.734-69.828-42.141-45.711-65.352-108.898-65.352-177.93 0-72.836 27.070-137.977 87.766-211.211 58.664-70.789 145.922-145.148 246.953-231.25l0.188-0.156c35.32-30.102 75.359-64.227 117.031-100.664 41.922 36.508 82.023 70.688 117.414 100.836 101.023 86.102 188.273 160.445 246.938 231.234 60.688 73.234 87.758 138.375 87.758 211.211 0 69.031-23.211 132.219-65.352 177.93-41.516 45.031-98.602 69.828-160.727 69.828-45.516 0-87.305-14.469-124.203-43-32.883-25.438-55.789-57.594-69.219-80.094-6.906-11.57-19.063-18.477-32.523-18.477s-25.617 6.906-32.523 18.477c-13.422 22.5-36.328 54.656-69.219 80.094-36.898 28.531-78.688 43-124.195 43z" />
<glyph unicode="&#xe95c;" glyph-name="home-1" d="M996.391 514.609c-0.023 0.023-0.047 0.047-0.070 0.070l-417.711 417.695c-17.805 17.813-41.477 27.625-66.656 27.625s-48.852-9.805-66.664-27.617l-417.492-417.484c-0.141-0.141-0.281-0.289-0.422-0.43-36.563-36.773-36.5-96.438 0.18-133.117 16.758-16.766 38.891-26.477 62.555-27.492 0.961-0.094 1.93-0.141 2.906-0.141h16.648v-307.398c0-60.828 49.492-110.32 110.336-110.32h163.422c16.563 0 30 13.43 30 30v241c0 27.758 22.578 50.336 50.336 50.336h96.391c27.758 0 50.336-22.578 50.336-50.336v-241c0-16.57 13.43-30 30-30h163.422c60.844 0 110.336 49.492 110.336 110.32v307.398h15.438c25.172 0 48.844 9.805 66.664 27.617 36.719 36.742 36.734 96.508 0.047 133.273z" />
<glyph unicode="&#xe95d;" glyph-name="home" d="M998.399 516.609c-0.031 0.023-0.055 0.055-0.078 0.078l-417.712 417.696c-17.805 17.813-41.477 27.617-66.656 27.617s-48.852-9.805-66.664-27.617l-417.493-417.485c-0.141-0.141-0.289-0.289-0.422-0.43-36.563-36.774-36.5-96.438 0.18-133.117 16.758-16.766 38.883-26.469 62.547-27.492 0.969-0.094 1.938-0.141 2.914-0.141h16.641v-307.391c0-60.836 49.5-110.328 110.336-110.328h163.422c16.57 0 30 13.438 30 30v241c0 27.758 22.586 50.336 50.344 50.336h96.391c27.758 0 50.336-22.578 50.336-50.336v-241c0-16.563 13.43-30 30-30h163.422c60.844 0 110.336 49.492 110.336 110.328v307.391h15.438c25.172 0 48.844 9.805 66.664 27.625 36.719 36.734 36.734 96.508 0.055 133.266zM955.915 425.765c-6.477-6.477-15.086-10.047-24.234-10.047h-45.438c-16.57 0-30-13.43-30-30v-337.391c0-27.75-22.578-50.328-50.336-50.328h-133.422v211c0 60.836-49.492 110.336-110.336 110.336h-96.391c-60.844 0-110.344-49.5-110.344-110.336v-211h-133.422c-27.75 0-50.336 22.578-50.336 50.328v337.391c0 16.57-13.43 30-30 30h-44.656c-0.469 0.031-0.93 0.055-1.406 0.063-8.938 0.156-17.32 3.703-23.602 9.992-13.359 13.359-13.359 35.102 0 48.469 0.008 0 0.008 0.008 0.016 0.016l417.72 417.704c6.469 6.477 15.070 10.039 24.227 10.039 9.148 0 17.75-3.563 24.227-10.039l417.602-417.595c0.063-0.063 0.133-0.125 0.195-0.188 13.289-13.383 13.266-35.078-0.063-48.414z" />
<glyph unicode="&#xe95e;" glyph-name="logout" d="M1011.328 472.522l-109.566 77.244c-19.852 13.994-47.29-0.256-47.29-24.52v-47.244h-526.080c-16.568 0-30.002-13.432-30.002-30.002s13.434-30 30.002-30h526.076v-47.242c0-24.424 27.584-38.408 47.288-24.52l109.566 77.244c16.732 11.788 17.070 36.984 0.006 49.040zM860.942 255.366c-14.338 8.292-32.694 3.396-40.992-10.948-70.472-121.832-202.206-203.622-352.744-203.622-224.532 0-407.204 182.672-407.204 407.204s182.672 407.204 407.204 407.204c150.638 0 282.312-81.866 352.742-203.618 8.296-14.344 26.656-19.238 40.992-10.948 14.342 8.296 19.242 26.65 10.948 40.992-81.052 140.116-232.43 233.576-404.682 233.576-258.226 0-467.206-208.958-467.206-467.206 0-258.226 208.958-467.206 467.206-467.206 172.326 0 323.666 93.526 404.684 233.58 8.294 14.342 3.394 32.694-10.948 40.992z" />
<glyph unicode="&#xe95f;" d="M915.474 37.762l-123.279 27.132-38.208-120.621c-2.748-8.673-14.494-9.945-19.032-2.060l-152.509 264.929c75.124 16.278 141.966 54.856 193.289 108.474l151.049-262.425c4.532-7.872-2.439-17.382-11.31-15.428z" />
<glyph unicode="&#xe960;" d="M915.476 37.762l-113.949 25.080c-5.285 1.163-10.583-1.897-12.216-7.054l-35.322-111.513c-2.748-8.673-14.494-9.945-19.032-2.060l-152.509 264.929c75.124 16.278 141.966 54.856 193.289 108.474l21.688-37.654 129.363-224.771c4.528-7.876-2.443-17.384-11.313-15.431z" />
<glyph unicode="&#xe961;" d="M915.474 37.769l-113.941 25.076c-5.291 1.15-10.583-1.903-12.214-7.048l12.264 38.11c1.654 5.141 6.952 8.175 12.224 7.004l98.048-21.795 14.933-25.934c4.538-7.864-2.447-17.38-11.315-15.414z" />
<glyph unicode="&#xe962;" d="M443.959 210.321l-154.92-269.074c-4.538-7.885-16.284-6.613-19.032 2.060l-35.324 111.515c-1.633 5.157-6.933 8.217-12.216 7.054l-113.947-25.078c-8.872-1.953-15.843 7.556-11.31 15.428l144.084 250.322c53.791-50.997 126.349-79.662 202.665-92.228z" />
<glyph unicode="&#xe963;" d="M261.685 265.313l-128.392-223.052-24.767-5.457c-8.872-1.955-15.845 7.554-11.313 15.428l155.811 270.85c8.93-8.454 18.258-16.489 27.983-24.041z" />
<glyph unicode="&#xe964;" d="M304.151-32.482l-15.121-26.268c-4.538-7.885-16.271-6.63-19.032 2.050l-35.324 111.515c-1.631 5.166-6.923 8.219-12.214 7.069l39.068 8.594c5.283 1.163 10.581-1.897 12.214-7.052z" />
<glyph unicode="&#xe965;" d="M244.78 308.917l101.892-45.949 97.287-52.647-26.086-45.279c-72.74 14.768-140.23 48.626-196.008 98.489-0.669 0.588-1.339 1.175-2.008 1.784z" />
<glyph unicode="&#xe966;" d="M797.424 277.962l-21.688 37.654-114.765-50.654-78.525-57.819 152.509-264.927c4.538-7.885 16.284-6.613 19.032 2.060l7.77 24.528-121.271 211.236c58.708 20.429 112.153 53.666 156.938 97.922z" />
<glyph unicode="&#xe967;" d="M891.569 579.282c0-102.327-40.26-195.257-105.784-263.666-51.323-53.618-118.165-92.196-193.289-108.474-25.955-5.622-52.871-8.579-80.499-8.579-21.082 0-41.745 1.721-61.885 5.034-72.405 11.915-137.929 44.388-190.382 91.251-2.844 2.518-5.626 5.076-8.387 7.699-9.788 9.271-19.074 19.070-27.858 29.326-8.408 9.859-16.313 20.159-23.696 30.857-22.169 32.074-39.549 67.758-51.114 105.979-10.562 34.989-16.25 72.1-16.25 110.571 0 210.259 169.949 380.72 379.572 380.72 38.336 0 75.354-5.705 110.218-16.321 38.127-11.559 73.681-28.991 105.68-51.248 10.666-7.406 20.935-15.334 30.744-23.788 13.134-11.243 25.474-23.39 36.955-36.311 59.71-67.275 95.975-155.924 95.975-253.050z" />
<glyph unicode="&#xe968;" d="M783.865 579.284c0-150.603-121.72-272.69-271.868-272.69s-271.868 122.088-271.868 272.69c0 150.603 121.72 272.69 271.868 272.69s271.868-122.088 271.868-272.69z" />
<glyph unicode="&#xe969;" d="M783.861 579.282c0-150.597-121.721-272.686-271.864-272.686s-271.864 122.089-271.864 272.686c0 11.371 0.69 22.573 2.050 33.563 16.48-134.78 131.007-239.121 269.814-239.121s253.334 104.341 269.814 239.121c1.359-10.993 2.050-22.194 2.050-33.563z" />
<glyph unicode="&#xe96a;" d="M511.997 851.965c-150.143 0-271.864-122.089-271.864-272.686s121.721-272.686 271.864-272.686 271.864 122.089 271.864 272.686-121.721 272.686-271.864 272.686zM511.997 338.061c-132.617 0-240.493 108.202-240.493 241.218s107.876 241.218 240.493 241.218 240.493-108.202 240.493-241.218-107.876-241.218-240.493-241.218z" />
<glyph unicode="&#xe96b;" d="M521.389 730.075l37.347-76.289c1.52-3.108 4.48-5.262 7.906-5.754l83.931-12.059c8.589-1.234 12.026-11.789 5.808-17.842l-60.875-59.277c-2.472-2.407-3.597-5.877-3.010-9.275l14.506-83.814c1.483-8.562-7.521-15.092-15.2-11.024l-74.908 39.695c-3.062 1.623-6.73 1.623-9.792 0l-74.908-39.695c-7.68-4.070-16.683 2.46-15.2 11.024l14.506 83.814c0.588 3.399-0.537 6.868-3.010 9.275l-60.875 59.277c-6.218 6.055-2.782 16.608 5.808 17.842l83.931 12.059c3.424 0.491 6.383 2.646 7.906 5.754l37.347 76.289c3.825 7.814 14.96 7.814 18.785 0z" />
<glyph unicode="&#xe96c;" glyph-name="moon" d="M604.968 629.547c-4.65 3.715-10.526 5.545-16.461 5.131h-89.79l92.355 103.044 4.062 5.131c1.411 1.983 2.56 4.139 3.421 6.414 0.97 2.451 1.475 5.061 1.496 7.696 0.596 6.235-2.493 12.247-7.91 15.393-7.026 3.223-14.73 4.693-22.447 4.276h-104.968c-5.601 0.382-11.149-1.291-15.606-4.703-3.682-3.135-5.732-7.779-5.558-12.613 0-7.269 2.424-11.686 7.269-13.255 6.948-1.975 14.161-2.841 21.378-2.565h68.411c-2.851-3.99-6.555-8.693-11.117-14.11l-17.53-19.668-23.73-25.654-27.578-30.571c-9.548-10.689-15.82-17.816-18.813-21.378-6.788-8.244-5.943-20.358 1.924-27.578 5.639-4.249 12.629-6.299 19.668-5.772h124.85c5.973-0.468 11.91 1.283 16.675 4.917 3.632 3.172 5.668 7.792 5.558 12.613 0.184 5.021-1.849 9.869-5.558 13.255zM794.168 520.303c-3.741 2.993-8.479 4.444-13.255 4.062h-71.832l67.342 75.252 6.414 7.055 4.062 4.917c1.146 1.582 2.079 3.306 2.779 5.131 0.81 1.969 1.245 4.070 1.283 6.2 0.537 4.989-1.887 9.834-6.2 12.4-5.62 2.581-11.782 3.757-17.958 3.421h-84.659c-4.46 0.249-8.864-1.117-12.4-3.848-2.956-2.485-4.61-6.189-4.489-10.048 0-5.7 1.924-9.265 5.772-10.689 5.564-1.542 11.336-2.191 17.103-1.924h54.729c-2.138-3.207-5.131-6.841-8.979-11.331l-14.11-15.82-18.385-21.378-21.378-24.371c-7.696-8.551-12.755-14.396-15.179-17.53-5.037-6.462-4.391-15.681 1.496-21.378 4.487-3.338 10.032-4.933 15.606-4.489h99.196c4.741-0.379 9.455 0.989 13.255 3.848 2.827 2.563 4.388 6.235 4.276 10.048 0.099 3.979-1.539 7.803-4.489 10.475zM1018.428 640.45c-4.65 3.715-10.526 5.545-16.461 5.131h-90.431l92.355 103.044 5.131 6.2c1.411 1.983 2.56 4.139 3.421 6.414 0.97 2.451 1.475 5.061 1.496 7.696 0.596 6.235-2.493 12.247-7.91 15.393-7.026 3.223-14.73 4.69-22.447 4.276h-106.037c-5.601 0.382-11.149-1.291-15.606-4.703-3.682-3.135-5.732-7.779-5.558-12.613 0-7.269 2.424-11.686 7.269-13.255 6.948-1.975 14.161-2.841 21.378-2.565h68.411c-2.851-3.99-6.555-8.693-11.117-14.11l-17.744-20.096-23.089-25.654-27.578-30.571c-9.548-10.689-15.82-17.816-18.813-21.378-6.788-8.244-5.943-20.358 1.924-27.578 5.639-4.249 12.629-6.299 19.668-5.772h124.637c6.034-0.759 12.135 0.767 17.103 4.276 3.632 3.172 5.668 7.792 5.558 12.613 0.184 5.021-1.849 9.869-5.558 13.255zM944.672 280.437c-6.090 6.304-15.411 8.255-23.516 4.917-231.711-95.92-497.309 14.158-593.232 245.871-48.708 117.665-45.769 250.377 8.102 365.767 5.048 10.673 0.486 23.417-10.187 28.465-5.478 2.592-11.801 2.734-17.391 0.396-254.033-104.351-375.374-394.879-271.023-648.912s394.879-375.374 648.914-271.023c115.861 47.594 209.493 137.156 262.183 250.791 3.706 7.947 2.181 17.357-3.851 23.727zM497.648 11.068c-251.136 0.043-454.686 203.662-454.643 454.798 0.027 164.903 89.33 316.867 233.376 397.135-17.057-50.63-25.724-103.707-25.654-157.132 0.013-274.748 222.753-497.467 497.501-497.453 46.047 0.003 91.869 6.398 136.157 19.003-82.908-134.056-229.116-215.848-386.737-216.35z" />
<glyph unicode="&#xe96d;" glyph-name="notification-1" d="M468.688-64c77.273 0 141.914 55.086 156.758 128h-313.516c14.852-72.914 79.492-128 156.758-128zM767.867 448.039c-0.172 0-0.344-0.039-0.516-0.039-164.648 0-298.664 133.977-298.664 298.664 0 45.273 10.414 88.070 28.547 126.555-9.391 0.891-18.906 1.445-28.547 1.445-164.945 0-298.664-133.711-298.664-298.664v-118.953c0-84.438-36.992-164.141-101.891-219.008-21.633-18.477-31.234-47.914-23.469-76.633 9.047-33.406 42.070-54.742 76.719-54.742h694.398c36.352 0 70.617 23.555 77.992 59.18 5.719 27.563-4.094 55.086-25.469 73.047-62.039 52.008-97.922 128.43-100.438 209.148zM980.688 746.664c0-117.82-95.508-213.328-213.336-213.328-117.82 0-213.328 95.508-213.328 213.328s95.508 213.336 213.328 213.336c117.828 0 213.336-95.516 213.336-213.336z" />
<glyph unicode="&#xe96e;" glyph-name="notification" d="M468.664-64c-88.188 0-160 71.766-160 160 0 17.664 14.336 32 32 32s32-14.336 32-32c0-52.953 43.094-96 96-96s96 43.047 96 96c0 17.664 14.336 32 32 32s32-14.336 32-32c0-88.234-71.805-160-160-160zM820.664 64h-704c-41.172 0-74.664 33.492-74.664 74.664 0 21.852 9.516 42.539 26.109 56.75 1.070 0.938 2.219 1.789 3.414 2.563 62.633 54.656 98.477 133.289 98.477 216.32v119.039c0 164.688 134.016 298.664 298.664 298.664 6.828 0 14.211-0.125 21.039-1.281 17.445-2.898 29.227-19.414 26.32-36.82-2.898-17.406-19.711-29.188-36.82-26.281-3.414 0.555-7.164 0.383-10.539 0.383-129.359 0-234.664-105.258-234.664-234.664v-119.039c0-103.086-45.188-200.625-123.859-267.563-0.641-0.516-1.195-0.984-1.883-1.453-1.148-1.453-2.258-3.672-2.258-6.617 0-5.797 4.867-10.664 10.664-10.664h704c5.805 0 10.672 4.867 10.672 10.664 0 2.992-1.109 5.164-2.305 6.617-0.641 0.469-1.195 0.938-1.836 1.453-78.719 66.984-123.859 164.477-123.859 267.563v46.5c0 17.664 14.336 32 32 32s32-14.336 32-32v-46.5c0-83.078 35.883-161.75 98.602-216.453 1.148-0.766 2.258-1.578 3.281-2.477 16.602-14.164 26.117-34.852 26.117-56.703 0-41.172-33.492-74.664-74.672-74.664zM767.336 533.336c-117.633 0-213.336 95.695-213.336 213.328s95.703 213.336 213.336 213.336c117.633 0 213.328-95.703 213.328-213.336s-95.695-213.328-213.328-213.328zM767.336 896c-82.352 0-149.336-66.984-149.336-149.336 0-82.344 66.984-149.328 149.336-149.328 82.344 0 149.328 66.984 149.328 149.328 0 82.352-66.984 149.336-149.328 149.336z" />
<glyph unicode="&#xe96f;" d="M455.222 787.042h462.328v-181.47h-462.328z" />
<glyph unicode="&#xe970;" d="M987.63 84.382v-127.778c0-11.38-9.224-20.604-20.604-20.604h-561.282c-11.38 0-20.604 9.224-20.604 20.604v127.778c0 142.726 115.702 258.43 258.43 258.43h85.63c142.726 0 258.43-115.704 258.43-258.43z" />
<glyph unicode="&#xe971;" d="M885.4 111.688v-175.688h-30.906v175.688c0 8.53 6.924 15.452 15.452 15.452 8.532 0 15.454-6.922 15.454-15.452z" />
<glyph unicode="&#xe972;" d="M518.284 111.688v-175.688h-30.906v175.688c0 8.53 6.902 15.452 15.452 15.452 8.532 0 15.454-6.922 15.454-15.452z" />
<glyph unicode="&#xe973;" d="M987.632 84.374v-127.762c0-11.38-9.224-20.604-20.604-20.604h-49.212v148.366c0 142.732-115.704 258.436-258.416 258.436h69.796c142.73 0.002 258.436-115.704 258.436-258.436z" />
<glyph unicode="&#xe974;" d="M741.202 404.66v-97.534c0-30.266-24.548-54.812-54.812-54.812-30.288 0-54.836 24.548-54.836 54.812v97.534z" />
<glyph unicode="&#xe975;" d="M741.202 404.66v-73.54c-16.584-7.486-35.166-11.684-54.812-11.684-19.648 0-38.25 4.198-54.836 11.684v73.54z" />
<glyph unicode="&#xe976;" d="M947.934 599.706c0-34.675-28.109-62.784-62.784-62.784s-62.784 28.109-62.784 62.784c0 34.675 28.109 62.784 62.784 62.784s62.784-28.109 62.784-62.784z" />
<glyph unicode="&#xe977;" d="M550.404 599.706c0-34.675-28.109-62.784-62.784-62.784s-62.784 28.109-62.784 62.784c0 34.675 28.109 62.784 62.784 62.784s62.784-28.109 62.784-62.784z" />
<glyph unicode="&#xe978;" d="M867.396 682.236v-120.606c0-99.818-79.834-182.514-179.652-183.276-100.6-0.722-182.39 80.574-182.39 181.010v122.872c0 99.982 81.070 181.010 181.032 181.010 50.002 0 95.244-20.252 128.002-53.010 32.736-32.778 53.008-78.020 53.008-128z" />
<glyph unicode="&#xe979;" d="M867.396 682.236v-26.33c-14.524-4.76-29.976-7.272-45.88-7.272h-270.24c-15.904 0-31.356 2.534-45.922 7.294v26.308c0 99.982 81.070 181.010 181.032 181.010 50.002 0 95.244-20.252 128.002-53.010 32.736-32.778 53.008-78.020 53.008-128z" />
<glyph unicode="&#xe97a;" d="M610.704 960c-79.464 0-148.212-56.608-162.028-134.862-1.042-5.904-1.896-11.888-2.554-17.94-1.912-17.606 0.602-35.42 7.342-51.798l0.024-0.058c16.308-39.632 54.928-65.502 97.784-65.502h270.25c42.902 0 81.552 25.922 97.832 65.616 6.704 16.348 9.2 34.118 7.296 51.684-0.658 6.072-1.514 12.074-2.56 17.996-13.816 78.254-82.564 134.864-162.028 134.864z" />
<glyph unicode="&#xe97b;" d="M927.266 795.67c0-13.762-2.678-27.422-7.91-40.216-16.276-39.7-54.926-65.618-97.84-65.618h-64.402c42.914 0 81.564 25.918 97.84 65.618 5.232 12.794 7.91 26.452 7.91 40.216 0 3.812-0.206 7.644-0.618 11.476-0.66 6.056-1.504 12.074-2.554 17.986-13.824 78.268-82.574 134.862-162.036 134.862h64.402c79.462 0 148.212-56.594 162.036-134.862 1.050-5.912 1.896-11.928 2.554-17.986 0.412-3.832 0.618-7.664 0.618-11.476z" />
<glyph unicode="&#xe97c;" d="M266.158 47.766h-49.394c-11.38 0-20.604 9.224-20.604 20.604v49.394c0 11.38 9.224 20.604 20.604 20.604h49.394c11.38 0 20.604-9.224 20.604-20.604v-49.394c-0.002-11.38-9.226-20.604-20.604-20.604z" />
<glyph unicode="&#xe97d;" d="M286.756 117.768v-49.408c0-11.374-9.21-20.604-20.604-20.604h-45.286c11.374 0 20.604 9.23 20.604 20.604v49.408c0 11.374-9.23 20.604-20.604 20.604h45.286c11.394 0 20.604-9.23 20.604-20.604z" />
<glyph unicode="&#xe97e;" d="M206.126 477.626c-1.648-0.524-3.428-0.524-5.076 0-43.432 13.812-77.26 37.168-100.67 69.544-4.424 6.12-8.094 12.068-11.12 17.602-8.254 15.096-12.464 32.070-12.464 49.274v128.378c0 3.888 2.658 7.272 6.436 8.192l118.36 28.824c1.31 0.32 2.68 0.32 3.99 0l118.36-28.824c3.778-0.92 6.436-4.304 6.436-8.192v-140.84c0-5.042-0.848-10.044-2.538-14.794-3.33-9.37-9.7-23.93-21.048-39.622-23.406-32.374-57.234-55.73-100.666-69.542z" />
<glyph unicode="&#xe97f;" d="M330.37 742.426v-140.846c0-5.028-0.844-10.034-2.534-14.794-3.318-9.354-9.684-23.92-21.036-39.62-23.406-32.368-57.236-55.732-100.67-69.538-1.648-0.516-3.44-0.516-5.090 0-14.382 4.574-27.712 10.2-39.95 16.854 40.692 13.99 72.566 36.696 94.92 67.62 11.352 15.7 17.72 30.246 21.056 39.62 1.69 4.76 2.534 9.766 2.534 14.794v140.846c0 1.586-0.432 3.070-1.194 4.348l45.534-11.086c3.772-0.926 6.43-4.304 6.43-8.198z" />
<glyph unicode="&#xe980;" d="M771.688 619.968l-0.176 0.002c-0.060 0.002-0.12 0.002-0.182 0.002-8.448 0-15.264-6.802-15.36-15.276-0.098-8.534 6.826-15.534 15.362-15.63 0.060-0.002 0.12-0.002 0.182-0.002 8.45 0 15.35 6.802 15.446 15.276 0.1 8.534-6.736 15.532-15.272 15.628z" />
<glyph unicode="&#xe981;" d="M601.43 619.97h-0.172c-8.536 0-15.368-6.918-15.368-15.452 0-8.536 7.004-15.452 15.54-15.452s15.452 6.918 15.452 15.452c0.002 8.534-6.916 15.452-15.452 15.452z" />
<glyph unicode="&#xe982;" d="M339.162 411.71c-2.9 2.898-6.828 4.526-10.928 4.526h-276.412c-8.536 0-15.452-6.918-15.452-15.452s6.918-15.452 15.452-15.452h270.012l145.97-145.974c3.018-3.016 6.972-4.526 10.928-4.526 3.954 0 7.91 1.51 10.928 4.526 6.034 6.036 6.034 15.818 0 21.856z" />
<glyph unicode="&#xe983;" d="M287.402 340.986h-195.444c-8.536 0-15.452-6.918-15.452-15.452s6.918-15.452 15.452-15.452h195.444c8.536 0 15.452 6.918 15.452 15.452s-6.916 15.452-15.452 15.452z" />
<glyph unicode="&#xe984;" d="M287.402 286.728h-111.342c-8.536 0-15.452-6.918-15.452-15.452s6.918-15.452 15.452-15.452h111.342c8.536 0 15.452 6.918 15.452 15.452s-6.916 15.452-15.452 15.452z" />
<glyph unicode="&#xe985;" d="M287.402 232.472h-111.342c-8.536 0-15.452-6.918-15.452-15.452s6.918-15.452 15.452-15.452h111.342c8.536 0 15.452 6.918 15.452 15.452s-6.916 15.452-15.452 15.452z" />
<glyph unicode="&#xe986;" d="M166.354 621.486h21.78v-21.78c0-8.536 6.918-15.452 15.452-15.452 8.536 0 15.452 6.918 15.452 15.452v21.78h21.78c8.536 0 15.452 6.918 15.452 15.452s-6.918 15.452-15.452 15.452h-21.78v21.78c0 8.536-6.918 15.452-15.452 15.452-8.536 0-15.452-6.918-15.452-15.452v-21.78h-21.78c-8.536 0-15.452-6.918-15.452-15.452s6.918-15.452 15.452-15.452z" />
<glyph unicode="&#xe987;" d="M739.708 531.418c-8.554 0.284-15.692-6.356-16-14.886-0.728-20.184-17.126-35.994-37.332-35.994-20.208 0-36.606 15.808-37.332 35.992-0.306 8.53-7.474 15.204-15.998 14.888-8.53-0.308-15.196-7.47-14.888-15.998 1.328-36.89 31.292-65.786 68.218-65.786 36.922 0 66.888 28.896 68.218 65.784 0.308 8.53-6.356 15.692-14.886 16z" />
<glyph unicode="&#xe988;" d="M324.516 585.258c37.024-0.728 62.094 38.436 62.108 38.458 1.162 3.54 2.738 7.002 4.772 10.306 2.184 3.55 4.748 6.732 7.594 9.542l-4.452 6.192c-20.612 33.868-18.406 70.112-18.406 70.112l-0.466 6.622-31.87 31.56-3.374 22.138c-2.156 14.152-16.024 23.376-29.908 19.896l-21.086-5.282c0 0-75.334-0.914-121.172 21.418l0.096-6.602c-2.94-31.124 6.196-66.116 6.196-66.116l-5.906-37.254c-0.976-6.162 3.648-11.794 9.882-12.034 6.388-1.15 23.138 3.636 30.026-11.5 7.582-16.656 25.556-46.2 56.702-43.040 43.126 4.376 57.21-52.352 57.21-52.352l2.060-5.482v3.418h-0.006z" />
<glyph unicode="&#xe989;" d="M328.946 585.382c0.732 0.048 1.462 0.094 2.182 0.172 0.432 0.046 0.858 0.114 1.286 0.172 0.642 0.084 1.282 0.166 1.914 0.274 0.454 0.076 0.9 0.172 1.35 0.26 0.596 0.116 1.19 0.23 1.776 0.364 0.46 0.106 0.916 0.228 1.372 0.344 0.564 0.144 1.126 0.288 1.682 0.448 0.458 0.132 0.914 0.278 1.368 0.42 0.54 0.17 1.076 0.342 1.608 0.526 0.454 0.158 0.904 0.324 1.354 0.492 0.518 0.192 1.030 0.388 1.54 0.594 0.45 0.182 0.898 0.37 1.342 0.562 0.492 0.212 0.982 0.426 1.464 0.652 0.444 0.204 0.888 0.412 1.326 0.628 0.468 0.228 0.934 0.46 1.394 0.698 0.438 0.226 0.876 0.452 1.308 0.688 0.444 0.24 0.886 0.486 1.324 0.736 0.432 0.246 0.866 0.492 1.292 0.746 0.418 0.248 0.832 0.504 1.242 0.758 0.428 0.266 0.86 0.532 1.28 0.804 0.39 0.252 0.772 0.51 1.154 0.766 0.428 0.286 0.858 0.574 1.276 0.866 0.356 0.248 0.704 0.502 1.054 0.754 0.426 0.308 0.858 0.614 1.274 0.926 0.318 0.236 0.626 0.478 0.936 0.718 0.436 0.334 0.878 0.67 1.302 1.010 0.24 0.192 0.47 0.384 0.708 0.58 0.48 0.39 0.962 0.78 1.428 1.174h0.002l-0.514 1.366c0 0-15.142 60.994-61.51 56.29-8.2-0.832-15.55 0.444-22.096 3.11h-0.002c-0.032 0.014-0.066 0.026-0.098 0.040-56.958 22.008-66.902 110.568-68.63 138.438-16.224 3.166-32.634 7.76-46.386 14.462l0.096-6.602c-2.94-31.124 6.196-66.116 6.196-66.116l-5.906-37.254c-0.976-6.162 3.648-11.794 9.882-12.034 6.388-1.15 23.138 3.636 30.026-11.5 7.582-16.656 25.556-46.2 56.702-43.040 43.126 4.376 57.21-52.352 57.21-52.352l2.060-5.482v3.42c1.126-0.022 2.238-0.004 3.342 0.044 0.37 0.014 0.728 0.054 1.090 0.078z" />
<glyph unicode="&#xe98a;" d="M326.076 540.702l-46.58-73.814c-6.236-10.048-15.336-18.002-26.128-22.834l-81.26-36.404-4.778-1.622c-23.336-7.924-42.262-25.298-52.148-47.874-3.16-7.216-2.828-15.486 0.902-22.426l2.308-4.296c5.060-9.418 16.85-12.874 26.194-7.674 57.116 31.432 6.522 7.622 156.86 66.2 20.656 7.906 24.958 23.238 51.072 55.182-17.164 40.592-23.856 74.264-26.442 95.562z" />
<glyph unicode="&#xe98b;" d="M334.988 495.798l-35.806-56.742c-6.236-10.048-15.336-18.002-26.128-22.834l-81.26-36.404-4.778-1.622c-32.446-11.018-53.332-41.088-54.24-56.672 3.938-0.52 8.068 0.152 11.81 2.234 57.116 31.432 6.522 7.622 156.86 66.2 20.656 7.906 24.958 23.238 51.072 55.182-7.824 18.502-13.454 35.546-17.53 50.658z" />
<glyph unicode="&#xe98c;" d="M497.576 534.348l-36.018 17.084c-2.616-4.25-8.178-5.574-12.428-2.96l-39.7 24.424c-17.948 11.042-26.256 32.016-22.232 51.598l-2.638 1.284c0 0-25.072-39.184-62.108-38.458v-23.916c0 0-2.242-102.068 86.202-219.994l138.99 76.936c-2.364 5.392 12.674-28.848-50.068 114.002z" />
<glyph unicode="&#xe98d;" d="M397.672 583.050c-9.604 11.456-13.472 26.834-10.47 41.44l-2.638 1.284c0 0-25.072-39.184-62.108-38.458v-23.916c0 0-2.242-102.068 86.202-219.994l70.998 39.3c-65.25 89.084-79.082 168.382-81.984 200.344z" />
<glyph unicode="&#xe98e;" d="M782.83 233.422l-127.096-5.652c-13.348-0.59-25.714 6.99-31.248 19.152l-41.794 90.72c-0.668-6.3-2.162-12.704-4.772-19.142-9.762-24.072-44.518-54.604-80.458-81.3l-2.598-5.458 69.948-95.704c12.5-17.104 33.49-25.812 54.426-22.582l187.206 29.298-23.614 90.668z" />
<glyph unicode="&#xe98f;" d="M647.574 164.872c-20.936-3.23-41.926 5.478-54.426 22.582l-58.278 79.738c-11.564-10.174-24.402-20.334-37.404-29.99l-2.598-5.458 69.948-95.704c12.5-17.104 33.49-25.812 54.426-22.582l187.206 29.298-11.758 45.144-147.116-23.028z" />
<glyph unicode="&#xe990;" d="M909.53 145.624l-71.578 98.218c-6.6 7.586-17.454 9.834-26.528 5.494l-33.824-16.18 21.574-91.946c31.976-26.924 75.816-38.924 102.030-30.206 14.764 4.91 19.278 23.568 8.326 34.62z" />
<glyph unicode="&#xe991;" d="M909.53 145.624l-13.732 18.842c-30.236-12.306-77.694 3.518-107.302 22.25l10.676-45.504c31.976-26.924 75.816-38.924 102.028-30.206 14.768 4.908 19.282 23.566 8.33 34.618z" />
<glyph unicode="&#xe992;" d="M698.864 389.534c-29.27 39.964-13.926 14.848-83.398 148.434-10.99 21.212-25.202 21.144-118.63 78.702l-41.386-67.276 86.038-41.878c10.684-5.068 19.61-13.216 25.626-23.398l45.298-76.66c1.168-1.594 13.256-37.906 55.574-51.006 14.696-4.548 24.358 5.352 26.194 6.19 8.79 6.090 10.898 18.19 4.684 26.892z" />
<glyph unicode="&#xe993;" d="M654.004 387.894l-49.302 103.734c-6.548 13.776-17.070 25.282-30.206 33.030l-97.91 59.092-21.136-34.356 86.038-41.878c10.684-5.068 19.61-13.216 25.626-23.398l45.298-76.66c1.168-1.594 13.256-37.906 55.574-51.006 0.53-0.164 1.038-0.27 1.554-0.396-11.258 16.372-14.832 30.67-15.536 31.838z" />
<glyph unicode="&#xe994;" d="M545.944 424.208c0 0 56.26-52.886 34.014-107.744-17.16-42.316-111.564-104.618-153.832-130.894-13.696-8.514-25.25-20.042-33.804-33.712l-95.542-152.682-88.134 58.296c139.856 218.15 92.448 150.644 198.56 287.922l138.738 78.814z" />
<glyph unicode="&#xe995;" d="M573.334 387.134c-11.546 22.18-27.392 37.072-27.392 37.072l-138.738-78.812c-106.112-137.28-58.704-69.774-198.56-287.924l41.132-27.208c109.576 171.688 90.52 145.204 168.862 245.836 47.446 60.95 98.214 75.618 154.696 111.036z" />
<glyph unicode="&#xe996;" d="M211.614 62.018c-38.596 15.54-75.23 9.13-95.868-5.998-11.622-8.52-9.046-26.654 4.826-33.634l121.684-84.348c8.692-5.042 15.35-0.17 21.402 8.47l34.518 54.886-86.562 60.624z" />
<glyph unicode="&#xe997;" d="M251.778 33.89l-40.164 28.128c-38.596 15.54-75.232 9.13-95.868-5.998-11.622-8.52-9.046-26.656 4.826-33.634l38.262-26.522c11.924 16.33 51.906 39.968 92.944 38.026z" />
<glyph unicode="&#xe998;" d="M389.332 636.080v0c-14.090-22.902-6.88-53.17 16.024-67.26l39.7-24.424c4.25-2.616 9.814-1.288 12.428 2.96l41.386 67.276c3.49 5.676 1.722 13.108-3.954 16.6l-35.154 21.626c-23.98 14.754-55.674 7.204-70.43-16.778z" />
<glyph unicode="&#xe999;" d="M470.588 585.898l-39.7 24.424c-16.43 10.108-26.012 26.538-25.994 41.722-31.098-20.252-29.674-64.682 0.464-83.222l39.7-24.424c4.25-2.616 9.814-1.288 12.428 2.96l24.55 39.904c-2.074-3.366-7.198-3.978-11.448-1.364z" />
<glyph unicode="&#xe99a;" d="M318.226 948.894c0 0-111.832 48.086-174.476-55.86-63.214-104.89 143.612-102.354 143.612-102.354l21.086 5.282c13.886 3.478 27.752-5.748 29.908-19.896 1.772-7.27 0.394-19.186 10.962-29.65l26.81-26.548c106.094 191.36-57.902 229.026-57.902 229.026z" />
<glyph unicode="&#xe99b;" d="M194.51 876.992c42.716 70.726 108.228 70.984 145.638 63.974-12.674 5.798-21.922 7.926-21.922 7.926s-111.832 48.086-174.476-55.86c-37.076-61.522 18.74-86.078 71.242-95.874-28.908 14.74-45.022 39.204-20.482 79.834z" />
<glyph unicode="&#xe99c;" glyph-name="running" d="M1006.561 737.185l-2.505 2.507c-23.545 23.545-61.916 23.597-85.603-0.070l-92.151-93.121c-4.855-4.871-12.62-5.067-17.685-0.406l-129.198 119.279c-12.548 11.597-28.876 17.969-45.979 17.969h-192.192c-4.537 0-8.877-1.729-12.16-4.837l-162.893-154.667c-23.863-23.881-25.505-62.376-3.635-85.815 11.685-12.532 27.464-19.432 44.425-19.432h0.3c16.821 0.088 32.988 7.236 44.161 19.45l115.043 121.751h41.178l-268.476-300.055h-165.592c-39.255 0-71.535-29.351-73.495-66.823-1.042-19.574 5.806-38.177 19.274-52.367 13.272-13.996 31.929-22.010 51.221-22.010h247.1c4.871 0 9.531 2.011 12.884 5.594l126.603 135.147 106.465-111.336-32.141-205.41c-8.102-34.030 8.226-68.694 38.813-82.372 9.425-4.237 19.432-6.354 29.387-6.354 10.713 0 21.374 2.453 31.187 7.308 18.956 9.389 32.583 26.562 37.541 47.92l54.91 294.526c1.060 5.718-0.76 11.615-4.889 15.725l-146.547 146.353 116.42 116.242 81.154-81.136c22.663-22.663 62.164-22.663 84.809 0l152.268 152.25c11.243 11.243 17.439 26.21 17.439 42.096-0.004 15.899-6.2 30.849-17.443 42.092zM811.894 730.393c58.405 0 105.901 47.496 105.901 105.901s-47.496 105.901-105.901 105.901c-58.403 0-105.901-47.496-105.901-105.901 0.002-58.405 47.498-105.901 105.901-105.901z" />
<glyph unicode="&#xe99d;" d="M492.46 106.668h-390.078c-37.702 0-68.264 30.564-68.264 68.264v68.268h523.914z" />
<glyph unicode="&#xe99e;" d="M921.65 652.8v-477.864h-819.268c-37.702 0-68.264 30.564-68.264 68.266v409.598l477.9 170.668z" />
<glyph unicode="&#xe99f;" d="M154.672 516.266h-36.266c-8.836 0-16 7.164-16 16v36.266c0 8.836 7.164 16 16 16h36.266c8.836 0 16-7.164 16-16v-36.266c0-8.836-7.164-16-16-16z" />
<glyph unicode="&#xe9a0;" d="M291.206 516.266h-36.266c-8.836 0-16 7.164-16 16v36.266c0 8.836 7.164 16 16 16h36.266c8.836 0 16-7.164 16-16v-36.266c0-8.836-7.164-16-16-16z" />
<glyph unicode="&#xe9a1;" d="M427.738 516.266h-36.266c-8.836 0-16 7.164-16 16v36.266c0 8.836 7.164 16 16 16h36.266c8.836 0 16-7.164 16-16v-36.266c0-8.836-7.162-16-16-16z" />
<glyph unicode="&#xe9a2;" d="M564.272 516.266h-36.266c-8.836 0-16 7.164-16 16v36.266c0 8.836 7.164 16 16 16h36.266c8.836 0 16-7.164 16-16v-36.266c0-8.836-7.164-16-16-16z" />
<glyph unicode="&#xe9a3;" d="M700.782 516.266h-36.266c-8.836 0-16 7.164-16 16v36.266c0 8.836 7.164 16 16 16h36.266c8.836 0 16-7.164 16-16v-36.266c0-8.836-7.162-16-16-16z" />
<glyph unicode="&#xe9a4;" d="M837.316 516.266h-36.266c-8.836 0-16 7.164-16 16v36.266c0 8.836 7.164 16 16 16h36.266c8.836 0 16-7.164 16-16v-36.266c0-8.836-7.164-16-16-16z" />
<glyph unicode="&#xe9a5;" d="M154.672 379.734h-36.266c-8.836 0-16 7.164-16 16v36.266c0 8.836 7.164 16 16 16h36.266c8.836 0 16-7.164 16-16v-36.266c0-8.838-7.164-16-16-16z" />
<glyph unicode="&#xe9a6;" d="M291.206 379.734h-36.266c-8.836 0-16 7.164-16 16v36.266c0 8.836 7.164 16 16 16h36.266c8.836 0 16-7.164 16-16v-36.266c0-8.838-7.164-16-16-16z" />
<glyph unicode="&#xe9a7;" d="M427.738 379.734h-36.266c-8.836 0-16 7.164-16 16v36.266c0 8.836 7.164 16 16 16h36.266c8.836 0 16-7.164 16-16v-36.266c0-8.838-7.162-16-16-16z" />
<glyph unicode="&#xe9a8;" d="M580.272 379.734v51.2c0 9.426-7.64 17.066-17.066 17.066h-34.134c-9.426 0-17.066-7.64-17.066-17.066v-34.134c0-9.426 7.642-17.066 17.066-17.066z" />
<glyph unicode="&#xe9a9;" d="M154.672 243.2h-36.266c-8.836 0-16 7.164-16 16v36.266c0 8.836 7.164 16 16 16h36.266c8.836 0 16-7.164 16-16v-36.266c0-8.836-7.164-16-16-16z" />
<glyph unicode="&#xe9aa;" d="M291.206 243.2h-36.266c-8.836 0-16 7.164-16 16v36.266c0 8.836 7.164 16 16 16h36.266c8.836 0 16-7.164 16-16v-36.266c0-8.836-7.164-16-16-16z" />
<glyph unicode="&#xe9ab;" d="M427.738 243.2h-36.266c-8.836 0-16 7.164-16 16v36.266c0 8.836 7.164 16 16 16h36.266c8.836 0 16-7.164 16-16v-36.266c0-8.836-7.162-16-16-16z" />
<glyph unicode="&#xe9ac;" d="M836.834 584.534h-35.3c-2.136 0-4.17-0.42-6.044-1.158 6.11-2.412 10.438-8.356 10.438-15.324v-35.3c0-6.968-4.33-12.912-10.438-15.324 1.874-0.74 3.908-1.16 6.044-1.16h35.3c9.104 0 16.484 7.38 16.484 16.482v35.3c-0.002 9.104-7.382 16.484-16.484 16.484z" />
<glyph unicode="&#xe9ad;" d="M700.3 584.534h-35.3c-2.136 0-4.17-0.42-6.044-1.158 6.11-2.412 10.438-8.356 10.438-15.324v-35.3c0-6.968-4.33-12.912-10.438-15.324 1.874-0.74 3.908-1.16 6.044-1.16h35.3c9.104 0 16.482 7.38 16.482 16.482v35.3c0 9.104-7.378 16.484-16.482 16.484z" />
<glyph unicode="&#xe9ae;" d="M563.79 584.534h-35.3c-2.136 0-4.17-0.42-6.044-1.158 6.11-2.412 10.44-8.356 10.44-15.324v-35.3c0-6.968-4.33-12.912-10.44-15.324 1.874-0.74 3.908-1.16 6.044-1.16h35.3c9.104 0 16.484 7.38 16.484 16.482v35.3c-0.002 9.104-7.382 16.484-16.484 16.484z" />
<glyph unicode="&#xe9af;" d="M427.256 584.534h-35.3c-2.136 0-4.17-0.42-6.044-1.158 6.11-2.412 10.44-8.356 10.44-15.324v-35.3c0-6.968-4.33-12.912-10.44-15.324 1.874-0.74 3.908-1.16 6.044-1.16h35.3c9.104 0 16.484 7.38 16.484 16.482v35.3c-0.002 9.104-7.38 16.484-16.484 16.484z" />
<glyph unicode="&#xe9b0;" d="M290.722 584.534h-35.3c-2.136 0-4.17-0.42-6.044-1.158 6.11-2.412 10.438-8.356 10.438-15.324v-35.3c0-6.968-4.33-12.912-10.438-15.324 1.874-0.74 3.908-1.16 6.044-1.16h35.3c9.104 0 16.484 7.38 16.484 16.482v35.3c0 9.104-7.38 16.484-16.484 16.484z" />
<glyph unicode="&#xe9b1;" d="M154.19 584.534h-35.3c-2.136 0-4.17-0.42-6.044-1.158 6.11-2.412 10.44-8.356 10.44-15.324v-35.3c0-6.968-4.33-12.912-10.44-15.324 1.874-0.74 3.908-1.16 6.044-1.16h35.3c9.104 0 16.484 7.38 16.484 16.482v35.3c-0.002 9.104-7.382 16.484-16.484 16.484z" />
<glyph unicode="&#xe9b2;" d="M154.19 448h-35.3c-2.136 0-4.17-0.42-6.044-1.158 6.11-2.412 10.44-8.356 10.44-15.324v-35.302c0-6.968-4.33-12.912-10.44-15.324 1.874-0.74 3.908-1.16 6.044-1.16h35.3c9.104 0 16.484 7.38 16.484 16.482v35.302c-0.002 9.104-7.382 16.484-16.484 16.484z" />
<glyph unicode="&#xe9b3;" d="M154.19 311.466h-35.3c-2.136 0-4.17-0.42-6.044-1.158 6.11-2.412 10.44-8.356 10.44-15.324v-35.302c0-6.968-4.33-12.912-10.44-15.324 1.874-0.74 3.908-1.16 6.044-1.16h35.3c9.104 0 16.484 7.38 16.484 16.482v35.302c-0.002 9.106-7.382 16.484-16.484 16.484z" />
<glyph unicode="&#xe9b4;" d="M290.722 448h-35.3c-2.136 0-4.17-0.42-6.044-1.158 6.11-2.412 10.438-8.356 10.438-15.324v-35.302c0-6.968-4.33-12.912-10.438-15.324 1.874-0.74 3.908-1.16 6.044-1.16h35.3c9.104 0 16.484 7.38 16.484 16.482v35.302c0 9.104-7.38 16.484-16.484 16.484z" />
<glyph unicode="&#xe9b5;" d="M290.722 311.466h-35.3c-2.136 0-4.17-0.42-6.044-1.158 6.11-2.412 10.438-8.356 10.438-15.324v-35.302c0-6.968-4.33-12.912-10.438-15.324 1.874-0.74 3.908-1.16 6.044-1.16h35.3c9.104 0 16.484 7.38 16.484 16.482v35.302c0 9.106-7.38 16.484-16.484 16.484z" />
<glyph unicode="&#xe9b6;" d="M427.256 448h-35.3c-2.136 0-4.17-0.42-6.044-1.158 6.11-2.412 10.44-8.356 10.44-15.324v-35.302c0-6.968-4.33-12.912-10.44-15.324 1.874-0.74 3.908-1.16 6.044-1.16h35.3c9.104 0 16.484 7.38 16.484 16.482v35.302c-0.002 9.104-7.38 16.484-16.484 16.484z" />
<glyph unicode="&#xe9b7;" d="M580.272 379.734v51.784c0 9.104-7.38 16.482-16.484 16.482h-35.3c-2.136 0-4.17-0.42-6.044-1.158 6.11-2.412 10.44-8.356 10.44-15.324v-35.302c0-6.968-4.33-12.912-10.44-15.324 1.874-0.74 3.908-1.16 6.044-1.16h51.784z" />
<glyph unicode="&#xe9b8;" d="M427.256 311.466h-35.3c-2.136 0-4.17-0.42-6.044-1.158 6.11-2.412 10.44-8.356 10.44-15.324v-35.302c0-6.968-4.33-12.912-10.44-15.324 1.874-0.74 3.908-1.16 6.044-1.16h35.3c9.104 0 16.484 7.38 16.484 16.482v35.302c-0.002 9.106-7.38 16.484-16.484 16.484z" />
<glyph unicode="&#xe9b9;" d="M874.228 672.558v-497.624h47.422v477.866z" />
<glyph unicode="&#xe9ba;" d="M921.65 652.8v170.668c0 37.702-30.564 68.264-68.264 68.264h-751.004c-37.702 0-68.264-30.562-68.264-68.264v-170.668z" />
<glyph unicode="&#xe9bb;" d="M249.218 808.014h-44.434c-8.536 0-15.452 6.918-15.452 15.452s6.918 15.452 15.452 15.452h44.434c8.536 0 15.452-6.918 15.452-15.452s-6.918-15.452-15.452-15.452z" />
<glyph unicode="&#xe9bc;" d="M358.382 808.014h-44.434c-8.536 0-15.452 6.918-15.452 15.452s6.918 15.452 15.452 15.452h44.434c8.536 0 15.452-6.918 15.452-15.452s-6.916-15.452-15.452-15.452z" />
<glyph unicode="&#xe9bd;" d="M641.774 808.014h-44.436c-8.536 0-15.452 6.918-15.452 15.452s6.918 15.452 15.452 15.452h44.436c8.536 0 15.452-6.918 15.452-15.452s-6.916-15.452-15.452-15.452z" />
<glyph unicode="&#xe9be;" d="M750.94 808.014h-44.436c-8.536 0-15.452 6.918-15.452 15.452s6.918 15.452 15.452 15.452h44.436c8.536 0 15.452-6.918 15.452-15.452s-6.918-15.452-15.452-15.452z" />
<glyph unicode="&#xe9bf;" d="M324.25 832c0-23.564-19.102-42.666-42.666-42.666s-42.666 19.102-42.666 42.666v85.334c-0.002 23.564 19.1 42.666 42.664 42.666s42.666-19.102 42.666-42.666v-85.334z" />
<glyph unicode="&#xe9c0;" d="M716.806 832c0-23.564-19.102-42.666-42.666-42.666s-42.668 19.102-42.668 42.666v85.334c0 23.564 19.102 42.666 42.666 42.666s42.666-19.102 42.666-42.666v-85.334z" />
<glyph unicode="&#xe9c1;" d="M674.138 960c-8.76 0-16.896-2.648-23.672-7.176 11.45-7.652 18.996-20.686 18.996-35.492v-85.332c0-14.804-7.546-27.84-18.996-35.492 6.774-4.526 14.912-7.176 23.672-7.176 23.564 0 42.666 19.102 42.666 42.666v85.336c0.002 23.564-19.1 42.666-42.666 42.666z" />
<glyph unicode="&#xe9c2;" d="M281.582 960c-8.76 0-16.896-2.648-23.672-7.176 11.45-7.652 18.996-20.686 18.996-35.492v-85.332c0-14.804-7.546-27.84-18.996-35.492 6.774-4.526 14.912-7.176 23.672-7.176 23.564 0 42.666 19.102 42.666 42.666v85.336c0.002 23.564-19.1 42.666-42.666 42.666z" />
<glyph unicode="&#xe9c3;" d="M853.386 891.734h-47.406c37.702 0 68.264-30.562 68.264-68.264v-170.67h47.404v170.668c0.002 37.702-30.562 68.266-68.262 68.266z" />
<glyph unicode="&#xe9c4;" d="M34.116 736.52h887.534v-30.906h-887.534z" />
<glyph unicode="&#xe9c5;" d="M989.884 192c0-141.385-114.615-256-256-256s-256 114.615-256 256c0 141.385 114.615 256 256 256s256-114.615 256-256z" />
<glyph unicode="&#xe9c6;" d="M921.618 192c0-103.683-84.051-187.734-187.734-187.734s-187.734 84.051-187.734 187.734c0 103.683 84.051 187.734 187.734 187.734s187.734-84.051 187.734-187.734z" />
<glyph unicode="&#xe9c7;" d="M733.884 210.682c-8.536 0-15.452 6.918-15.452 15.452v85.334c0 8.534 6.918 15.452 15.452 15.452 8.536 0 15.452-6.918 15.452-15.452v-85.334c0-8.534-6.918-15.452-15.452-15.452z" />
<glyph unicode="&#xe9c8;" d="M819.218 176.548h-51.202c-8.536 0-15.452 6.918-15.452 15.452s6.918 15.452 15.452 15.452h51.202c8.536 0 15.452-6.918 15.452-15.452s-6.918-15.452-15.452-15.452z" />
<glyph unicode="&#xe9c9;" d="M733.884 448c-7.99 0-15.89-0.386-23.694-1.102 130.274-11.958 232.304-121.504 232.304-254.898s-102.032-242.94-232.306-254.898c7.804-0.716 15.704-1.102 23.694-1.102 141.384 0 256 114.616 256 256s-114.614 256-255.998 256z" />
<glyph unicode="&#xe9ca;" d="M733.884 379.734c-8.020 0-15.922-0.506-23.678-1.482 92.504-11.642 164.056-90.59 164.056-186.252s-71.552-174.61-164.056-186.252c7.756-0.976 15.658-1.482 23.678-1.482 103.682 0 187.734 84.052 187.734 187.734s-84.052 187.734-187.734 187.734z" />
<glyph unicode="&#xe9cb;" d="M768.018 192c0-18.852-15.282-34.134-34.134-34.134s-34.134 15.282-34.134 34.134c0 18.852 15.282 34.134 34.134 34.134s34.134-15.282 34.134-34.134z" />
<glyph unicode="&#xe9cc;" glyph-name="stethoscope" d="M1022.761 389.169c-7.567 52.424-48.75 93.607-101.174 101.174v31.027c0 85.605-65.074 155.304-145.065 155.304-77.686 0-142.726-67.583-145.065-150.662h0.99l-0.99-0.171v-336.328c0-107.518-80.383-194.83-179.197-194.83s-179.197 87.431-179.197 194.83v29.132c24.746 0 51.199 17.937 51.199 68.266v42.922c109.532 28.006 187.731 122.059 187.731 228.69v35.583h-34.133l-0.717 222.119c-0.247 41.115-29.751 76.221-70.211 83.54-8.727 26.737-37.478 41.337-64.217 32.608-26.737-8.727-41.337-37.478-32.608-64.217 8.727-26.737 37.478-41.337 64.217-32.608 14.317 4.674 25.83 15.445 31.447 29.418 21.864-6.221 37.011-26.112 37.188-48.844l0.768-222.017h-34.133v-36.078c-1.361-59.363-41.16-110.951-98.234-127.333-30.538-9.689-63.327-9.689-93.865 0-57.008 16.437-96.718 68.016-98.030 127.333v36.078h-51.199v221.863c0.098 23.067 15.612 43.223 37.887 49.22 10.387-26.442 40.243-39.455 66.685-29.068s39.455 40.245 29.068 66.685-40.245 39.455-66.685 29.068c-14.327-5.63-25.382-17.378-30.126-32.023-40.902-6.989-70.849-42.387-70.962-83.881v-221.863h-34.133v-35.498c0-106.75 78.25-200.838 187.731-228.775v-42.922c0-50.329 26.453-68.266 51.199-68.266v-29.132c0-126.291 95.691-228.963 213.33-228.963s213.33 102.791 213.33 228.963v335.509c1.707 64.767 51.506 117.468 110.932 117.468 61.166 0 110.932-54.339 110.932-121.172v-30.976c-65.303-9.425-110.599-70.004-101.174-135.307s70.004-110.599 135.307-101.174 110.599 70.006 101.174 135.307zM358.395 867.169c-9.425 0-17.066 7.641-17.066 17.066s7.641 17.066 17.066 17.066 17.066-7.641 17.066-17.066-7.641-17.066-17.066-17.066zM153.598 901.302c9.425 0 17.066-7.641 17.066-17.066s-7.641-17.066-17.066-17.066-17.066 7.641-17.066 17.066 7.641 17.066 17.066 17.066zM34.133 558.609v1.365h51.199v-1.946c1.28-74.177 50.63-138.912 121.82-159.793 37.305-11.812 77.347-11.812 114.652 0 71.225 20.853 120.619 85.59 121.922 159.793v1.946h34.133v-1.365c0-94.94-73.181-178.481-174.077-198.687-23.692-4.744-47.961-5.935-72.003-3.533-7.915 0.768-15.782 1.958-23.569 3.567-100.897 20.173-174.077 103.713-174.077 198.653zM238.93 252.778c-15.36 0-17.066 23.893-17.066 34.133v36.215c1.365-0.171 2.765-0.239 4.147-0.375 1.707-0.188 3.413-0.324 5.12-0.478 8.072-0.717 16.213-1.195 24.422-1.212h0.853c8.192 0 16.315 0.495 24.337 1.212 1.707 0.154 3.516 0.29 5.274 0.478 1.348 0.154 2.748 0.205 4.096 0.375v-36.215c0-10.24-1.707-34.133-17.066-34.133h-34.116zM904.52 286.911c-47.127 0-85.332 38.205-85.332 85.332s38.205 85.332 85.332 85.332c47.127 0 85.332-38.205 85.332-85.332-0.055-47.105-38.229-85.277-85.332-85.332zM904.52 423.442c-28.277 0-51.199-22.922-51.199-51.199s22.922-51.199 51.199-51.199 51.199 22.922 51.199 51.199-22.922 51.199-51.199 51.199zM904.52 355.177c-9.425 0-17.066 7.641-17.066 17.066s7.641 17.066 17.066 17.066 17.066-7.641 17.066-17.066-7.641-17.066-17.066-17.066z" />
<glyph unicode="&#xe9cd;" d="M861.636 821.3c33.656 0 60.934 27.254 60.934 60.82 0 33.626-27.278 60.88-60.934 60.88s-60.934-27.254-60.934-60.88c0-33.566 27.278-60.82 60.934-60.82z" />
<glyph unicode="&#xe9ce;" d="M300.004 403.698l-70.854 108.662c-241.728 189.246-339.564-162.286-56.034-128.662z" />
<glyph unicode="&#xe9cf;" d="M403.982 512.302c177.664 223.224-173 324.926-138.99 19.998l59.104-101.76z" />
<glyph unicode="&#xe9d0;" d="M434.448-47l43.752 198.094-43.752 187.594h-89.394l-109.41 9.438-21.906-82.588v-273.722c0-21.356 17.478-38.816 38.852-38.816z" />
<glyph unicode="&#xe9d1;" d="M800.524-8.184v325.164c0 11.916-9.802 21.708-21.728 21.708h-198.98l-52.018-192.904 52.018-192.786h181.856c21.374 0.002 38.852 17.464 38.852 38.818z" />
<glyph unicode="&#xe9d2;" d="M403.982 512.302c121.926 153.202-5.018 249.182-85.614 195.734 66.424-3.716 123.934-83.238 41.568-197.564l9.684-17.284z" />
<glyph unicode="&#xe9d3;" d="M229.152 512.36c-137.928 107.954-228.974 39.938-229.152-32.21 28.696 41.53 95.652 61.292 186.404 2.654 3.66 5.664 8.68 10.56 14.998 14.040z" />
<glyph unicode="&#xe9d4;" d="M434.448 338.688h145.368v-385.688h-145.368z" />
<glyph unicode="&#xe9d5;" d="M800.524 244.42v72.56c0 11.916-9.802 21.708-21.728 21.708h-87.68c11.928 0 21.728-9.792 21.728-21.708v-325.162c0-21.356-17.536-38.816-38.91-38.816h87.74c21.374 0 38.852 17.462 38.852 38.816v252.602z" />
<glyph unicode="&#xe9d6;" d="M179.73 447.884c-1.728 0-3.484 0.296-5.202 0.92-21.896 7.96-39.148 12.672-72.68 16.34-8.356 0.914-14.39 8.428-13.476 16.782 0.914 8.352 8.426 14.378 16.79 13.468 32.384-3.544 52.514-8.084 79.772-17.992 7.9-2.872 11.976-11.602 9.104-19.5-2.248-6.18-8.088-10.018-14.308-10.018z" />
<glyph unicode="&#xe9d7;" d="M332.91 531.24c-0.404 0-0.81 0.016-1.22 0.048-8.382 0.664-14.638 7.992-13.974 16.37 1.964 24.766 13.58 59.468 27.622 82.516 4.372 7.176 13.738 9.456 20.918 5.082 7.182-4.37 9.458-13.732 5.086-20.908-11.472-18.832-21.696-49.182-23.274-69.094-0.63-7.966-7.298-14.014-15.158-14.014z" />
<glyph unicode="&#xe9d8;" d="M688.514 410.722c-3.69 0-7.39 1.334-10.318 4.032-6.18 5.698-6.568 15.324-0.868 21.5 65.174 70.614 45.854 256.65 45.652 258.522-0.904 8.354 5.136 15.86 13.496 16.766 8.364 0.896 15.868-5.136 16.774-13.488 0.888-8.2 20.91-201.766-53.542-282.432-3.002-3.252-7.092-4.9-11.194-4.9z" />
<glyph unicode="&#xe9d9;" d="M842.812 622.75c-1.124 0-2.264 0.126-3.406 0.386-8.184 1.874-13.308 10.002-11.45 18.184 0.336 1.478 8.518 36.654 34.27 76.066 34.296 52.486 83.75 87.702 143.014 101.84 8.18 1.95 16.39-3.092 18.342-11.266s-3.096-16.382-11.272-18.332c-51.926-12.388-93.644-41.988-123.996-87.976-23.066-34.95-30.6-66.78-30.674-67.096-1.628-7.034-7.898-11.806-14.828-11.806z" />
<glyph unicode="&#xe9da;" d="M677.062 810.446l29.876 35.984c6.14 6.962 5.728 9.026-3.306 11.268l-46.408 11.504c-5.254 1.298-5.55 2.714-8.148 6.962l-23.44 39.112c-4.724 7.964-7.616 7.964-12.4 0l-23.44-39.112c-2.538-4.248-2.894-5.664-8.148-6.962l-46.408-11.504c-8.974-2.242-9.448-4.306-3.306-11.268l29.936-35.984c3.188-3.834 3.66-8.318 3.248-13.746l-3.602-44.48c-1.004-9.202 0.944-10.324 9.566-6.844l40.8 16.99c4.252 1.77 10.924 1.77 15.116 0l40.858-16.99c8.62-3.48 10.51-2.36 9.506 6.844l-3.542 44.48c-0.418 5.428-0.006 9.912 3.242 13.746z" />
<glyph unicode="&#xe9db;" d="M621.148 847.552c-6.082-38.934-19.012-72.854-34.658-95.744l25.39 10.56c4.252 1.77 10.924 1.77 15.116 0l40.858-16.99c8.62-3.48 10.51-2.36 9.506 6.844l-3.542 44.48c-0.414 5.428 0 9.91 3.248 13.746l29.876 35.984c6.14 6.962 5.728 9.026-3.306 11.268l-46.408 11.504c-5.254 1.298-5.55 2.714-8.148 6.962l-23.44 39.112c-0.768 1.298-1.476 2.36-2.126 3.186 2.238-21.182 1.648-45.488-2.366-70.912z" />
<glyph unicode="&#xe9dc;" d="M974.764 460.684l29.876 35.984c6.2 6.96 5.728 9.026-3.306 11.268l-46.408 11.504c-5.196 1.298-5.55 2.714-8.090 6.96l-23.44 39.112c-4.782 7.964-7.676 7.964-12.4 0l-23.5-39.112c-2.538-4.248-2.894-5.664-8.090-6.96l-46.408-11.504c-9.034-2.242-9.506-4.306-3.306-11.268l29.876-35.984c3.248-3.834 3.66-8.318 3.248-13.746l-3.602-44.42c-0.944-9.262 0.944-10.382 9.566-6.902l40.8 16.99c4.252 1.77 10.924 1.77 15.174 0l40.8-16.99c8.62-3.48 10.51-2.36 9.566 6.902l-3.602 44.42c-0.414 5.428-0.002 9.91 3.246 13.746z" />
<glyph unicode="&#xe9dd;" d="M918.908 497.79c-6.14-38.934-19.012-72.854-34.718-95.744l25.39 10.56c4.252 1.77 10.924 1.77 15.174 0l40.8-16.99c8.62-3.48 10.51-2.36 9.566 6.902l-3.602 44.42c-0.414 5.428 0 9.91 3.248 13.746l29.876 35.984c6.2 6.96 5.728 9.026-3.306 11.268l-46.408 11.504c-5.196 1.298-5.55 2.714-8.090 6.96l-23.44 39.112c-0.768 1.298-1.476 2.36-2.184 3.244 2.3-21.236 1.65-45.542-2.306-70.966z" />
<glyph unicode="&#xe9de;" d="M922.568 882.12c0 33.626-27.278 60.88-60.934 60.88-11.1 0-21.492-2.95-30.466-8.14 18.244-10.5 30.466-30.204 30.466-52.738 0-22.476-12.222-42.18-30.466-52.68 8.974-5.192 19.366-8.14 30.466-8.14 33.656-0.002 60.934 27.252 60.934 60.818z" />
<glyph unicode="&#xe9df;" d="M205.652 401.868l99.43 18.878 64.536 72.442-20.724 37.106c-3.896 7.020-9.506 12.448-16.002 16.164-12.518 7.138-28.46 7.786-41.922 0.294l-89.57-49.908c-12.872-7.138-20.548-20.058-21.67-33.744-0.708-8.082 0.944-16.458 5.196-24.068z" />
<glyph unicode="&#xe9e0;" d="M429.548 385.764l173.944 96.864c14.348 8.022 19.544 26.252 11.572 40.586l-30.88 55.334c-8.030 14.334-26.274 19.526-40.622 11.504l-173.944-96.866v-72.442z" />
<glyph unicode="&#xe9e1;" d="M91.636 197.52l173.944 96.924 4.96 72.442-64.89 34.982-32.534-18.17-141.47-78.754c-14.288-7.964-19.484-26.192-11.514-40.528l30.88-55.394c7.974-14.274 26.278-19.464 40.624-11.502z" />
<glyph unicode="&#xe9e2;" d="M359.934 510.472l-11.042 19.822c-3.896 7.020-9.506 12.448-16.002 16.164-12.518 7.138-28.46 7.786-41.922 0.294l-50.66-28.2c13.462 7.492 29.346 6.844 41.922-0.294 6.494-3.716 12.104-9.202 16.002-16.164l20.724-37.164 50.66 28.256z" />
<glyph unicode="&#xe9e3;" d="M603.492 482.628c14.348 8.022 19.544 26.252 11.572 40.586l-30.88 55.334c-8.030 14.334-26.274 19.526-40.622 11.504l-69.79-38.876c14.348 8.022 32.592 2.832 40.564-11.504l30.88-55.334c7.972-14.336 2.834-32.504-11.396-40.528z" />
<glyph unicode="&#xe9e4;" d="M429.548 385.764l-59.93 107.424-163.966-91.32 59.93-107.424c54.734 30.5 109.232 60.82 163.966 91.32z" />
<glyph unicode="&#xe9e5;" glyph-name="user-1" d="M504.701 466.736c67.765 0 126.445 24.305 174.39 72.258 47.945 47.945 72.25 106.609 72.25 174.382 0 67.75-24.305 126.421-72.258 174.382-47.953 47.937-106.625 72.242-174.382 72.242-67.773 0-126.437-24.305-174.382-72.25s-72.258-106.617-72.258-174.374c0-67.773 24.312-126.445 72.265-174.39 47.953-47.937 106.625-72.25 174.374-72.25zM936.254 172.597c-1.383 19.953-4.18 41.719-8.297 64.703-4.156 23.156-9.508 45.047-15.914 65.054-6.617 20.68-15.617 41.101-26.742 60.672-11.547 20.312-25.109 38-40.328 52.554-15.914 15.227-35.398 27.469-57.929 36.398-22.453 8.883-47.336 13.383-73.953 13.383-10.453 0-20.562-4.289-40.086-17-12.016-7.836-26.070-16.898-41.758-26.922-13.414-8.547-31.586-16.555-54.031-23.805-21.898-7.086-44.133-10.68-66.078-10.68s-44.172 3.594-66.093 10.68c-22.422 7.242-40.594 15.25-53.992 23.797-15.539 9.93-29.601 18.992-41.797 26.937-19.5 12.711-29.617 17-40.070 17-26.625 0-51.5-4.508-73.945-13.398-22.516-8.914-42.008-21.156-57.937-36.398-15.211-14.562-28.781-32.242-40.312-52.547-11.117-19.57-20.117-39.984-26.742-60.679-6.398-20.008-11.75-41.89-15.906-65.047-4.117-22.953-6.914-44.726-8.297-64.726-1.359-19.594-2.047-39.93-2.047-60.469 0-53.453 16.992-96.726 50.5-128.64 33.094-31.492 76.883-47.469 130.132-47.469h493.061c53.25 0 97.023 15.969 130.124 47.469 33.515 31.89 50.508 75.172 50.508 128.648-0.008 20.633-0.703 40.984-2.070 60.484z" />
<glyph unicode="&#xe9e6;" glyph-name="user" d="M504.702 466.735c67.765 0 126.437 24.305 174.39 72.258 47.937 47.945 72.25 106.609 72.25 174.382 0 67.75-24.305 126.422-72.258 174.382-47.953 47.937-106.625 72.242-174.382 72.242-67.773 0-126.437-24.305-174.382-72.25s-72.258-106.617-72.258-174.375c0-67.773 24.312-126.445 72.258-174.39 47.961-47.937 106.633-72.25 174.382-72.25zM372.757 845.321c36.789 36.789 79.945 54.672 131.945 54.672 51.992 0 95.156-17.883 131.953-54.672 36.789-36.797 54.68-79.961 54.68-131.945 0-52-17.891-95.156-54.68-131.953-36.797-36.797-79.961-54.68-131.953-54.68-51.984 0-95.14 17.891-131.945 54.68-36.797 36.789-54.687 79.953-54.687 131.953 0 51.984 17.891 95.148 54.687 131.945zM936.256 172.595c-1.383 19.953-4.18 41.719-8.297 64.703-4.156 23.156-9.508 45.047-15.914 65.055-6.625 20.68-15.617 41.101-26.75 60.672-11.539 20.312-25.102 38-40.32 52.555-15.914 15.227-35.398 27.469-57.93 36.398-22.453 8.883-47.336 13.383-73.953 13.383-10.453 0-20.562-4.289-40.086-17-12.016-7.836-26.070-16.898-41.758-26.922-13.414-8.547-31.586-16.555-54.031-23.805-21.898-7.086-44.133-10.68-66.086-10.68-21.937 0-44.172 3.594-66.086 10.68-22.422 7.242-40.601 15.25-53.992 23.797-15.539 9.93-29.602 18.992-41.797 26.937-19.508 12.711-29.617 17-40.070 17-26.625 0-51.5-4.508-73.945-13.398-22.516-8.914-42.008-21.156-57.937-36.398-15.219-14.562-28.781-32.242-40.312-52.547-11.117-19.57-20.117-39.984-26.742-60.68-6.398-20.008-11.75-41.891-15.906-65.047-4.125-22.953-6.914-44.726-8.297-64.726-1.359-19.555-2.047-39.906-2.047-60.469 0-53.453 16.992-96.726 50.5-128.64 33.094-31.492 76.875-47.461 130.133-47.461h493.062c53.242 0 97.023 15.969 130.125 47.461 33.516 31.891 50.508 75.18 50.508 128.648-0.008 20.633-0.703 40.984-2.070 60.484zM846.444 26.939c-21.867-20.812-50.898-30.93-88.758-30.93h-493.054c-37.867 0-66.898 10.117-88.758 30.922-21.445 20.414-31.867 48.281-31.867 85.172 0 19.187 0.633 38.133 1.898 56.32 1.234 17.844 3.758 37.445 7.5 58.273 3.695 20.57 8.398 39.875 13.992 57.351 5.367 16.758 12.687 33.351 21.766 49.336 8.664 15.234 18.633 28.305 29.633 38.836 10.289 9.852 23.258 17.914 38.539 23.961 14.133 5.594 30.016 8.656 47.258 9.117 2.102-1.117 5.844-3.25 11.906-7.203 12.336-8.039 26.555-17.211 42.273-27.25 17.719-11.297 40.547-21.5 67.82-30.305 27.883-9.016 56.32-13.594 84.547-13.594s56.672 4.578 84.539 13.586c27.297 8.82 50.117 19.016 67.859 30.328 16.086 10.281 29.906 19.187 42.242 27.234 6.062 3.945 9.805 6.086 11.906 7.203 17.25-0.461 33.133-3.523 47.273-9.117 15.273-6.047 28.242-14.117 38.531-23.961 11-10.523 20.969-23.594 29.633-38.844 9.086-15.977 16.414-32.578 21.773-49.32 5.602-17.5 10.312-36.797 14-57.351 3.734-20.867 6.266-40.476 7.5-58.289v-0.016c1.273-18.117 1.914-37.055 1.922-56.297-0.008-36.898-10.43-64.758-31.875-85.164z" />
<glyph unicode="&#xe9e7;" d="M816-16h-224l-32 384h288z" />
<glyph unicode="&#xe9e8;" d="M400 752v64h-128v-64l-96-96v-624l48-48h224l48 48v624z" />
<glyph unicode="&#xe9e9;" d="M416 592c-40 0-40 16-80 16s-40-16-80-16-40 16-80 16v-576c0-26.51 21.49-48 48-48v0h224c26.51 0 48 21.49 48 48v0 576c-40 0-40-16-80-16z" />
<glyph unicode="&#xe9ea;" d="M240 912h192v-96h-192z" />
<glyph unicode="&#xe9eb;" d="M288 912h32v-48h-32z" />
<glyph unicode="&#xe9ec;" d="M352 912h32v-48h-32z" />
<glyph unicode="&#xe9ed;" d="M176 528h320v-256h-320z" />
<glyph unicode="&#xe9ee;" d="M384 384c0-26.51-21.49-48-48-48s-48 21.49-48 48v0c0 26.512 48 80 48 80s48-53.488 48-80z" />
<glyph unicode="&#xe9ef;" d="M267.312 628.688l-22.624 22.624 59.312 59.312v25.376h32v-32c-0.001-4.418-1.792-8.417-4.688-11.312v0z" />
<glyph unicode="&#xe9f0;" d="M288 32h-48c-8.837 0-16 7.163-16 16v0 80h32v-64h32z" />
<glyph unicode="&#xe9f1;" d="M320 64h32v-32h-32z" />
<glyph unicode="&#xe9f2;" d="M384 64h32v-32h-32z" />
<glyph unicode="&#xe9f3;" d="M592-16h224l26.496 317.968c-20.416-4.368-27.376-13.968-58.496-13.968-40 0-40 16-80 16s-40-16-80-16c-31.088 0-38.064 9.6-58.416 13.968z" />
<glyph unicode="&#xe9f4;" d="M736 208h32v-32h-32z" />
<glyph unicode="&#xe9f5;" d="M656 128h32v-32h-32z" />

<glyph unicode="&#xe923;" glyph-name="icon-chatbot" d="M974.324-64h-102.234v152.854h18.75c54.514-0.112 98.674-44.338 98.674-98.88v-38.784c0-8.39-6.8-15.19-15.19-15.19z" />
<glyph unicode="&#xe924;" d="M49.676-64h102.234v152.854h-18.544c-0.064 0-0.13 0-0.194 0-54.52-0.106-98.686-44.334-98.686-98.88v-38.784c0-8.39 6.8-15.19 15.19-15.19z" />
<glyph unicode="&#xe925;" d="M863.882 301.31h-55.222c-8.536 0-15.452 6.918-15.452 15.452s6.918 15.452 15.452 15.452h55.224c14.382 0 26.084 11.702 26.084 26.084v100.846c0 8.536 6.918 15.452 15.452 15.452s15.452-6.918 15.452-15.452v-100.846c0-31.422-25.564-56.988-56.99-56.988z" />
<glyph unicode="&#xe926;" d="M146.426 505.1c-8.534 0-15.452 6.918-15.452 15.452v391.36c0 8.536 6.918 15.452 15.452 15.452s15.452-6.918 15.452-15.452v-391.36c0.002-8.534-6.918-15.452-15.452-15.452z" />
<glyph unicode="&#xe927;" d="M877.574 524.486c-8.536 0-15.452 6.918-15.452 15.452v124.492c0 107.148-87.174 194.322-194.322 194.322h-311.598c-107.15 0-194.322-87.174-194.322-194.322v-124.492c0-8.536-6.918-15.452-15.452-15.452s-15.452 6.918-15.452 15.452v124.492c0 124.192 101.036 225.228 225.228 225.228h311.598c124.192 0 225.228-101.036 225.228-225.228v-124.492c-0.004-8.534-6.922-15.452-15.456-15.452z" />
<glyph unicode="&#xe928;" d="M229.626 427.248h-94.516c-17.616 0-31.896 14.28-31.896 31.896v116.958c0 17.616 14.28 31.896 31.896 31.896h94.518v-180.75z" />
<glyph unicode="&#xe929;" d="M794.374 427.248h94.518c17.616 0 31.896 14.28 31.896 31.896v116.958c0 17.616-14.28 31.896-31.896 31.896h-94.518z" />
<glyph unicode="&#xe92a;" d="M395.438 311.544h233.124v-277.272h-233.124z" />
<glyph unicode="&#xe92b;" d="M690.378 374.154v291.838c0 46.354-21.5 87.684-55.070 114.566-1.138-0.048-2.296-0.074-3.472-0.074h-239.672c-24.238 0-40.494 10.334-50.672 26.834-0.524 0.848-1.484 1.342-2.474 1.224-72.048-8.498-127.936-69.778-127.936-144.11v-288.708c0-79.574 64.508-144.080 144.080-144.080h219.76c65.95 13.902 115.456 72.424 115.456 142.51z" />
<glyph unicode="&#xe92c;" d="M667.798 809.552h-134.61c80.146 0 145.118-64.972 145.118-145.118v-288.708c0-79.574-64.508-144.080-144.080-144.080h134.61c79.574 0 144.080 64.508 144.080 144.080v288.708c0 80.146-64.97 145.118-145.118 145.118z" />
<glyph unicode="&#xe92d;" d="M803.116 280.828h-72.55c-19.846 0-35.936 16.088-35.936 35.936 0 19.846 16.088 35.936 35.936 35.936h72.55c19.846 0 35.936-16.088 35.936-35.936s-16.088-35.936-35.936-35.936z" />
<glyph unicode="&#xe92e;" d="M690.378 665.992c0 0.234-0.002 0.468-0.002 0.702h-372.426c-25.916 0-46.924-21.008-46.924-46.924v-159.662c0-25.916 21.008-46.924 46.924-46.924h372.428z" />
<glyph unicode="&#xe92f;" d="M678.306 664.434v-251.248h27.744c25.914 0 46.924 21.008 46.924 46.924v159.662c0 25.916-21.008 46.924-46.924 46.924h-27.802c0.012-0.756 0.058-1.504 0.058-2.262z" />
<glyph unicode="&#xe930;" d="M438.492 539.94c0-24.927-20.207-45.134-45.134-45.134s-45.134 20.207-45.134 45.134c0 24.927 20.207 45.134 45.134 45.134s45.134-20.207 45.134-45.134z" />
<glyph unicode="&#xe931;" d="M675.776 539.94c0-24.927-20.207-45.134-45.134-45.134s-45.134 20.207-45.134 45.134c0 24.927 20.207 45.134 45.134 45.134s45.134-20.207 45.134-45.134z" />
<glyph unicode="&#xe932;" d="M548.738 288.062h-73.478c-30.056 0-54.508 24.452-54.508 54.51 0 8.536 6.918 15.452 15.452 15.452s15.452-6.918 15.452-15.452c0-13.014 10.588-23.604 23.602-23.604h73.478c13.014 0 23.604 10.59 23.604 23.604 0 8.536 6.918 15.452 15.452 15.452 8.536 0 15.452-6.918 15.452-15.452 0.004-30.056-24.45-54.51-54.506-54.51z" />
<glyph unicode="&#xe933;" d="M659.98 755.412c-20.938 27.19-51.198 46.832-85.998 54.14h-217.78c-5.848 0-11.602-0.386-17.268-1.058 2.33-41.172 36.444-73.844 78.198-73.844h189.738c20.496 0 39.152 7.874 53.11 20.762z" />
<glyph unicode="&#xe934;" d="M667.798 809.552h-134.6c48.774-0.004 91.892-24.092 118.202-60.996 19.262 13.342 32.262 35.084 33.666 59.938-5.666 0.672-11.42 1.058-17.268 1.058z" />
<glyph unicode="&#xe935;" d="M186.608 919.818c0-22.192-17.99-40.182-40.182-40.182s-40.182 17.99-40.182 40.182c0 22.192 17.99 40.182 40.182 40.182s40.182-17.99 40.182-40.182z" />
<glyph unicode="&#xe936;" d="M701.726 142.538h-505.496c-34.718 0-62.862-28.144-62.862-62.864v-143.674h134.324v1.114c0 7.696 6.238 13.936 13.934 13.936h460.746c7.696 0 13.934-6.238 13.934-13.936v-1.114l8.242 13.134v130.54c0.002 34.706-28.122 62.842-62.822 62.864z" />
<glyph unicode="&#xe937;" d="M827.77 142.538h-134.324c34.718 0 62.862-28.144 62.862-62.864v-143.674h134.324v143.674c0.002 34.718-28.144 62.864-62.862 62.864z" />
<glyph unicode="&#xe938;" d="M756.308-64v65.45c0 12.964-10.508 23.472-23.472 23.472h-441.672c-12.964 0-23.472-10.508-23.472-23.472v-65.45z" />
<glyph unicode="&#xe900;" glyph-name="google-plus" horiz-adv-x="1317" d="M821.143 429.143c0-239.429-160.571-409.143-402.286-409.143-231.429 0-418.857 187.429-418.857 418.857s187.429 418.857 418.857 418.857c113.143 0 207.429-41.143 280.571-109.714l-113.714-109.143c-30.857 29.714-85.143 64.571-166.857 64.571-142.857 0-259.429-118.286-259.429-264.571s116.571-264.571 259.429-264.571c165.714 0 228 119.429 237.714 180.571h-237.714v144h395.429c4-21.143 6.857-42.286 6.857-69.714zM1316.571 498.857v-120h-119.429v-119.429h-120v119.429h-119.429v120h119.429v119.429h120v-119.429h119.429z" />
<glyph unicode="&#xe9e7;" d="M816-16h-224l-32 384h288z" />
<glyph unicode="&#xe9e8;" d="M400 752v64h-128v-64l-96-96v-624l48-48h224l48 48v624z" />
<glyph unicode="&#xe9e9;" d="M416 592c-40 0-40 16-80 16s-40-16-80-16-40 16-80 16v-576c0-26.51 21.49-48 48-48v0h224c26.51 0 48 21.49 48 48v0 576c-40 0-40-16-80-16z" />
<glyph unicode="&#xe9ea;" d="M240 912h192v-96h-192z" />
<glyph unicode="&#xe9eb;" d="M288 912h32v-48h-32z" />
<glyph unicode="&#xe9ec;" d="M352 912h32v-48h-32z" />
<glyph unicode="&#xe9ed;" d="M176 528h320v-256h-320z" />
<glyph unicode="&#xe9ee;" d="M384 384c0-26.51-21.49-48-48-48s-48 21.49-48 48v0c0 26.512 48 80 48 80s48-53.488 48-80z" />
<glyph unicode="&#xe9ef;" d="M267.312 628.688l-22.624 22.624 59.312 59.312v25.376h32v-32c-0.001-4.418-1.792-8.417-4.688-11.312v0z" />
<glyph unicode="&#xe9f0;" d="M288 32h-48c-8.837 0-16 7.163-16 16v0 80h32v-64h32z" />
<glyph unicode="&#xe9f1;" d="M320 64h32v-32h-32z" />
<glyph unicode="&#xe9f2;" d="M384 64h32v-32h-32z" />
<glyph unicode="&#xe9f3;" d="M592-16h224l26.496 317.968c-20.416-4.368-27.376-13.968-58.496-13.968-40 0-40 16-80 16s-40-16-80-16c-31.088 0-38.064 9.6-58.416 13.968z" />
<glyph unicode="&#xe9f4;" d="M736 208h32v-32h-32z" />
<glyph unicode="&#xe9f5;" d="M656 128h32v-32h-32z" />
<glyph unicode="&#xe93b;" glyph-name="facebook" d="M1023.919 448.038c0 282.748-229.21 511.962-511.957 511.962s-511.962-229.214-511.962-511.962c0-255.535 187.217-467.332 431.966-505.741v357.751h-129.988v147.989h129.988v112.794c0 128.311 76.433 199.185 193.374 199.185 56.013 0 114.603-10.001 114.603-10.001v-125.99h-64.555c-63.599 0-83.435-39.462-83.435-79.949v-96.038h141.99l-22.699-147.989h-119.292v-357.751c244.753 38.409 431.966 250.206 431.966 505.741z" />
<glyph unicode="&#xe9ce;" glyph-name="eye" d="M512 768c-223.318 0-416.882-130.042-512-320 95.118-189.958 288.682-320 512-320 223.312 0 416.876 130.042 512 320-95.116 189.958-288.688 320-512 320zM764.45 598.296c60.162-38.374 111.142-89.774 149.434-150.296-38.292-60.522-89.274-111.922-149.436-150.296-75.594-48.218-162.89-73.704-252.448-73.704-89.56 0-176.858 25.486-252.452 73.704-60.158 38.372-111.138 89.772-149.432 150.296 38.292 60.524 89.274 111.924 149.434 150.296 3.918 2.5 7.876 4.922 11.86 7.3-9.96-27.328-15.41-56.822-15.41-87.596 0-141.382 114.616-256 256-256 141.382 0 256 114.618 256 256 0 30.774-5.452 60.268-15.408 87.598 3.978-2.378 7.938-4.802 11.858-7.302v0zM512 544c0-53.020-42.98-96-96-96s-96 42.98-96 96 42.98 96 96 96 96-42.982 96-96z" />
<glyph unicode="&#xe9d1;" glyph-name="eye-blocked" d="M945.942 945.942c-18.746 18.744-49.136 18.744-67.882 0l-202.164-202.164c-51.938 15.754-106.948 24.222-163.896 24.222-223.318 0-416.882-130.042-512-320 41.122-82.124 100.648-153.040 173.022-207.096l-158.962-158.962c-18.746-18.746-18.746-49.136 0-67.882 9.372-9.374 21.656-14.060 33.94-14.060s24.568 4.686 33.942 14.058l864 864c18.744 18.746 18.744 49.138 0 67.884zM416 640c42.24 0 78.082-27.294 90.92-65.196l-121.724-121.724c-37.902 12.838-65.196 48.68-65.196 90.92 0 53.020 42.98 96 96 96zM110.116 448c38.292 60.524 89.274 111.924 149.434 150.296 3.918 2.5 7.876 4.922 11.862 7.3-9.962-27.328-15.412-56.822-15.412-87.596 0-54.89 17.286-105.738 46.7-147.418l-60.924-60.924c-52.446 36.842-97.202 83.882-131.66 138.342zM768 518c0 27.166-4.256 53.334-12.102 77.898l-321.808-321.808c24.568-7.842 50.742-12.090 77.91-12.090 141.382 0 256 114.618 256 256zM830.026 670.026l-69.362-69.362c1.264-0.786 2.53-1.568 3.786-2.368 60.162-38.374 111.142-89.774 149.434-150.296-38.292-60.522-89.274-111.922-149.436-150.296-75.594-48.218-162.89-73.704-252.448-73.704-38.664 0-76.902 4.76-113.962 14.040l-76.894-76.894c59.718-21.462 123.95-33.146 190.856-33.146 223.31 0 416.876 130.042 512 320-45.022 89.916-112.118 166.396-193.974 222.026z" />

</font>
</defs>
</svg>
