<?xml version="1.0" encoding="UTF-8" standalone="no"?> <svg id="Layer_1" data-name="Layer 1" xmlns="http://www.w3.org/2000/svg" viewBox="0 0 128 128"><defs><style>.cls-1{fill:#2e79bd;}.cls-2{fill:#2d3e50;}</style></defs><title>n</title><path class="cls-1" d="M99.16023,62.49972a162.15892,162.15892,0,0,1-5.0818-28.03723,1.2557,1.2557,0,0,0-1.246-1.04179H65.72569a1.25162,1.25162,0,0,0-1.24378,1.04179,162.16926,162.16926,0,0,1-5.084,28.03723,1.19048,1.19048,0,0,0,.27917,1.0418A1.25456,1.25456,0,0,0,60.64392,64H97.91645a1.25,1.25,0,0,0,.96461-.45848A1.18385,1.18385,0,0,0,99.16023,62.49972ZM85.39694,42.4086v2.30145a6.11677,6.11677,0,0,1-12.23353,0V42.4086a1.77714,1.77714,0,1,1,1.961,0v2.30145a4.15462,4.15462,0,0,0,8.30924,0V42.4086a1.776,1.776,0,1,1,1.96327,0Z"/><path class="cls-2" d="M112.1216,15.869a46.45149,46.45149,0,0,0-71.0833,59.21734,46.00073,46.00073,0,0,0,3.15089,4.05619L40.0734,83.25833l-4.97877-4.979L5.1961,108.68943a9.97285,9.97285,0,1,0,14.11445,14.093L49.197,92.38462,45.59974,88.792l-.00021.00026-.87131-.871,4.12233-4.12238q1.6355,1.41795,3.366,2.66077A46.44654,46.44654,0,0,0,112.1216,15.869ZM102.02614,71.45777a32.206,32.206,0,1,1,9.40777-22.74915A32.06853,32.06853,0,0,1,102.02614,71.45777Z"/></svg>