<svg width="11" height="10" viewBox="0 0 11 10" fill="none" xmlns="http://www.w3.org/2000/svg">
<path d="M9.99445 5.56757C9.99445 6.77084 9.13374 8.43373 8.09306 9.34214C7.63153 9.74556 7.13442 10.0001 6.66119 10.0001C6.36208 10.0001 6.06375 9.95644 5.8071 9.88599C5.45544 9.78923 5.08146 9.78923 4.72981 9.88599C4.47318 9.95644 4.17487 10.0001 3.87574 10.0001C3.37996 10.0001 2.85764 9.72046 2.3775 9.28302C1.36684 8.36302 0.54248 6.745 0.54248 5.56756C0.54248 3.83035 1.6856 2.78078 2.76048 2.52744C3.27538 2.40607 3.87282 2.48426 4.35531 2.59838C4.85429 2.7166 5.37288 2.73639 5.87821 2.65773C5.98013 2.64181 6.08124 2.62203 6.18157 2.59838C6.66409 2.48426 7.26125 2.40607 7.7764 2.52744C8.85135 2.7808 9.99445 3.83037 9.99445 5.56757Z" fill="#F94848"/>
<path d="M8.09275 9.34205C6.81563 9.5472 5.83195 9.49037 5.09076 9.3272C3.88044 9.06078 2.98007 8.13275 2.83002 7.00892C2.4542 4.19428 4.47716 3.37482 4.47716 3.37482C5.07009 3.61972 5.73679 3.48894 5.73679 3.48894C5.31134 3.10242 5.87799 2.65773 5.87799 2.65773C5.37265 2.73639 4.85404 2.7166 4.35509 2.59838C3.87257 2.48426 3.27516 2.40607 2.76026 2.52744C1.68533 2.7808 0.542236 3.83037 0.542236 5.56757C0.542236 7.30455 2.33612 10.0001 3.87547 10.0001C4.17458 10.0001 4.47291 9.95644 4.72956 9.88599C5.08122 9.78923 5.45518 9.78923 5.80685 9.88599C6.06351 9.95644 6.36182 10.0001 6.66094 10.0001C7.13416 10.0001 7.63126 9.74556 8.09281 9.34214C8.09275 9.34209 8.09281 9.34214 8.09275 9.34205Z" fill="#E23D3D"/>
<path d="M10.4576 0.108013C10.4576 0.108013 10.1922 1.78997 8.79429 2.27954C7.45796 2.74762 6.2668 1.48211 5.7782 1.58176C5.75618 1.58586 5.73573 1.59311 5.71663 1.60348C5.71583 1.60372 5.71558 1.60397 5.71558 1.60397L5.71583 1.60301C5.73229 1.55766 6.26815 0.106606 7.64429 0.0115282C9.04215 -0.0850148 9.80283 0.494067 10.4576 0.108013Z" fill="#C7F492"/>
<path d="M10.4576 0.108013C10.4576 0.108013 9.60831 1.04901 8.41397 1.04901C7.36375 1.04901 6.07413 1.47801 5.7782 1.58176C5.74265 1.59407 5.72168 1.60178 5.71663 1.60348C5.71583 1.60372 5.71558 1.60397 5.71558 1.60397L5.71583 1.60301C5.73229 1.55766 6.26815 0.106606 7.64429 0.0115282C9.04217 -0.0850148 9.80285 0.494067 10.4576 0.108013Z" fill="#A3E261"/>
<path d="M9.07737 4.7776C9.02519 4.30032 8.7075 3.93829 8.36779 3.96899C8.02808 3.99968 7.79499 4.41147 7.84717 4.88875C7.89935 5.36602 8.21704 5.72805 8.55675 5.69735C8.89646 5.66666 9.12955 5.25487 9.07737 4.7776Z" fill="#FC8181"/>
<path d="M6.25819 3.25098C6.25819 3.44859 5.91687 3.61314 5.46383 3.65053C5.40067 3.65584 5.33537 3.6585 5.26849 3.6585C5.19869 3.6585 5.13076 3.65561 5.06519 3.65006C4.61638 3.61121 4.27905 3.44738 4.27905 3.25098H6.25819Z" fill="#E23D3D"/>
<path d="M6.02356 1.58213L5.29766 2.58439C5.35206 2.78756 5.39905 3.01146 5.42958 3.25056C5.44629 3.37965 5.45824 3.51308 5.46382 3.65012C5.40066 3.65543 5.33537 3.65808 5.26849 3.65808C5.19869 3.65808 5.13075 3.65519 5.06518 3.64965C5.05934 3.5126 5.04634 3.37941 5.02855 3.25056C4.89851 2.31367 4.50092 1.62361 4.49615 1.6159C4.44465 1.5276 4.48156 1.41805 4.57869 1.37125C4.67582 1.3242 4.79633 1.35773 4.8478 1.44605C4.85949 1.46633 5.00571 1.72039 5.15329 2.12574L5.69128 1.38308C5.75152 1.29961 5.87521 1.27668 5.96677 1.3317C6.0586 1.38646 6.08408 1.49865 6.02356 1.58213Z" fill="#B25719"/>
</svg>
