<svg width="37" height="30" viewBox="0 0 37 30" fill="none" xmlns="http://www.w3.org/2000/svg">
<path d="M23.921 17.168C23.921 20.385 21.304 23.002 18.087 23.002C14.87 23.002 12.254 20.385 12.254 17.168C12.254 13.951 14.87 11.334 18.087 11.334C21.304 11.334 23.921 13.952 23.921 17.168ZM36.174 8.884V25.454C36.174 27.663 34.383 29.454 32.174 29.454H4C1.791 29.454 0 27.663 0 25.454V8.884C0 6.675 1.791 4.884 4 4.884H8.92V3.5C8.92 1.567 10.486 0 12.42 0H23.754C25.688 0 27.254 1.567 27.254 3.5V4.883H32.174C34.383 4.884 36.174 6.675 36.174 8.884ZM26.921 17.168C26.921 12.297 22.958 8.334 18.087 8.334C13.217 8.334 9.254 12.297 9.254 17.168C9.254 22.039 13.217 26.002 18.087 26.002C22.958 26.002 26.921 22.039 26.921 17.168Z" fill="black"/>
</svg>
