<svg width="13" height="10" viewBox="0 0 13 10" fill="none" xmlns="http://www.w3.org/2000/svg">
<g clip-path="url(#clip0)">
<path d="M2.83357 5.17318L8.30986 8.98996C8.43652 9.07831 8.60308 9.12361 8.77878 9.1175C8.95447 9.11138 9.11747 9.0546 9.23768 8.95765L9.62045 8.64927C9.86951 8.44833 9.85864 8.13623 9.59622 7.9534L4.99763 4.7483L9.36698 1.22719C9.48719 1.13024 9.55104 1.00436 9.54645 0.872656C9.54186 0.740811 9.46941 0.619674 9.34274 0.531249L8.93946 0.250311C8.8127 0.161962 8.64624 0.116655 8.47054 0.122773C8.29484 0.128892 8.13185 0.185671 8.01164 0.282619L2.80925 4.47491C2.68876 4.57216 2.62512 4.69862 2.63011 4.83052C2.63433 4.96297 2.7066 5.08462 2.83357 5.17318Z" fill="#DADADA"/>
</g>
<defs>
<clipPath id="clip0">
<rect width="12" height="9" fill="white" transform="translate(12.3059 8.99463) rotate(178.006)"/>
</clipPath>
</defs>
</svg>
