<svg width="12" height="12" viewBox="0 0 12 12" fill="none" xmlns="http://www.w3.org/2000/svg">
<path d="M10.6 6.07399C10.5159 7.02167 10.1745 7.9248 9.61565 8.67773C9.0568 9.43065 8.30366 10.0022 7.44435 10.3255C6.58504 10.6488 5.6551 10.7106 4.76335 10.5034C3.8716 10.2963 3.05492 9.82892 2.40888 9.15596C1.76283 8.48299 1.31414 7.63228 1.1153 6.70338C0.916458 5.77447 0.975699 4.80579 1.28609 3.91067C1.59648 3.01556 2.14517 2.23104 2.86798 1.64891C3.59078 1.06678 4.4578 0.711113 5.36757 0.623535C4.83492 1.37416 4.57861 2.29901 4.64525 3.22985C4.71189 4.16069 5.09705 5.03571 5.73069 5.69574C6.36432 6.35577 7.20433 6.75698 8.09794 6.8264C8.99155 6.89581 9.8794 6.62882 10.6 6.07399Z" fill="#FF9C8A" stroke="#FF9C8A" stroke-linecap="round" stroke-linejoin="round"/>
</svg>
