<svg width="20" height="20" viewBox="0 0 20 20" fill="none" xmlns="http://www.w3.org/2000/svg">
<g clip-path="url(#clip0)">
<path d="M11.8325 6.475C11.7417 6.40245 11.627 6.3667 11.511 6.37479H9.74479L11.3941 4.53339L11.5486 4.36219L11.6488 4.2411C11.6763 4.20237 11.6988 4.16025 11.7156 4.11584C11.7346 4.06798 11.7444 4.01698 11.7449 3.96552C11.7565 3.84375 11.6962 3.72631 11.5904 3.66488C11.4531 3.60209 11.3027 3.57344 11.1519 3.58137H9.08088C8.97148 3.57391 8.86312 3.60658 8.77606 3.67323C8.70414 3.73446 8.66411 3.82517 8.6675 3.91959C8.6675 4.06156 8.71343 4.14507 8.80947 4.17847C8.94517 4.21688 9.0861 4.23379 9.22702 4.22858H10.5632C10.5075 4.3065 10.4337 4.39836 10.3419 4.50416L9.99532 4.89666L9.54436 5.39772L9.00572 5.99482C8.81782 6.20359 8.69673 6.34556 8.63827 6.41237C8.5057 6.57339 8.52219 6.80998 8.67585 6.95101C8.7864 7.04042 8.92643 7.08515 9.06835 7.07627H11.5069C11.6235 7.08541 11.7395 7.05122 11.8325 6.98024C11.9035 6.91828 11.9433 6.82804 11.9411 6.73388C11.9447 6.63581 11.905 6.54113 11.8325 6.475Z" fill="#8C92A4"/>
<path d="M15.5154 8.57533C15.4423 8.51687 15.3498 8.48853 15.2565 8.496H13.8535L15.1688 7.02621L15.2941 6.88842L15.3734 6.79238C15.3957 6.76143 15.414 6.72776 15.4277 6.69217C15.4433 6.65365 15.4518 6.61262 15.4528 6.57108C15.4632 6.47363 15.4159 6.379 15.3317 6.3289C15.2219 6.27848 15.1015 6.25551 14.9809 6.26209H13.3441C13.257 6.25723 13.171 6.2839 13.1019 6.33725C13.0442 6.38579 13.0119 6.45813 13.0143 6.5335C13.0143 6.64624 13.0518 6.71304 13.127 6.74227C13.2354 6.77401 13.3482 6.78815 13.461 6.78403H14.5133C14.4673 6.84666 14.4089 6.91765 14.3379 7.00533L14.0623 7.3185L13.7032 7.73605L13.2857 8.21206C13.1353 8.37908 13.0365 8.49323 12.9892 8.55445C12.8908 8.68066 12.9034 8.86073 13.0184 8.97201C13.1049 9.03229 13.2098 9.06037 13.3149 9.05134H15.2607C15.3533 9.05875 15.4453 9.03203 15.5196 8.97618C15.5748 8.92613 15.6053 8.85441 15.6031 8.77993C15.605 8.70227 15.573 8.62758 15.5154 8.57533Z" fill="#8C92A4"/>
<path d="M19.8914 6.24129C19.8006 6.16874 19.6858 6.13299 19.5699 6.14108H17.8078L19.4571 4.29968L19.6074 4.11178L19.7077 3.99069C19.7351 3.95185 19.7575 3.90979 19.7745 3.86542C19.7934 3.81756 19.8033 3.76657 19.8037 3.7151C19.8153 3.59333 19.755 3.4759 19.6492 3.41447C19.5067 3.34411 19.3487 3.31107 19.1899 3.31843H17.1439C17.0345 3.31097 16.9261 3.34364 16.8391 3.41029C16.7671 3.47151 16.7271 3.56223 16.7305 3.65665C16.7305 3.79861 16.7764 3.88212 16.8725 3.91553C17.0082 3.95389 17.1491 3.9708 17.29 3.96563H18.6262C18.5705 4.04356 18.4982 4.13542 18.4091 4.24122L18.0625 4.63372L17.6115 5.13478L17.0729 5.73188C16.885 5.94065 16.7639 6.08262 16.7055 6.14943C16.651 6.21545 16.6201 6.29771 16.6178 6.38326C16.6122 6.4984 16.6581 6.61009 16.743 6.68807C16.8532 6.77106 16.9897 6.81109 17.1272 6.80081H19.5657C19.6823 6.80994 19.7983 6.77576 19.8914 6.70477C19.9623 6.64282 20.0021 6.55258 19.9999 6.45842C19.9923 6.37496 19.9535 6.29745 19.8914 6.24129Z" fill="#8C92A4"/>
<path d="M18.327 13.1803C18.22 13.1297 18.0965 13.1269 17.9873 13.1726H17.9915C13.4653 15.0447 8.27838 12.8932 6.40624 8.36695C5.45667 6.0712 5.51356 3.48238 6.56308 1.23057C6.66167 1.02211 6.57258 0.773197 6.36412 0.674603C6.25712 0.623975 6.13363 0.621208 6.02444 0.666878C1.06283 2.70505 -1.30715 8.37948 0.730976 13.3411C2.7691 18.3027 8.44352 20.6727 13.4052 18.6345C15.6681 17.705 17.4969 15.9557 18.526 13.7362C18.6245 13.5278 18.5354 13.2789 18.327 13.1803Z" fill="#4B7FFB"/>
</g>
<defs>
<clipPath id="clip0">
<rect width="20" height="20" fill="white"/>
</clipPath>
</defs>
</svg>
