<svg width="16" height="16" viewBox="0 0 16 16" fill="none" xmlns="http://www.w3.org/2000/svg">
<g clip-path="url(#clip0)">
<path d="M9.48927 1.78885L9.50417 5.73846L9.51764 9.30986L9.53255 13.2595C9.53621 14.2298 10.3542 15.021 11.3249 15.0174C12.2956 15.0137 13.1076 14.2164 13.1039 13.246L13.089 9.29639L13.0756 5.72499L13.0607 1.77537C13.057 0.805022 12.239 0.0138169 11.2683 0.0174791C10.2976 0.0211413 9.48561 0.818496 9.48927 1.78885Z" fill="#04A550"/>
<path d="M7.38972 13.2675L7.37481 9.31787L7.36134 5.74647L7.34644 1.79686C7.34278 0.826507 6.52479 0.0353013 5.55408 0.0389635C4.58338 0.0426257 3.77138 0.839981 3.77504 1.81033L3.78994 5.75995L3.80341 9.33135L3.81831 13.281C3.82198 14.2513 4.63997 15.0425 5.61067 15.0389C6.58138 15.0352 7.39338 14.2378 7.38972 13.2675Z" fill="#04A550"/>
</g>
<defs>
<clipPath id="clip0">
<rect width="15" height="15" fill="white" transform="translate(15.9111) rotate(89.7838)"/>
</clipPath>
</defs>
</svg>
