<svg width="12" height="9" viewBox="0 0 12 9" fill="none" xmlns="http://www.w3.org/2000/svg">
<path d="M9.33358 4.14882L3.99343 0.143779C3.86992 0.0510728 3.70504 0 3.52924 0C3.35343 0 3.18856 0.0510728 3.06504 0.143779L2.67178 0.438655C2.41588 0.6308 2.41588 0.94309 2.67178 1.13494L7.15604 4.49813L2.6668 7.86506C2.54329 7.95776 2.4751 8.08135 2.4751 8.21313C2.4751 8.34505 2.54329 8.46864 2.6668 8.56142L3.06007 8.85622C3.18368 8.94893 3.34846 9 3.52426 9C3.70006 9 3.86494 8.94893 3.98845 8.85622L9.33358 4.84752C9.45738 4.75452 9.52538 4.63035 9.52499 4.49835C9.52538 4.36584 9.45738 4.24175 9.33358 4.14882Z" fill="#DADADA"/>
</svg>
