<svg width="32" height="32" viewBox="0 0 32 32" fill="none" xmlns="http://www.w3.org/2000/svg">
<path d="M24.7404 18.5475C24.6086 18.5475 24.4743 18.5264 24.3417 18.4835L19.7119 16.3571C19.3349 16.2308 19.0394 15.9344 18.9152 15.5563L15.9132 8.42115C15.6941 7.7601 16.7988 7.33568 17.4595 7.11673C18.1194 6.89778 18.8321 7.25652 19.0504 7.91925L21.1079 14.1609L25.1392 16.0851C25.799 16.3058 26.155 17.0224 25.935 17.6835C25.7587 18.214 25.2676 18.5475 24.7404 18.5475Z" fill="#FFB74D"/>
<path d="M18.2537 13.9841L20.6521 12.7807L19.0495 7.91925C18.8312 7.25652 18.1194 6.89778 17.4595 7.11673C16.7988 7.33568 15.6941 7.7601 15.9132 8.42115L18.2537 13.9841Z" fill="#606FC4"/>
<path d="M18.0118 0C19.6346 0 20.95 1.31958 20.95 2.94737C20.95 4.57432 19.6346 5.89474 18.0118 5.89474C16.3891 5.89474 15.0736 4.57432 15.0736 2.94737C15.0736 1.31958 16.3891 0 18.0118 0Z" fill="#FFB74D"/>
<path d="M6.67791 32C6.2993 32 5.91818 31.872 5.60421 31.6084C4.89148 31.0131 4.79578 29.952 5.3893 29.2362L9.3668 24.4505L11.7862 16.3587C12.0532 15.467 12.9909 14.9608 13.8765 15.2286C14.7656 15.4964 16.1793 16.7924 15.9131 17.6842L12.4847 25.7465C12.4192 25.963 12.3109 26.1676 12.1657 26.3419L7.96821 31.3945C7.63661 31.7928 7.15894 32 6.67791 32Z" fill="#B2AEAD"/>
<path d="M14.2376 20.6315C14.063 20.6315 13.8867 20.6164 13.7087 20.5835C12.112 20.2922 11.0534 18.7578 11.3439 17.157L13.4426 8.3149C13.7331 6.71321 15.2618 5.64711 16.8585 5.94353C18.4552 6.23321 19.5138 7.76921 19.2233 9.36921L17.1246 18.2096C16.8669 19.6345 15.6303 20.6315 14.2376 20.6315Z" fill="#7E8CCF"/>
<path d="M7.11243 19.3685C7.04947 19.3685 6.98651 19.3634 6.92187 19.355C6.23517 19.2497 5.76169 18.6047 5.86579 17.9141L7.19218 11.5722C7.24171 11.2497 7.41381 10.9592 7.67153 10.7596L13.3901 6.36467C14.2347 5.89478 15.0742 5.89478 16.4249 5.89478C17.12 5.89478 15.6265 8.83878 15.0742 9.2632L9.60572 12.4573L8.35572 18.2965C8.26085 18.9213 7.72358 19.3685 7.11243 19.3685Z" fill="#FFB74D"/>
<path d="M20.3599 24.1972C20.3423 24.1711 20.3246 24.1475 20.3053 24.1214L17.0036 18.6494C17.0523 18.5071 17.0968 18.3622 17.1245 18.2098L17.174 18.0001L11.4814 16.5728L11.3429 17.1572C11.1389 18.2805 11.609 19.3626 12.4544 20.0136L17.5921 26.1054L20.3926 31.2498C20.7167 31.7374 21.2481 32.0001 21.7912 32.0001C22.1111 32.0001 22.4351 31.9083 22.7205 31.7172C23.492 31.201 23.7002 30.1551 23.1864 29.382L20.3599 24.1972Z" fill="#D2CCC9"/>
<path d="M16.4244 5.89478C15.0736 5.89478 14.2341 5.89478 13.3896 6.36551L9.77393 9.14446L11.5234 11.3373L15.0736 9.2632C15.626 8.83878 17.1203 5.89478 16.4244 5.89478Z" fill="#7E8CCF"/>
</svg>
